<svg xmlns="http://www.w3.org/2000/svg" width="633.2237" height="234.2506" viewBox="0 0 633.2237 234.2506"><g id="Layer_2" data-name="Layer 2"><g id="Layer_1-2" data-name="Layer 1"><path d="M378.5275,137.1869c0,.0852.0231,80.2628.0231,80.2628s-5.9034,6.7567-14.2576,16.8009V63.0212l13.9042,7.6925c.2965,45.5924.2546,61.9985.2546,61.9985.1111.0543,36.2158,19.3686,36.4525,19.48,5.1688-6.4143,10.29-12.75,15.39-19.1027,8.1281-10.1244,16.4782-20.0708,22.9565-31.4207,6.6294-11.615,10.7281-23.8847,11.2023-37.3565.3253-9.2438-.9268-18.1117-5.1366-26.3887a48.6936,48.6936,0,0,0-49.1429-25.9657c-15.4329,1.752-28.8488,7.6461-40.1564,18.26A70.1747,70.1747,0,0,0,349.07,67.2091c-.1065.4875-.2309.9724-.3784,1.4488-.044.142-.1956.2506-.4494.5582A84.6233,84.6233,0,0,0,339.1046,46.18c-8.3427-14.3541-20.55-24.0616-35.858-30.0109-9.1776-3.5667-18.7051-5.4562-28.5984-4.4741-10.8522,1.0773-20.6594,4.5582-27.74,13.4121-6.8752,8.5972-5.9723,18.4486,2.8405,24.9251,5.6613,4.16,53.0285,28.199,70.4545,36.87,12.11,6.0253,18.0632,19.8208,14.043,33.966a40.59,40.59,0,0,1-6.3508,12.5671c-6.9393,9.46-14.39,18.5455-21.6387,27.7792-.4058.5169-.8316,1.0181-1.4676,1.7944l-78.3963-41.9808c-2.0692,4.2567-3.7658,8.5232-6.0966,12.4094-10.8808,18.1417-26.8588,27.75-48.1634,27.8812a63.7312,63.7312,0,0,1-59.38-39.519c-1.6488-3.9685-3.0672-8.0328-4.6247-12.1391-1.3755,3.288-2.573,6.6375-4.1352,9.8073-11.1016,22.5258-29.1585,36.121-53.6759,40.9687-12.0889,2.39-23.7859.8331-34.3085-6.0412C.3679,144.1771-4.2769,125.8677,4.1391,108.4485,5.4526,105.73,8.0444,100.0376,22.11,86.6114A365.5333,365.5333,0,0,1,61.4353,54.5363c.5037.2786,34.536,17.92,34.9394,18.1008-.5-4.12-.7413-7.8314-1.4258-11.4592C91.9408,45.2359,85.3128,31.1068,73.44,19.7822c-6.938-6.6177-14.883-11.7466-24.5714-12.93-8.1639-.9971-15.64-.06-22.1307,3.3633-8.0716,4.2576-11.2144,9.51-11.4912,10.205l-.6609,1.6613L1.11,22.0671c2.1988-2.5473,3.8068-4.7052,5.7073-6.564C19.4574,3.1394,34.6476-1.7229,52.0781.7322c26,3.6621,42.6956,18.9725,52.5273,42.62,1.325,3.1868,2.3359,6.5042,3.4829,9.7346,2.0143-4.4762,3.71-9.0859,6.0628-13.3321C126.6685,17.159,145.4447,3.1891,171.3913.4531c15.9417-1.681,29.9247,3.3422,38.931,17.3568,8.2556,12.8465,7.3856,26.2906-.4151,39.1678-2.0024,3.3055-5.9267,10.1129-24.04,25.9052-13.6877,11.9336-26.97,21.7-30.9992,24.8364-10.9571-5.4857-10.9847-5.5-10.9847-5.5-9.904-5.1483-13.239-6.9778-22.2757-11.7414-.3541-.1867-.7345-.3238-1.697-.7426.4166,3.79.6328,7.2064,1.1895,10.5662,2.1111,12.7411,6.1884,24.7411,14.505,34.8577,8.9412,10.8765,19.9117,18.6831,34.2522,20.5551,13.1451,1.716,23.8245-3.3317,32.4674-12.9354a56.6081,56.6081,0,0,0,14.358-31.54l75.0752,39.78h0l21.2631-26.8733c8.6108-11.3876,7.8239-27.2744-1.697-36.29a29.8872,29.8872,0,0,0-6.9452-4.7989c-19.4337-9.8924-38.9448-19.6326-58.3867-29.5092a91.7084,91.7084,0,0,1-9.4143-5.649C226.3928,41.0761,224.0653,30.084,230.8316,19.9c6.1875-9.3125,15.2386-14.73,25.8306-17.6211,12.9-3.5211,25.7407-2.53,38.402,1.2995,15.3679,4.6485,28.8556,12.423,39.5079,24.64a56.779,56.779,0,0,1,13.7473,28.673c.342-1.0862.574-1.65.6961-2.2364,3.8459-18.4752,14.336-32.2795,29.89-42.5185A70.5514,70.5514,0,0,1,418.0012.2492c13.23-.07,26.0848,1.89,37.3563,9.63a58.0588,58.0588,0,0,1,24.324,35.352c.1279.53.3,1.0485.56,1.9489,1.3148-3.5429,2.3414-6.7849,3.6968-9.8831,7.7809-17.7858,21.309-29.02,39.8186-34.3155A71.6193,71.6193,0,0,1,574.9,6.8883c16.1594,7.4706,26.6217,20.1088,31.9788,37.0393a78.3939,78.3939,0,0,1,3.4425,23.1159c.1214,13.907-.2323,27.8287.307,41.7173a123.6212,123.6212,0,0,0,3.2,23.9434c2.525,10.5109,9.2364,18.4859,18.0732,24.6425.41.2855.83.5566,1.2354.8481.0495.0356.0371.1572.0866.4058-2.7912.3224-5.4406.5992-8.11-.9082-13.0276-7.3571-21.3183-18.06-23.7458-33.0151a7.5316,7.5316,0,0,0-.4931-1.22c-.9562,1.5424-1.7431,2.8541-2.57,4.14C585.3,147.81,566.8857,159.58,543.0313,162.4658c-14.4242,1.7451-28.2844-.2279-40.69-8.4282-15.0024-9.917-20.5455-26.8737-16.8251-41.6723a39.4384,39.4384,0,0,1,11.4791-19.5694c16.366-15.1966,45.3974-40.7972,45.3974-40.7972C577.1,71.6073,593.9288,79.88,594.8258,80.3171c0-4.8684.12-9.4121-.024-13.9476-.3337-10.5282-2.1809-20.7123-7.8821-29.805-7.93-12.6475-18.824-21.351-33.8311-23.8088-20.1932-3.3072-38.3982,1.2187-53.76,15.1339-9.5137,8.6178-15.0115,19.6894-17.7067,32.065-.997,4.5784-.4886,9.4628-1.0864,14.1542-1.6774,13.1629-6.59,25.1975-13.2354,36.5934-7.8937,13.5374-18.44,25.0572-28.1971,37.1772-4.0679,5.053-8.1946,10.0587-12.3367,15.1377Zm121.4273-9.2363c.0756,1.2648.0712,2.354.215,3.4232,2.4979,18.5733,19.4626,29.171,36.3158,28.2693,11.1083-.5944,20.8711-4.8906,29.39-11.8087a76.4217,76.4217,0,0,0,15.978-17.5794s12.5211-19.1558,13.0068-43.5619c.0009-.044.029-1.594.0312-1.593h0L554.2544,63.3937,534.2991,81.2322c-8.5071,8.0707-17.0837,16.0881-25.2115,24.5316A32.5026,32.5026,0,0,0,499.9548,127.9506ZM119.667,77.4473c.0025.0967.0377,1.3758.0773,3.1442.0427,1.9069.07,3.474.0873,4.53,0,0,20.1882,10.471,24.8,12.74,9.64-8.4718,19.7513-15.37,28.367-23.1238h0c6.4867-5.6495,16.8184-15.1176,23.2524-25.253,4.1066-6.4692,6.1355-13.4517,5.1846-21.1248C199.2568,10.778,182.2591.314,165.1937,6.08c-13.0162,4.3974-22.5477,13.2731-37.2531,36.5669C127.9405,42.6465,119.2358,60.9617,119.667,77.4473ZM71.6053,64.1167c-.9074.7193-13.341,11.0021-18.5849,15.5025-8.652,7.4253-17.55,14.6-25.7837,22.4665C19.01,109.945,14.1319,119.549,14.9536,131.4774c.7529,10.93,7.1284,20.0944,16.8575,23.5464,7.3929,2.6231,14.7489,2.1768,22-.46,12.044-4.3792,21.069-12.6188,28.1716-22.9882A78.5771,78.5771,0,0,0,89.17,118.76c8.5739-19.8353,7.3025-41.5157,7.3054-41.5469C96.4753,77.213,88.1213,72.9015,71.6053,64.1167Z"/></g></g></svg>