<svg width="575" height="401" viewBox="0 0 575 401" fill="none" xmlns="http://www.w3.org/2000/svg">
<path d="M430.59 182.625C439.158 218.552 418.085 261.495 379.413 274.01C350.236 283.458 317.778 273.401 298.33 251.01C281.179 231.271 272.523 200.094 284.153 175.604C284.992 173.849 297.236 148.708 313.169 146.078C315.169 145.755 320.877 145.172 327.148 141.521C332.393 138.469 335.221 134.891 336.492 133.542C345.502 123.937 369.84 126.073 384.674 131.182C407.007 138.885 425.028 159.297 430.59 182.625Z" fill="#FFCD04"/>
<path d="M356.778 278.641C334.585 278.641 312.523 269.021 297.502 251.729C288.658 241.557 282.226 228.63 279.377 215.323C276.262 200.802 277.575 186.906 283.169 175.141C284.497 172.339 296.637 147.698 312.991 145.005C313.179 144.974 313.403 144.943 313.663 144.901C316.075 144.542 321.096 143.787 326.601 140.583C331.012 138.01 333.674 135.047 335.096 133.453C335.325 133.198 335.523 132.984 335.689 132.797C345.304 122.557 370.325 125.089 385.028 130.156C407.648 137.958 425.945 158.453 431.648 182.375C435.892 200.172 432.986 220.307 423.679 237.615C413.929 255.745 398.325 269.042 379.747 275.052C372.267 277.474 364.517 278.646 356.783 278.646L356.778 278.641ZM358.45 127.938C349.71 127.938 341.622 129.667 337.283 134.287C337.122 134.458 336.934 134.667 336.721 134.906C335.21 136.589 332.403 139.724 327.695 142.469C321.83 145.885 316.528 146.677 313.981 147.063C313.736 147.099 313.523 147.13 313.34 147.162C297.825 149.719 285.648 175.005 285.137 176.078C272.877 201.88 283.809 232.641 299.148 250.297C318.846 272.964 350.965 282.073 379.075 272.979C415.278 261.255 438.382 220 429.528 182.875C423.997 159.662 406.247 139.781 384.314 132.219C377.32 129.807 367.528 127.943 358.45 127.943V127.938Z" fill="black"/>
<path d="M319.783 6.54692C314.366 23.8334 311.861 38.9688 310.653 50.5365C309.148 64.9115 309.387 76.2292 309.575 81.4792C309.846 88.7969 310.523 96.5313 311.783 105.036C314.377 122.604 320.309 140.016 331.252 153.979C331.721 154.578 332.57 154.745 333.241 154.375L334.955 153.427C335.674 153.031 335.913 152.115 335.486 151.417C331.872 145.484 326.861 136.26 322.752 124.349C318.83 113 312.169 82.1771 318.195 39.0261C319.335 30.8594 321.309 19.5365 324.939 6.17712C323.221 6.29691 321.502 6.42192 319.788 6.54171L319.783 6.54692Z" fill="#5F58A6"/>
<path d="M318.731 6.26039C315.226 17.4843 312.564 28.9687 310.825 40.6041C309.257 51.1354 308.413 61.7708 308.346 72.4219C308.288 82.3229 308.945 92.2135 310.262 102.031C311.825 113.661 314.544 125.089 319.268 135.865C321.57 141.109 324.33 146.156 327.601 150.865C328.429 152.047 329.283 153.208 330.163 154.354C331.038 155.484 332.325 156.026 333.695 155.365C335.153 154.656 337.023 153.771 336.757 151.833C336.622 150.844 335.851 149.922 335.361 149.083C334.83 148.182 334.314 147.281 333.804 146.37C332.611 144.24 331.476 142.078 330.398 139.891C327.851 134.708 325.611 129.375 323.752 123.911C321.971 118.703 320.762 113.292 319.788 107.88C318.252 99.3541 317.403 90.7083 317.054 82.0521C316.591 70.5781 317.028 59.0677 318.231 47.6458C319.372 36.8281 321.221 26.0885 323.705 15.5C324.419 12.4791 325.179 9.46872 325.992 6.46872C326.169 5.82289 325.658 5.03643 324.939 5.08852C323.221 5.21352 321.502 5.33331 319.788 5.45831C318.398 5.55727 318.382 7.73956 319.788 7.6406C321.507 7.5156 323.226 7.39581 324.939 7.27081C324.591 6.81247 324.236 6.34893 323.887 5.8906C321.07 16.2864 318.856 26.8437 317.32 37.5052C315.627 49.2187 314.695 61.0468 314.689 72.8854C314.679 82.3281 315.257 91.776 316.528 101.135C317.403 107.562 318.585 113.969 320.33 120.219C322.679 128.651 326.242 136.807 330.32 144.536C331.314 146.417 332.351 148.281 333.429 150.115C333.663 150.505 333.893 150.891 334.127 151.281C334.288 151.552 334.731 152.01 334.564 152.344C334.481 152.51 334.184 152.615 334.033 152.698C333.674 152.896 333.314 153.099 332.955 153.292C332.773 153.391 332.585 153.526 332.361 153.474C331.898 153.365 331.46 152.49 331.189 152.13C330.356 151.016 329.549 149.88 328.778 148.724C327.179 146.349 325.71 143.891 324.356 141.365C319.002 131.359 315.596 120.396 313.575 109.26C311.684 98.8593 310.762 88.25 310.564 77.6927C310.377 67.5885 310.898 57.4687 312.091 47.4427C313.356 36.8125 315.419 26.2708 318.195 15.9271C319.018 12.8854 319.898 9.85414 320.841 6.84372C321.257 5.49997 319.153 4.92185 318.736 6.2656L318.731 6.26039Z" fill="black"/>
<path d="M288.523 218.734C274.268 252.813 231.939 275.083 193.32 262.406C164.179 252.839 143.887 225.594 141.367 196.036C139.137 169.984 150.518 139.693 174.351 126.766C176.064 125.833 200.773 112.74 215.189 120.01C216.997 120.922 221.955 123.818 229.174 124.563C235.21 125.188 239.596 123.969 241.424 123.625C254.361 121.177 272.768 137.24 281.742 150.115C295.242 169.5 297.773 196.609 288.523 218.734Z" fill="#FFCD04"/>
<path d="M216.007 267.099C208.189 267.099 200.429 265.885 192.976 263.438C164.085 253.953 142.903 226.906 140.278 196.125C139.132 182.703 141.554 168.458 147.09 156.031C153.132 142.469 162.377 132.016 173.83 125.802C176.559 124.323 200.892 111.578 215.684 119.031C215.861 119.12 216.059 119.224 216.288 119.344C218.45 120.474 222.95 122.818 229.283 123.474C234.361 124 238.262 123.167 240.356 122.724C240.684 122.656 240.976 122.594 241.221 122.547C255.012 119.938 273.747 136.724 282.637 149.49C296.32 169.12 299.023 196.464 289.533 219.146C282.471 236.026 268.257 250.578 250.533 259.078C239.429 264.401 227.653 267.094 216.012 267.094L216.007 267.099ZM204.762 118.906C191.314 118.906 175.695 127.271 174.872 127.719C149.762 141.344 140.46 172.63 142.45 195.938C145.002 225.859 165.58 252.146 193.653 261.365C229.804 273.234 272.788 253.516 287.512 218.307C296.721 196.297 294.101 169.771 280.84 150.74C272.533 138.818 254.325 122.292 241.622 124.698C241.393 124.74 241.116 124.797 240.804 124.865C238.59 125.339 234.481 126.214 229.059 125.651C222.309 124.958 217.554 122.474 215.273 121.286C215.054 121.172 214.866 121.068 214.7 120.99C211.752 119.505 208.335 118.911 204.762 118.911V118.906Z" fill="black"/>
<path d="M345.507 2.72393C345.335 2.02601 344.669 1.56768 343.955 1.66143C331.174 3.28122 309.856 7.88018 288.273 22.4479C264.913 38.2135 253.726 57.901 245.783 71.6771C233.695 92.6406 227.413 113.339 224.257 131.042C223.95 132.766 225.294 134.349 227.044 134.339H227.861C228.554 134.333 229.143 133.839 229.257 133.151C230.465 125.958 232.783 115.115 237.486 102.604C241.741 91.2864 262.413 36.2916 315.564 15.901C322.58 13.2083 332.596 10.1875 345.393 8.94268C346.257 8.85935 346.84 8.02081 346.632 7.18226L345.512 2.71872L345.507 2.72393Z" fill="#5F58A6"/>
<mask id="mask0_23_960" style="mask-type:luminance" maskUnits="userSpaceOnUse" x="222" y="0" width="127" height="136">
<path d="M222.07 0H348.736V135.854H222.07V0Z" fill="white"/>
</mask>
<g mask="url(#mask0_23_960)">
<path d="M346.559 2.4323C346.278 1.53647 345.616 0.838549 344.679 0.6198C343.955 0.453133 343.127 0.671883 342.403 0.770841C341.116 0.942716 339.83 1.14063 338.538 1.35417C335.554 1.85417 332.585 2.45313 329.637 3.16147C322.377 4.89584 315.278 7.26563 308.419 10.2083C300.226 13.724 292.392 18.1094 285.137 23.2917C278.596 27.9688 272.528 33.3073 267.08 39.2292C262.408 44.2969 258.195 49.7761 254.361 55.5C251.169 60.2604 248.262 65.1927 245.398 70.1615C240.95 77.8698 237.007 85.8386 233.689 94.099C230.596 101.771 228.044 109.661 226.017 117.682C225.096 121.328 224.283 125 223.58 128.703C223.231 130.536 222.715 132.375 224.002 133.979C224.965 135.177 226.377 135.49 227.84 135.427C228.783 135.391 229.658 134.922 230.09 134.057C230.419 133.411 230.45 132.604 230.575 131.906C230.84 130.427 231.122 128.953 231.429 127.484C232.169 123.896 233.028 120.339 234.007 116.813C235.533 111.307 237.372 105.901 239.419 100.573C239.872 99.4115 240.33 98.25 240.794 97.099C240.929 96.7656 241.064 96.4375 241.2 96.1094C241.273 95.9271 241.351 95.75 241.424 95.5781C241.455 95.4948 241.486 95.4167 241.517 95.3438C241.549 95.2708 241.669 94.9896 241.575 95.2136C241.892 94.4688 242.21 93.724 242.538 92.9844C244.106 89.4011 245.788 85.8698 247.585 82.4011C249.778 78.1563 252.137 74.0104 254.674 69.9583C257.533 65.3958 260.606 60.9583 263.919 56.7083C267.564 52.0365 271.486 47.5729 275.689 43.3906C280.142 38.9531 284.919 34.8281 289.997 31.1146C295.419 27.1615 301.184 23.6667 307.215 20.7188C313.174 17.8125 319.392 15.4635 325.767 13.6875C329.544 12.6354 333.377 11.7813 337.241 11.125C339.434 10.75 341.642 10.4427 343.856 10.1979C344.882 10.0885 346.07 10.1563 346.882 9.4323C347.616 8.78126 347.872 7.85417 347.674 6.90105C347.361 5.40626 346.929 3.92188 346.554 2.43751C346.215 1.07813 344.111 1.65105 344.455 3.01563C344.642 3.76043 344.825 4.50522 345.012 5.2448L345.398 6.8073C345.45 7.01042 345.585 7.29688 345.57 7.51042C345.559 7.71876 345.465 7.80209 345.273 7.86459C344.809 8.01043 344.21 7.97397 343.726 8.02605C342.596 8.15105 341.465 8.29688 340.335 8.44792C338.267 8.73438 336.205 9.07292 334.158 9.46876C327.491 10.7552 320.945 12.6302 314.622 15.1042C308.299 17.5729 302.205 20.6042 296.429 24.1667C290.991 27.5156 285.83 31.3281 280.991 35.5C276.424 39.4271 272.142 43.6823 268.153 48.1927C264.429 52.4063 260.95 56.8386 257.71 61.4375C254.799 65.5677 252.085 69.8386 249.564 74.2136C247.382 77.9948 245.346 81.8594 243.45 85.7917C241.924 88.9479 240.497 92.1406 239.158 95.375C238.273 97.5052 237.434 99.6458 236.622 101.802C233.986 108.802 231.799 115.958 230.116 123.245C229.434 126.219 228.83 129.214 228.309 132.219C228.226 132.734 228.283 133.224 227.679 133.25C227.153 133.271 226.611 133.281 226.137 133.005C224.731 132.161 225.491 130.25 225.731 128.984C227.158 121.521 229.038 114.135 231.366 106.896C233.986 98.75 237.184 90.7813 240.939 83.0886C244.012 76.7969 247.502 70.7136 251.106 64.7083C254.257 59.4636 257.606 54.3438 261.314 49.474C265.679 43.75 270.544 38.4011 275.866 33.5521C282.158 27.8281 289.09 22.849 296.465 18.6146C303.84 14.375 310.986 11.1927 318.71 8.58334C324.919 6.47917 331.283 4.84897 337.736 3.70313C338.997 3.47917 340.257 3.27605 341.517 3.08855C342.059 3.01043 342.653 2.92188 343.163 2.85417C343.502 2.81251 344.288 2.53126 344.445 3.02084C344.866 4.35938 346.976 3.78647 346.549 2.44272L346.559 2.4323Z" fill="black"/>
</g>
<path d="M322.106 6.34373C327.424 4.10935 337.278 0.807271 349.887 1.41665C354.215 1.62498 366.991 2.68748 380.195 10.7969C387.304 15.1666 391.84 19.9271 394.398 22.6406C400.752 29.3854 404.757 36.0729 407.21 40.9635C388.544 45.2239 371.116 45.5573 356.986 42.401C348.226 40.4479 334.21 35.8437 326.518 22.901C324.294 19.1562 323.189 15.651 322.601 13.2187" fill="#5F58A6"/>
<mask id="mask1_23_960" style="mask-type:luminance" maskUnits="userSpaceOnUse" x="320" y="0" width="89" height="47">
<path d="M320.736 0H408.736V46.5208H320.736V0Z" fill="white"/>
</mask>
<g mask="url(#mask1_23_960)">
<path d="M322.393 7.39583C327.736 5.15625 333.398 3.60416 339.153 2.90625C342.861 2.44791 346.606 2.32291 350.341 2.53125C351.205 2.58333 352.08 2.65104 352.95 2.73437C354.184 2.85416 355.106 2.97916 356.278 3.16146C363.2 4.26041 369.95 6.45833 376.148 9.73958C382.398 13.0469 387.913 17.4115 392.783 22.5156C397.7 27.6667 401.939 33.375 405.304 39.6562C405.632 40.2708 405.955 40.8854 406.262 41.5104C406.481 40.9792 406.7 40.4427 406.913 39.9115C399.309 41.6354 391.575 42.8073 383.783 43.2344C376.877 43.6094 369.903 43.4323 363.059 42.4167C358.07 41.6771 353.122 40.5156 348.393 38.7604C343.387 36.9062 338.549 34.2865 334.497 30.7448C329.632 26.4948 326.002 20.9948 324.153 14.7917C323.966 14.1771 323.804 13.5573 323.648 12.9271C323.32 11.5677 321.216 12.1406 321.544 13.5052C323.127 19.9844 326.46 25.9323 331.184 30.6354C335.294 34.7292 340.299 37.776 345.627 40C350.221 41.9219 355.064 43.2292 359.96 44.1042C366.882 45.349 373.95 45.75 380.976 45.5312C388.851 45.2865 396.716 44.2708 404.434 42.6823C405.46 42.4688 406.481 42.2448 407.497 42.0104C408.221 41.8438 408.45 41.0104 408.148 40.4115C404.846 33.8385 400.606 27.7344 395.611 22.3385C390.992 17.349 385.867 12.8958 380.007 9.40625C373.497 5.52604 366.273 2.82291 358.835 1.40104C353.294 0.348956 347.637 0.00520501 342.007 0.437497C335.606 0.932289 329.278 2.35416 323.294 4.69271C322.799 4.88542 322.304 5.08333 321.814 5.29166C321.273 5.51562 320.882 6.01041 321.054 6.63541C321.195 7.14583 321.846 7.625 322.398 7.39583H322.393Z" fill="black"/>
</g>
<path d="M331.924 11.7396C340.96 12.4271 349.898 14.2136 358.507 17.0469C367.34 19.9584 375.788 23.9844 383.632 28.9844C386.919 31.0834 390.169 33.3959 393.153 35.7709C393.611 36.1354 394.242 36.2188 394.695 35.7709C395.075 35.3907 395.158 34.5938 394.695 34.224C388.554 29.3386 381.939 25.0573 374.929 21.5157C365.846 16.9219 356.153 13.5417 346.179 11.5261C341.471 10.5729 336.71 9.9219 331.924 9.55732C331.335 9.51565 330.83 10.0886 330.83 10.6511C330.83 11.2761 331.335 11.6979 331.924 11.7396Z" fill="black"/>
<path d="M212.392 182.5C212.392 184.005 212.294 185.5 212.085 186.974C211.882 188.453 211.58 189.885 211.179 191.276C210.778 192.667 210.283 193.99 209.7 195.24C209.122 196.495 208.455 197.651 207.715 198.719C206.976 199.781 206.169 200.734 205.294 201.568C204.424 202.406 203.502 203.109 202.533 203.687C201.564 204.266 200.564 204.698 199.538 204.995C198.507 205.286 197.471 205.432 196.419 205.432C195.372 205.432 194.335 205.286 193.304 204.995C192.278 204.698 191.278 204.266 190.309 203.687C189.34 203.109 188.419 202.406 187.544 201.568C186.674 200.734 185.866 199.781 185.127 198.719C184.382 197.651 183.721 196.495 183.137 195.24C182.554 193.99 182.064 192.667 181.663 191.276C181.262 189.885 180.96 188.453 180.752 186.974C180.549 185.5 180.445 184.005 180.445 182.5C180.445 180.995 180.549 179.505 180.752 178.026C180.96 176.552 181.262 175.115 181.663 173.724C182.064 172.333 182.554 171.01 183.137 169.76C183.721 168.505 184.382 167.349 185.127 166.286C185.866 165.219 186.674 164.271 187.544 163.432C188.419 162.594 189.34 161.891 190.309 161.312C191.278 160.734 192.278 160.302 193.304 160.005C194.335 159.713 195.372 159.568 196.419 159.568C197.471 159.568 198.507 159.713 199.538 160.005C200.564 160.302 201.564 160.734 202.533 161.312C203.502 161.891 204.424 162.594 205.294 163.432C206.169 164.271 206.976 165.219 207.715 166.286C208.455 167.349 209.122 168.505 209.7 169.76C210.283 171.01 210.778 172.333 211.179 173.724C211.58 175.115 211.882 176.547 212.085 178.026C212.294 179.505 212.392 180.995 212.392 182.5Z" fill="white"/>
<mask id="mask2_23_960" style="mask-type:luminance" maskUnits="userSpaceOnUse" x="188" y="162" width="25" height="41">
<path d="M188.736 162.521H212.736V202.521H188.736V162.521Z" fill="white"/>
</mask>
<g mask="url(#mask2_23_960)">
<mask id="mask3_23_960" style="mask-type:luminance" maskUnits="userSpaceOnUse" x="180" y="159" width="33" height="47">
<path d="M180.445 182.5C180.445 179.458 180.851 176.531 181.663 173.724C182.471 170.917 183.627 168.432 185.127 166.286C186.622 164.135 188.351 162.474 190.309 161.312C192.262 160.151 194.304 159.568 196.419 159.568C198.538 159.568 200.575 160.151 202.533 161.312C204.492 162.474 206.216 164.135 207.716 166.286C209.216 168.432 210.367 170.917 211.179 173.724C211.992 176.531 212.393 179.458 212.393 182.5C212.393 185.542 211.992 188.469 211.179 191.276C210.367 194.088 209.216 196.568 207.716 198.719C206.216 200.865 204.492 202.526 202.533 203.687C200.575 204.854 198.538 205.432 196.419 205.432C194.304 205.432 192.262 204.854 190.309 203.687C188.351 202.526 186.622 200.865 185.127 198.719C183.627 196.568 182.471 194.088 181.663 191.276C180.851 188.469 180.445 185.542 180.445 182.5Z" fill="white"/>
</mask>
<g mask="url(#mask3_23_960)">
<path d="M215.08 182.5C215.08 183.74 214.997 184.964 214.835 186.177C214.669 187.391 214.429 188.568 214.111 189.714C213.788 190.859 213.398 191.943 212.934 192.974C212.471 194 211.94 194.953 211.351 195.828C210.757 196.703 210.117 197.484 209.424 198.172C208.726 198.859 207.992 199.443 207.221 199.917C206.45 200.391 205.653 200.745 204.835 200.99C204.012 201.229 203.184 201.349 202.351 201.349C201.512 201.349 200.69 201.229 199.867 200.99C199.049 200.745 198.252 200.391 197.481 199.917C196.705 199.443 195.976 198.859 195.278 198.172C194.585 197.484 193.94 196.703 193.351 195.828C192.757 194.953 192.231 194 191.768 192.974C191.304 191.943 190.913 190.859 190.591 189.714C190.273 188.568 190.028 187.391 189.867 186.177C189.705 184.964 189.622 183.74 189.622 182.5C189.622 181.26 189.705 180.036 189.867 178.823C190.028 177.609 190.273 176.432 190.591 175.286C190.913 174.146 191.304 173.057 191.768 172.026C192.231 171 192.757 170.047 193.351 169.172C193.94 168.297 194.585 167.516 195.278 166.828C195.976 166.141 196.705 165.557 197.481 165.083C198.252 164.615 199.049 164.255 199.867 164.016C200.69 163.771 201.512 163.651 202.351 163.651C203.184 163.651 204.012 163.771 204.835 164.016C205.653 164.255 206.45 164.615 207.221 165.083C207.992 165.557 208.726 166.141 209.424 166.828C210.117 167.516 210.757 168.297 211.351 169.172C211.94 170.047 212.471 171 212.934 172.026C213.398 173.057 213.788 174.146 214.111 175.286C214.429 176.432 214.669 177.609 214.835 178.823C214.997 180.036 215.08 181.26 215.08 182.5Z" fill="black"/>
</g>
</g>
<mask id="mask4_23_960" style="mask-type:luminance" maskUnits="userSpaceOnUse" x="187" y="169" width="17" height="11">
<path d="M187.403 169.188H203.403V179.854H187.403V169.188Z" fill="white"/>
</mask>
<g mask="url(#mask4_23_960)">
<mask id="mask5_23_960" style="mask-type:luminance" maskUnits="userSpaceOnUse" x="180" y="159" width="33" height="47">
<path d="M180.445 182.5C180.445 179.458 180.851 176.531 181.663 173.724C182.471 170.917 183.627 168.432 185.127 166.286C186.622 164.135 188.351 162.474 190.309 161.312C192.262 160.151 194.304 159.568 196.419 159.568C198.538 159.568 200.575 160.151 202.533 161.312C204.491 162.474 206.215 164.135 207.715 166.286C209.215 168.432 210.366 170.917 211.179 173.724C211.991 176.531 212.392 179.458 212.392 182.5C212.392 185.542 211.991 188.469 211.179 191.276C210.366 194.089 209.215 196.568 207.715 198.719C206.215 200.865 204.491 202.526 202.533 203.687C200.575 204.854 198.538 205.432 196.419 205.432C194.304 205.432 192.262 204.854 190.309 203.687C188.351 202.526 186.622 200.865 185.127 198.719C183.627 196.568 182.471 194.089 181.663 191.276C180.851 188.469 180.445 185.542 180.445 182.5Z" fill="white"/>
</mask>
<g mask="url(#mask5_23_960)">
<path d="M187.429 178.672C192.731 178.51 198.033 178.359 203.33 178.203C199.017 175.302 194.705 172.401 190.392 169.5C189.403 172.557 188.419 175.609 187.429 178.672Z" fill="white"/>
</g>
</g>
<path d="M210.669 182.5C210.658 186.854 209.825 191.276 207.887 195.198C206.294 198.427 203.95 201.391 200.773 203.078C197.95 204.573 194.679 204.766 191.658 203.495C190.283 202.917 188.851 201.922 187.71 200.828C186.372 199.547 185.268 198.062 184.351 196.453C182.247 192.76 181.174 188.505 180.95 184.271C180.71 179.802 181.356 175.219 183.106 171.078C184.502 167.755 186.715 164.531 189.721 162.568C192.445 160.786 195.617 160.182 198.705 161.083C201.893 162.021 204.554 164.427 206.424 167.255C208.736 170.74 210.049 174.87 210.486 179.01C210.611 180.172 210.669 181.339 210.669 182.51C210.669 183.917 212.856 183.917 212.851 182.51C212.84 177.708 211.861 172.88 209.7 168.578C207.95 165.083 205.288 161.818 201.768 159.995C198.46 158.281 194.549 157.99 191.08 159.417C187.403 160.922 184.559 163.875 182.58 167.271C180.205 171.344 179.018 176.057 178.773 180.74C178.512 185.562 179.283 190.469 181.169 194.922C182.762 198.672 185.257 202.172 188.726 204.401C191.825 206.391 195.658 207.073 199.221 206.047C202.992 204.969 206.023 202.229 208.184 199.042C210.757 195.234 212.137 190.714 212.648 186.177C212.783 184.964 212.846 183.734 212.851 182.51C212.851 181.104 210.674 181.104 210.669 182.51V182.5Z" fill="black"/>
<path d="M258.7 182.5C258.7 184.005 258.596 185.5 258.393 186.974C258.184 188.453 257.882 189.885 257.481 191.276C257.08 192.667 256.59 193.99 256.007 195.24C255.424 196.495 254.762 197.651 254.018 198.719C253.278 199.781 252.471 200.734 251.596 201.568C250.726 202.406 249.804 203.109 248.835 203.687C247.867 204.266 246.867 204.698 245.84 204.995C244.809 205.286 243.773 205.432 242.726 205.432C241.674 205.432 240.637 205.286 239.606 204.995C238.58 204.698 237.58 204.266 236.611 203.687C235.643 203.109 234.721 202.406 233.851 201.568C232.976 200.734 232.169 199.781 231.429 198.719C230.684 197.651 230.023 196.495 229.439 195.24C228.861 193.99 228.367 192.667 227.965 191.276C227.564 189.885 227.262 188.453 227.054 186.974C226.851 185.5 226.752 184.005 226.752 182.5C226.752 180.995 226.851 179.505 227.054 178.026C227.262 176.552 227.564 175.115 227.965 173.724C228.367 172.333 228.861 171.01 229.439 169.76C230.023 168.505 230.684 167.349 231.429 166.286C232.169 165.219 232.976 164.271 233.851 163.432C234.721 162.594 235.643 161.891 236.611 161.312C237.58 160.734 238.58 160.302 239.606 160.005C240.637 159.713 241.674 159.568 242.726 159.568C243.773 159.568 244.809 159.713 245.84 160.005C246.867 160.302 247.867 160.734 248.835 161.312C249.804 161.891 250.726 162.594 251.596 163.432C252.471 164.271 253.278 165.219 254.018 166.286C254.762 167.349 255.424 168.505 256.007 169.76C256.59 171.01 257.08 172.333 257.481 173.724C257.882 175.115 258.184 176.547 258.393 178.026C258.596 179.505 258.7 180.995 258.7 182.5Z" fill="white"/>
<mask id="mask6_23_960" style="mask-type:luminance" maskUnits="userSpaceOnUse" x="235" y="162" width="25" height="41">
<path d="M235.403 162.521H259.403V202.521H235.403V162.521Z" fill="white"/>
</mask>
<g mask="url(#mask6_23_960)">
<mask id="mask7_23_960" style="mask-type:luminance" maskUnits="userSpaceOnUse" x="226" y="159" width="33" height="47">
<path d="M226.752 182.5C226.752 179.458 227.153 176.531 227.965 173.724C228.778 170.917 229.929 168.432 231.429 166.286C232.924 164.135 234.653 162.474 236.611 161.312C238.57 160.151 240.606 159.568 242.726 159.568C244.84 159.568 246.877 160.151 248.835 161.312C250.794 162.474 252.523 164.135 254.018 166.286C255.518 168.432 256.669 170.917 257.481 173.724C258.294 176.531 258.7 179.458 258.7 182.5C258.7 185.542 258.294 188.469 257.481 191.276C256.669 194.088 255.518 196.568 254.018 198.719C252.523 200.865 250.794 202.526 248.835 203.687C246.877 204.854 244.84 205.432 242.726 205.432C240.606 205.432 238.57 204.854 236.611 203.687C234.653 202.526 232.924 200.865 231.429 198.719C229.929 196.568 228.778 194.088 227.965 191.276C227.153 188.469 226.752 185.542 226.752 182.5Z" fill="white"/>
</mask>
<g mask="url(#mask7_23_960)">
<path d="M261.382 182.5C261.382 183.74 261.299 184.964 261.137 186.177C260.971 187.391 260.731 188.568 260.413 189.714C260.09 190.859 259.7 191.943 259.236 192.974C258.773 194 258.242 194.953 257.653 195.828C257.064 196.703 256.419 197.484 255.726 198.172C255.028 198.859 254.294 199.443 253.523 199.917C252.752 200.391 251.955 200.745 251.137 200.99C250.314 201.229 249.486 201.349 248.653 201.349C247.82 201.349 246.992 201.229 246.169 200.99C245.351 200.745 244.554 200.391 243.783 199.917C243.012 199.443 242.278 198.859 241.58 198.172C240.887 197.484 240.247 196.703 239.653 195.828C239.064 194.953 238.533 194 238.07 192.974C237.606 191.943 237.215 190.859 236.893 189.714C236.575 188.568 236.335 187.391 236.169 186.177C236.007 184.964 235.924 183.74 235.924 182.5C235.924 181.26 236.007 180.036 236.169 178.823C236.335 177.609 236.575 176.432 236.893 175.286C237.215 174.146 237.606 173.057 238.07 172.026C238.533 171 239.064 170.047 239.653 169.172C240.247 168.297 240.887 167.516 241.58 166.828C242.278 166.141 243.012 165.557 243.783 165.083C244.554 164.615 245.351 164.255 246.169 164.016C246.992 163.771 247.82 163.651 248.653 163.651C249.486 163.651 250.314 163.771 251.137 164.016C251.955 164.255 252.752 164.615 253.523 165.083C254.294 165.557 255.028 166.141 255.726 166.828C256.419 167.516 257.064 168.297 257.653 169.172C258.242 170.047 258.773 171 259.236 172.026C259.7 173.057 260.09 174.146 260.413 175.286C260.731 176.432 260.971 177.609 261.137 178.823C261.299 180.036 261.382 181.26 261.382 182.5Z" fill="black"/>
</g>
</g>
<mask id="mask8_23_960" style="mask-type:luminance" maskUnits="userSpaceOnUse" x="232" y="169" width="19" height="11">
<path d="M232.736 169.188H250.07V179.854H232.736V169.188Z" fill="white"/>
</mask>
<g mask="url(#mask8_23_960)">
<mask id="mask9_23_960" style="mask-type:luminance" maskUnits="userSpaceOnUse" x="226" y="159" width="33" height="47">
<path d="M226.752 182.5C226.752 179.458 227.153 176.531 227.965 173.724C228.778 170.917 229.929 168.432 231.429 166.286C232.924 164.135 234.653 162.474 236.611 161.312C238.57 160.151 240.606 159.568 242.726 159.568C244.84 159.568 246.877 160.151 248.835 161.312C250.794 162.474 252.523 164.135 254.018 166.286C255.518 168.432 256.669 170.917 257.481 173.724C258.294 176.531 258.7 179.458 258.7 182.5C258.7 185.542 258.294 188.469 257.481 191.276C256.669 194.089 255.518 196.568 254.018 198.719C252.523 200.865 250.794 202.526 248.835 203.687C246.877 204.854 244.84 205.432 242.726 205.432C240.606 205.432 238.57 204.854 236.611 203.687C234.653 202.526 232.924 200.865 231.429 198.719C229.929 196.568 228.778 194.089 227.965 191.276C227.153 188.469 226.752 185.542 226.752 182.5Z" fill="white"/>
</mask>
<g mask="url(#mask9_23_960)">
<path d="M233.731 178.672C239.033 178.51 244.335 178.359 249.637 178.203C245.32 175.302 241.007 172.401 236.695 169.5C235.705 172.557 234.721 175.609 233.731 178.672Z" fill="white"/>
</g>
</g>
<path d="M257.611 182.5C257.596 186.854 256.762 191.276 254.825 195.198C253.236 198.427 250.893 201.391 247.715 203.078C244.893 204.573 241.622 204.766 238.601 203.495C237.221 202.917 235.788 201.922 234.653 200.828C233.314 199.547 232.21 198.062 231.294 196.453C229.189 192.76 228.116 188.505 227.887 184.271C227.648 179.802 228.299 175.219 230.044 171.078C231.445 167.755 233.658 164.531 236.658 162.568C239.387 160.786 242.559 160.182 245.643 161.083C248.83 162.021 251.492 164.427 253.367 167.255C255.674 170.74 256.986 174.87 257.429 179.01C257.549 180.172 257.611 181.339 257.611 182.51C257.611 183.917 259.799 183.917 259.794 182.51C259.778 177.708 258.804 172.88 256.643 168.578C254.887 165.083 252.226 161.818 248.705 159.995C245.398 158.281 241.486 157.99 238.018 159.417C234.34 160.922 231.497 163.875 229.523 167.271C227.148 171.344 225.96 176.057 225.71 180.74C225.455 185.562 226.221 190.469 228.111 194.922C229.705 198.672 232.195 202.172 235.663 204.401C238.768 206.391 242.596 207.073 246.163 206.047C249.934 204.969 252.965 202.229 255.122 199.042C257.7 195.234 259.075 190.714 259.585 186.177C259.721 184.964 259.788 183.734 259.794 182.51C259.794 181.104 257.617 181.104 257.611 182.51V182.5Z" fill="black"/>
<path d="M216.096 204.88C217.872 203.01 220.877 202.708 222.783 204.547C224.564 206.266 224.58 209.245 222.606 210.849C221.965 211.37 221.148 211.646 220.377 211.911C219.58 212.193 218.7 212.552 217.846 212.344C216.481 212.01 215.898 214.115 217.262 214.448C218.361 214.719 219.445 214.521 220.502 214.172C221.455 213.859 222.45 213.526 223.309 213C224.851 212.063 225.934 210.432 226.215 208.656C226.804 204.938 224.012 201.505 220.299 201.135C218.184 200.927 216.018 201.802 214.559 203.328C213.59 204.349 215.132 205.891 216.101 204.875L216.096 204.88Z" fill="black"/>
<path d="M232.132 199.375C233.596 198.266 237.674 195.474 243.622 195.182C249.07 194.911 253.116 196.891 254.747 197.807C252.809 202.094 248.669 204.995 243.986 205.349C239.252 205.703 234.679 203.406 232.132 199.375Z" fill="#E63C23"/>
<path d="M232.679 200.318C237.783 196.453 244.486 195.239 250.606 197.193C251.908 197.604 252.981 198.073 254.195 198.75L253.804 197.255C252.429 200.245 249.924 202.625 246.783 203.672C243.591 204.734 240.064 204.401 237.148 202.719C235.492 201.771 234.096 200.432 233.07 198.823C232.314 197.646 230.424 198.734 231.184 199.922C233.325 203.26 236.814 205.667 240.757 206.276C244.695 206.885 248.663 205.838 251.783 203.354C253.45 202.026 254.794 200.286 255.684 198.354C255.929 197.823 255.846 197.172 255.288 196.859C248.981 193.333 241.231 193.182 234.778 196.432C233.653 197 232.575 197.667 231.57 198.432C231.106 198.786 230.856 199.375 231.179 199.922C231.45 200.385 232.2 200.672 232.669 200.318H232.679Z" fill="black"/>
<path d="M185.111 199.375C186.575 198.266 190.658 195.474 196.606 195.182C202.054 194.911 206.101 196.891 207.731 197.807C205.788 202.094 201.653 204.995 196.971 205.349C192.231 205.703 187.658 203.406 185.111 199.375Z" fill="#E63C23"/>
<path d="M185.663 200.318C190.768 196.453 197.465 195.239 203.59 197.193C204.887 197.604 205.965 198.073 207.174 198.75L206.783 197.255C205.408 200.245 202.903 202.625 199.762 203.672C196.575 204.734 193.049 204.401 190.127 202.719C188.476 201.771 187.08 200.432 186.049 198.823C185.294 197.646 183.403 198.734 184.163 199.922C186.304 203.26 189.799 205.667 193.736 206.276C197.679 206.891 201.643 205.838 204.762 203.354C206.429 202.026 207.773 200.286 208.663 198.354C208.908 197.823 208.825 197.172 208.273 196.859C201.96 193.333 194.21 193.182 187.757 196.432C186.632 197 185.554 197.667 184.554 198.432C184.085 198.786 183.835 199.375 184.158 199.922C184.429 200.385 185.179 200.672 185.653 200.318H185.663Z" fill="black"/>
<path d="M200.45 215.833C203.028 216.63 204.991 218.828 205.408 221.505C205.809 224.068 204.554 226.672 202.372 228.057C201.033 228.906 199.507 229.26 197.924 229.156C197.335 229.12 196.835 229.682 196.835 230.25C196.835 230.87 197.335 231.297 197.924 231.338C201.398 231.568 204.872 229.76 206.57 226.693C208.247 223.661 207.929 219.844 205.851 217.094C204.627 215.479 202.976 214.323 201.038 213.724C199.695 213.307 199.116 215.417 200.455 215.828L200.45 215.833Z" fill="black"/>
<path d="M206.57 225.76C213.872 225.031 221.325 226.224 227.997 229.302C228.533 229.552 229.174 229.453 229.491 228.906C229.762 228.438 229.632 227.667 229.096 227.417C222.08 224.177 214.267 222.807 206.564 223.578C205.981 223.635 205.476 224.037 205.476 224.672C205.476 225.219 205.976 225.823 206.564 225.76H206.57Z" fill="black"/>
<path d="M185.554 151.771C187.731 150.146 190.226 149 192.882 148.427C196.507 147.651 200.419 148.068 203.768 149.5C204.887 149.979 205.966 150.573 206.971 151.255C208.137 152.047 209.226 150.156 208.07 149.37C202.143 145.354 194.398 144.807 187.919 147.818C186.695 148.385 185.533 149.078 184.45 149.885C183.981 150.239 183.742 150.828 184.059 151.375C184.33 151.838 185.075 152.125 185.554 151.771Z" fill="black"/>
<path d="M232.017 151.771C234.189 150.146 236.684 149 239.34 148.427C242.965 147.651 246.877 148.068 250.226 149.5C251.351 149.979 252.424 150.573 253.429 151.255C254.596 152.047 255.684 150.156 254.528 149.37C248.601 145.354 240.856 144.807 234.377 147.818C233.153 148.385 231.997 149.078 230.913 149.885C230.439 150.239 230.2 150.828 230.517 151.375C230.788 151.838 231.538 152.125 232.012 151.771H232.017Z" fill="black"/>
<path d="M388.195 192.958C388.195 194.464 388.09 195.958 387.887 197.432C387.684 198.912 387.382 200.344 386.981 201.734C386.575 203.125 386.085 204.448 385.502 205.698C384.919 206.953 384.257 208.109 383.518 209.177C382.773 210.24 381.965 211.193 381.096 212.026C380.226 212.865 379.304 213.573 378.335 214.146C377.366 214.724 376.366 215.156 375.335 215.453C374.309 215.745 373.268 215.891 372.221 215.891C371.174 215.891 370.132 215.745 369.106 215.453C368.075 215.156 367.075 214.724 366.106 214.146C365.137 213.573 364.221 212.865 363.346 212.026C362.476 211.193 361.669 210.24 360.924 209.177C360.184 208.109 359.523 206.953 358.939 205.698C358.356 204.448 357.866 203.125 357.46 201.734C357.059 200.344 356.757 198.912 356.554 197.432C356.351 195.958 356.247 194.464 356.247 192.958C356.247 191.453 356.351 189.964 356.554 188.484C356.757 187.01 357.059 185.573 357.46 184.182C357.866 182.792 358.356 181.469 358.939 180.219C359.523 178.964 360.184 177.807 360.924 176.745C361.669 175.677 362.476 174.729 363.346 173.891C364.221 173.052 365.137 172.349 366.106 171.771C367.075 171.198 368.075 170.76 369.106 170.469C370.132 170.172 371.174 170.026 372.221 170.026C373.268 170.026 374.309 170.172 375.335 170.469C376.366 170.76 377.366 171.198 378.335 171.771C379.304 172.349 380.226 173.052 381.096 173.891C381.965 174.729 382.773 175.677 383.518 176.745C384.257 177.807 384.919 178.964 385.502 180.219C386.085 181.469 386.575 182.792 386.981 184.182C387.382 185.573 387.684 187.01 387.887 188.484C388.09 189.964 388.195 191.453 388.195 192.958Z" fill="white"/>
<mask id="mask10_23_960" style="mask-type:luminance" maskUnits="userSpaceOnUse" x="355" y="173" width="25" height="39">
<path d="M355.403 173.188H379.403V211.854H355.403V173.188Z" fill="white"/>
</mask>
<g mask="url(#mask10_23_960)">
<mask id="mask11_23_960" style="mask-type:luminance" maskUnits="userSpaceOnUse" x="356" y="170" width="33" height="46">
<path d="M356.247 192.958C356.247 189.917 356.653 186.995 357.46 184.182C358.273 181.375 359.429 178.896 360.924 176.745C362.424 174.594 364.153 172.938 366.106 171.771C368.064 170.609 370.101 170.026 372.221 170.026C374.34 170.026 376.377 170.609 378.335 171.771C380.288 172.938 382.018 174.594 383.518 176.745C385.012 178.896 386.169 181.375 386.981 184.182C387.788 186.995 388.195 189.917 388.195 192.958C388.195 196 387.788 198.927 386.981 201.734C386.169 204.547 385.012 207.026 383.518 209.177C382.018 211.328 380.288 212.984 378.335 214.146C376.377 215.313 374.34 215.891 372.221 215.891C370.101 215.891 368.064 215.313 366.106 214.146C364.153 212.984 362.424 211.328 360.924 209.177C359.429 207.026 358.273 204.547 357.46 201.734C356.653 198.927 356.247 196 356.247 192.958Z" fill="white"/>
</mask>
<g mask="url(#mask11_23_960)">
<path d="M379.018 192.958C379.018 194.198 378.939 195.422 378.773 196.635C378.611 197.849 378.372 199.031 378.049 200.172C377.731 201.318 377.34 202.401 376.872 203.432C376.408 204.458 375.882 205.411 375.288 206.286C374.7 207.161 374.059 207.943 373.361 208.63C372.669 209.318 371.934 209.901 371.163 210.375C370.387 210.849 369.596 211.203 368.773 211.448C367.955 211.688 367.127 211.807 366.294 211.807C365.455 211.807 364.627 211.688 363.809 211.448C362.986 211.203 362.195 210.849 361.419 210.375C360.648 209.901 359.913 209.318 359.221 208.63C358.523 207.943 357.882 207.161 357.294 206.286C356.7 205.411 356.174 204.458 355.71 203.432C355.247 202.401 354.851 201.318 354.533 200.172C354.21 199.031 353.971 197.849 353.809 196.635C353.643 195.422 353.564 194.198 353.564 192.958C353.564 191.724 353.643 190.495 353.809 189.281C353.971 188.068 354.21 186.891 354.533 185.745C354.851 184.604 355.247 183.516 355.71 182.49C356.174 181.458 356.7 180.505 357.294 179.63C357.882 178.755 358.523 177.974 359.221 177.286C359.913 176.599 360.648 176.021 361.419 175.547C362.195 175.073 362.986 174.714 363.809 174.474C364.627 174.229 365.455 174.109 366.294 174.109C367.127 174.109 367.955 174.229 368.773 174.474C369.596 174.714 370.387 175.073 371.163 175.547C371.934 176.021 372.669 176.599 373.361 177.286C374.059 177.974 374.7 178.755 375.288 179.63C375.882 180.505 376.408 181.458 376.872 182.49C377.34 183.516 377.731 184.604 378.049 185.745C378.372 186.891 378.611 188.068 378.773 189.281C378.939 190.495 379.018 191.724 379.018 192.958Z" fill="black"/>
</g>
</g>
<mask id="mask12_23_960" style="mask-type:luminance" maskUnits="userSpaceOnUse" x="367" y="185" width="17" height="11">
<path d="M367.403 185.188H383.403V195.854H367.403V185.188Z" fill="white"/>
</mask>
<g mask="url(#mask12_23_960)">
<mask id="mask13_23_960" style="mask-type:luminance" maskUnits="userSpaceOnUse" x="356" y="170" width="33" height="46">
<path d="M356.247 192.958C356.247 189.917 356.653 186.995 357.46 184.182C358.273 181.375 359.429 178.896 360.924 176.745C362.424 174.594 364.153 172.938 366.106 171.771C368.064 170.609 370.101 170.026 372.221 170.026C374.34 170.026 376.377 170.609 378.335 171.771C380.288 172.938 382.018 174.594 383.518 176.745C385.012 178.896 386.169 181.375 386.981 184.182C387.788 186.995 388.195 189.917 388.195 192.958C388.195 196 387.788 198.927 386.981 201.734C386.169 204.547 385.012 207.026 383.518 209.177C382.018 211.328 380.288 212.984 378.335 214.146C376.377 215.313 374.34 215.891 372.221 215.891C370.101 215.891 368.064 215.313 366.106 214.146C364.153 212.984 362.424 211.328 360.924 209.177C359.429 207.026 358.273 204.547 357.46 201.734C356.653 198.927 356.247 196 356.247 192.958Z" fill="white"/>
</mask>
<g mask="url(#mask13_23_960)">
<path d="M382.684 195.682C377.726 193.797 372.773 191.911 367.814 190.026C372.84 188.703 377.867 187.375 382.893 186.047C382.825 189.26 382.752 192.469 382.684 195.682Z" fill="white"/>
</g>
</g>
<path d="M355.153 192.958C355.163 197.76 356.143 202.589 358.304 206.891C360.054 210.385 362.715 213.651 366.236 215.474C369.544 217.188 373.455 217.474 376.924 216.052C380.601 214.542 383.45 211.594 385.424 208.198C387.799 204.125 388.986 199.411 389.231 194.724C389.492 189.906 388.721 185 386.835 180.547C385.242 176.797 382.747 173.292 379.278 171.068C376.179 169.078 372.346 168.396 368.783 169.422C365.012 170.5 361.981 173.24 359.82 176.427C357.247 180.229 355.867 184.755 355.356 189.292C355.221 190.505 355.158 191.734 355.153 192.958C355.153 194.365 357.33 194.365 357.335 192.958C357.346 188.604 358.179 184.182 360.117 180.26C361.71 177.031 364.054 174.073 367.231 172.38C370.054 170.885 373.325 170.693 376.346 171.964C377.721 172.542 379.153 173.536 380.294 174.63C381.632 175.911 382.736 177.396 383.653 179.005C385.757 182.703 386.83 186.953 387.054 191.188C387.294 195.661 386.648 200.24 384.903 204.38C383.502 207.708 381.288 210.927 378.283 212.891C375.559 214.677 372.387 215.276 369.304 214.375C366.111 213.443 363.45 211.031 361.58 208.203C359.273 204.719 357.955 200.589 357.518 196.448C357.393 195.292 357.335 194.12 357.335 192.948C357.335 191.547 355.148 191.547 355.153 192.948V192.958Z" fill="black"/>
<path d="M345.21 192.958C345.21 194.464 345.111 195.958 344.903 197.432C344.7 198.912 344.398 200.344 343.997 201.734C343.596 203.125 343.101 204.448 342.518 205.698C341.939 206.953 341.273 208.109 340.533 209.177C339.794 210.24 338.986 211.193 338.111 212.026C337.241 212.865 336.32 213.573 335.351 214.146C334.382 214.724 333.382 215.156 332.356 215.453C331.325 215.745 330.288 215.891 329.236 215.891C328.189 215.891 327.153 215.745 326.122 215.453C325.096 215.156 324.096 214.724 323.127 214.146C322.158 213.573 321.236 212.865 320.361 212.026C319.491 211.193 318.684 210.24 317.945 209.177C317.2 208.109 316.538 206.953 315.955 205.698C315.372 204.448 314.882 203.125 314.481 201.734C314.08 200.344 313.778 198.912 313.57 197.432C313.366 195.958 313.262 194.464 313.262 192.958C313.262 191.453 313.366 189.964 313.57 188.484C313.778 187.01 314.08 185.573 314.481 184.182C314.882 182.792 315.372 181.469 315.955 180.219C316.538 178.964 317.2 177.807 317.945 176.745C318.684 175.677 319.491 174.729 320.361 173.891C321.236 173.052 322.158 172.349 323.127 171.771C324.096 171.198 325.096 170.76 326.122 170.469C327.153 170.172 328.189 170.026 329.236 170.026C330.288 170.026 331.325 170.172 332.356 170.469C333.382 170.76 334.382 171.198 335.351 171.771C336.32 172.349 337.241 173.052 338.111 173.891C338.986 174.729 339.794 175.677 340.533 176.745C341.273 177.807 341.939 178.964 342.518 180.219C343.101 181.469 343.596 182.792 343.997 184.182C344.398 185.573 344.7 187.01 344.903 188.484C345.111 189.964 345.21 191.453 345.21 192.958Z" fill="white"/>
<mask id="mask14_23_960" style="mask-type:luminance" maskUnits="userSpaceOnUse" x="312" y="173" width="25" height="39">
<path d="M312.736 173.188H336.736V211.854H312.736V173.188Z" fill="white"/>
</mask>
<g mask="url(#mask14_23_960)">
<mask id="mask15_23_960" style="mask-type:luminance" maskUnits="userSpaceOnUse" x="313" y="170" width="33" height="46">
<path d="M313.262 192.958C313.262 189.917 313.669 186.995 314.481 184.182C315.288 181.375 316.445 178.896 317.945 176.745C319.44 174.594 321.169 172.938 323.127 171.771C325.08 170.609 327.122 170.026 329.236 170.026C331.356 170.026 333.393 170.609 335.351 171.771C337.309 172.938 339.033 174.594 340.533 176.745C342.033 178.896 343.184 181.375 343.997 184.182C344.809 186.995 345.21 189.917 345.21 192.958C345.21 196 344.809 198.927 343.997 201.734C343.184 204.547 342.033 207.026 340.533 209.177C339.033 211.328 337.309 212.984 335.351 214.146C333.393 215.313 331.356 215.891 329.236 215.891C327.122 215.891 325.08 215.313 323.127 214.146C321.169 212.984 319.44 211.328 317.945 209.177C316.445 207.026 315.288 204.547 314.481 201.734C313.669 198.927 313.262 196 313.262 192.958Z" fill="white"/>
</mask>
<g mask="url(#mask15_23_960)">
<path d="M336.033 192.958C336.033 194.198 335.95 195.422 335.788 196.635C335.622 197.849 335.382 199.031 335.065 200.172C334.742 201.318 334.351 202.401 333.887 203.432C333.424 204.458 332.893 205.411 332.304 206.286C331.716 207.161 331.07 207.943 330.377 208.63C329.679 209.318 328.945 209.901 328.174 210.375C327.403 210.849 326.606 211.203 325.788 211.448C324.966 211.688 324.143 211.807 323.304 211.807C322.471 211.807 321.643 211.688 320.82 211.448C320.002 211.203 319.205 210.849 318.434 210.375C317.663 209.901 316.929 209.318 316.231 208.63C315.538 207.943 314.898 207.161 314.304 206.286C313.716 205.411 313.184 204.458 312.721 203.432C312.257 202.401 311.867 201.318 311.544 200.172C311.226 199.031 310.986 197.849 310.82 196.635C310.658 195.422 310.575 194.198 310.575 192.958C310.575 191.724 310.658 190.495 310.82 189.281C310.986 188.068 311.226 186.891 311.544 185.745C311.867 184.604 312.257 183.516 312.721 182.49C313.184 181.458 313.716 180.505 314.304 179.63C314.898 178.755 315.538 177.974 316.231 177.286C316.929 176.599 317.663 176.021 318.434 175.547C319.205 175.073 320.002 174.714 320.82 174.474C321.643 174.229 322.471 174.109 323.304 174.109C324.143 174.109 324.966 174.229 325.788 174.474C326.606 174.714 327.403 175.073 328.174 175.547C328.945 176.021 329.679 176.599 330.377 177.286C331.07 177.974 331.716 178.755 332.304 179.63C332.893 180.505 333.424 181.458 333.887 182.49C334.351 183.516 334.742 184.604 335.065 185.745C335.382 186.891 335.622 188.068 335.788 189.281C335.95 190.495 336.033 191.724 336.033 192.958Z" fill="black"/>
</g>
</g>
<mask id="mask16_23_960" style="mask-type:luminance" maskUnits="userSpaceOnUse" x="324" y="185" width="17" height="11">
<path d="M324.736 185.188H340.736V195.854H324.736V185.188Z" fill="white"/>
</mask>
<g mask="url(#mask16_23_960)">
<mask id="mask17_23_960" style="mask-type:luminance" maskUnits="userSpaceOnUse" x="313" y="170" width="33" height="46">
<path d="M313.262 192.958C313.262 189.917 313.669 186.995 314.481 184.182C315.288 181.375 316.445 178.896 317.945 176.745C319.439 174.594 321.169 172.938 323.127 171.771C325.08 170.609 327.122 170.026 329.236 170.026C331.356 170.026 333.393 170.609 335.351 171.771C337.309 172.938 339.033 174.594 340.533 176.745C342.033 178.896 343.184 181.375 343.997 184.182C344.809 186.995 345.21 189.917 345.21 192.958C345.21 196 344.809 198.927 343.997 201.734C343.184 204.547 342.033 207.026 340.533 209.177C339.033 211.328 337.309 212.984 335.351 214.146C333.393 215.313 331.356 215.891 329.236 215.891C327.122 215.891 325.08 215.313 323.127 214.146C321.169 212.984 319.439 211.328 317.945 209.177C316.445 207.026 315.288 204.547 314.481 201.734C313.669 198.927 313.262 196 313.262 192.958Z" fill="white"/>
</mask>
<g mask="url(#mask17_23_960)">
<path d="M339.7 195.682C334.747 193.797 329.788 191.911 324.83 190.026C329.856 188.703 334.882 187.375 339.913 186.047C339.84 189.26 339.773 192.469 339.7 195.682Z" fill="white"/>
</g>
</g>
<path d="M312.169 192.958C312.184 197.76 313.158 202.589 315.32 206.891C317.075 210.385 319.736 213.651 323.257 215.474C326.564 217.188 330.471 217.474 333.939 216.052C337.622 214.542 340.465 211.594 342.439 208.198C344.814 204.125 346.002 199.411 346.252 194.724C346.507 189.906 345.742 185 343.851 180.547C342.257 176.797 339.768 173.292 336.299 171.068C333.195 169.078 329.367 168.396 325.799 169.422C322.028 170.5 318.997 173.24 316.84 176.427C314.262 180.229 312.887 184.755 312.372 189.292C312.242 190.505 312.174 191.734 312.169 192.958C312.169 194.365 314.346 194.365 314.351 192.958C314.367 188.604 315.2 184.182 317.132 180.26C318.726 177.031 321.07 174.073 324.247 172.38C327.07 170.885 330.34 170.693 333.361 171.964C334.742 172.542 336.174 173.536 337.309 174.63C338.648 175.911 339.752 177.396 340.669 179.005C342.773 182.703 343.846 186.953 344.075 191.188C344.314 195.661 343.663 200.24 341.919 204.38C340.518 207.708 338.304 210.927 335.304 212.891C332.575 214.677 329.403 215.276 326.32 214.375C323.132 213.443 320.471 211.031 318.596 208.203C316.288 204.719 314.976 200.589 314.533 196.448C314.413 195.292 314.351 194.12 314.351 192.948C314.351 191.547 312.163 191.547 312.169 192.948V192.958Z" fill="black"/>
<path d="M353.45 213.792C350.835 211.047 346.346 210.807 343.622 213.521C341.023 216.104 341.059 220.599 343.976 222.953C344.913 223.703 346.017 224.12 347.132 224.51C348.309 224.922 349.502 225.219 350.741 224.912C352.101 224.573 351.528 222.474 350.158 222.807C349.424 222.99 348.684 222.74 347.991 222.505C347.236 222.25 346.476 221.995 345.794 221.583C344.752 220.948 344.075 219.818 343.903 218.615C343.564 216.245 345.507 213.964 347.872 213.766C349.392 213.641 350.856 214.245 351.903 215.339C352.872 216.359 354.408 214.813 353.445 213.792H353.45Z" fill="black"/>
<path d="M367.965 233.151C364.116 237.422 358.997 240.412 353.314 241.594C346.122 243.083 338.314 241.479 332.267 237.047C330.861 236.016 329.564 234.823 328.392 233.542C327.924 233.031 327.481 232.505 327.054 231.969C327.033 231.943 326.908 231.781 326.991 231.891C327.075 232 326.924 231.807 326.908 231.781C326.82 231.672 326.736 231.557 326.653 231.443C326.512 231.245 326.366 231.042 326.226 230.839C325.892 230.354 325.273 230.135 324.736 230.448C324.257 230.729 324.007 231.458 324.34 231.943C328.403 237.781 334.559 242.073 341.523 243.635C348.637 245.224 356.252 244.042 362.538 240.359C365.127 238.849 367.502 236.927 369.512 234.703C370.45 233.662 368.908 232.115 367.965 233.156V233.151Z" fill="black"/>
<path d="M370.794 224.255C368.247 225.677 366.611 228.568 366.887 231.505C367.179 234.599 369.377 237.193 372.403 237.953C374.169 238.396 375.955 238.172 377.601 237.417C378.137 237.172 378.268 236.396 377.992 235.922C377.669 235.375 377.038 235.286 376.502 235.531C373.903 236.724 370.601 235.573 369.45 232.922C368.361 230.417 369.518 227.469 371.898 226.135C373.122 225.453 372.023 223.568 370.799 224.25L370.794 224.255Z" fill="black"/>
<path d="M326.101 169.313C325.2 169.474 323.945 169.458 322.882 169.214C321.84 168.979 320.835 168.583 319.997 167.901C319.528 167.521 319.111 167.078 318.778 166.573C318.627 166.344 318.486 166.109 318.361 165.859C318.252 165.651 318.158 165.448 318.106 165.307C317.955 164.912 317.835 164.5 317.741 164.083C317.705 163.922 317.674 163.76 317.648 163.599C317.643 163.557 317.606 163.26 317.632 163.484C317.658 163.693 317.632 163.469 317.627 163.427C317.564 162.844 317.174 162.339 316.538 162.339C315.997 162.339 315.382 162.839 315.445 163.427C315.705 165.776 316.721 168.057 318.596 169.557C320.851 171.359 323.877 171.912 326.679 171.412C327.262 171.307 327.59 170.604 327.445 170.068C327.273 169.458 326.684 169.203 326.101 169.307V169.313Z" fill="black"/>
<path d="M329.674 168.937C327.736 168.865 325.538 168.021 324.143 166.49C322.747 164.958 322.403 163.062 322.606 161.161C322.669 160.573 322.059 160.068 321.518 160.068C320.872 160.068 320.486 160.573 320.424 161.161C320.163 163.63 320.924 166.187 322.601 168.026C324.372 169.969 327.085 171.016 329.674 171.115C330.262 171.135 330.768 170.599 330.768 170.021C330.768 169.411 330.262 168.953 329.674 168.932V168.937Z" fill="black"/>
<path d="M368.648 169.313C367.747 169.474 366.491 169.458 365.429 169.214C364.361 168.969 363.382 168.583 362.544 167.901C362.075 167.521 361.658 167.078 361.325 166.573C361.174 166.344 361.033 166.109 360.908 165.859C360.799 165.651 360.705 165.448 360.653 165.307C360.502 164.912 360.377 164.5 360.288 164.083C360.252 163.922 360.221 163.76 360.195 163.599C360.189 163.557 360.153 163.26 360.179 163.484C360.205 163.693 360.179 163.469 360.174 163.427C360.106 162.844 359.721 162.339 359.085 162.339C358.544 162.339 357.929 162.839 357.991 163.427C358.252 165.776 359.268 168.057 361.143 169.557C363.398 171.359 366.424 171.912 369.226 171.412C369.809 171.307 370.137 170.604 369.991 170.068C369.82 169.458 369.231 169.203 368.648 169.307V169.313Z" fill="black"/>
<path d="M372.221 168.937C370.283 168.865 368.085 168.021 366.689 166.49C365.294 164.958 364.95 163.062 365.153 161.161C365.215 160.573 364.606 160.068 364.059 160.068C363.419 160.068 363.033 160.573 362.971 161.161C362.71 163.63 363.465 166.187 365.148 168.026C366.919 169.969 369.632 171.016 372.221 171.115C372.809 171.135 373.309 170.599 373.309 170.021C373.309 169.411 372.809 168.953 372.221 168.932V168.937Z" fill="black"/>
<path d="M219.83 131.099C221.054 132.964 222.872 134.417 225.002 135.115C227.684 135.995 230.611 135.464 232.991 134.016C233.627 133.63 234.252 133.182 234.788 132.662C235.799 131.688 234.252 130.146 233.241 131.12C233.07 131.287 232.882 131.443 232.695 131.589C232.934 131.396 232.637 131.63 232.585 131.667C232.486 131.74 232.382 131.807 232.283 131.88C232.075 132.016 231.861 132.146 231.648 132.271C230.491 132.932 229.189 133.359 227.809 133.365C226.226 133.375 224.674 132.823 223.424 131.849C223.038 131.542 222.611 131.125 222.262 130.724C222.179 130.635 222.106 130.537 222.028 130.443C221.898 130.281 222.132 130.599 221.965 130.349C221.882 130.234 221.799 130.115 221.715 129.995C220.945 128.823 219.059 129.917 219.83 131.094V131.099Z" fill="black"/>
<path d="M325.846 155.115C328.226 156.349 331.143 156.677 333.674 155.703C335.955 154.833 337.773 153.109 338.908 150.964C339.21 150.396 339.481 149.792 339.669 149.177C340.075 147.828 337.971 147.255 337.564 148.599C337.507 148.787 337.434 148.974 337.361 149.156C337.252 149.438 337.439 149.01 337.346 149.198C337.304 149.292 337.262 149.385 337.221 149.479C337.117 149.693 337.007 149.901 336.893 150.109C336.325 151.115 335.689 151.922 334.773 152.641C333.497 153.635 331.898 154.13 330.288 154.094C329.528 154.073 328.788 153.927 328.064 153.693C327.919 153.646 327.768 153.594 327.622 153.537C327.559 153.51 327.492 153.484 327.429 153.458C327.502 153.49 327.502 153.49 327.429 153.458C327.268 153.385 327.106 153.313 326.95 153.229C325.705 152.583 324.601 154.464 325.846 155.115Z" fill="black"/>
<path d="M100.742 289.026L100.402 288.659C97.2838 290 94.2716 290.426 91.3658 289.935C88.4599 289.445 85.5582 287.634 82.6607 284.502C81.393 283.132 80.389 281.654 79.6486 280.068C78.9572 278.437 78.5728 276.795 78.4956 275.141C78.4184 273.487 78.6935 271.87 79.321 270.29C79.9974 268.665 81.0452 267.196 82.4644 265.883C84.0792 264.389 85.7682 263.417 87.5312 262.967C89.3395 262.565 91.1105 262.516 92.8442 262.819C94.6232 263.171 96.3423 263.852 98.0015 264.86C99.6606 265.868 101.169 267.106 102.528 268.574L111.899 278.703L112.193 278.432C113.039 277.285 113.093 275.919 112.352 274.334C111.706 272.752 110.591 271.104 109.006 269.392C107.693 267.972 106.122 266.52 104.293 265.033C102.558 263.551 100.702 262.134 98.726 260.783L109.197 248.099C111.573 250.078 114.015 252.178 116.524 254.399C119.081 256.574 121.491 258.885 123.755 261.332C125.974 263.729 127.881 266.233 129.478 268.843C131.124 271.407 132.178 274.019 132.641 276.679C133.104 279.339 132.834 282.041 131.831 284.785C130.877 287.484 128.907 290.215 125.922 292.977L107.057 310.43L94.5616 296.924L100.742 289.026ZM105.564 279.66C103.395 277.217 101.527 276.72 99.961 278.169C99.3737 278.712 99.0655 279.36 99.0362 280.114C99.0558 280.822 99.3826 281.519 100.016 282.204C101.239 283.526 102.536 284.142 103.907 284.054C105.324 284.015 106.595 283.474 107.721 282.433L107.941 282.229L105.564 279.66Z" fill="black"/>
<path d="M405.626 332.132L405.178 332.353C405.577 335.725 405.128 338.733 403.832 341.38C402.535 344.026 399.973 346.293 396.147 348.18C394.472 349.006 392.77 349.548 391.039 349.807C389.279 350.006 387.595 349.907 385.987 349.511C384.38 349.114 382.908 348.39 381.572 347.34C380.207 346.229 379.096 344.807 378.241 343.073C377.268 341.1 376.816 339.204 376.886 337.386C377.015 335.538 377.472 333.826 378.256 332.25C379.1 330.645 380.241 329.19 381.679 327.886C383.117 326.582 384.733 325.488 386.527 324.603L398.904 318.5L398.727 318.141C397.868 317.003 396.574 316.564 394.843 316.823C393.143 316.992 391.246 317.593 389.154 318.625C387.42 319.48 385.58 320.573 383.635 321.904C381.72 323.146 379.834 324.522 377.977 326.032L368.795 312.386C371.368 310.671 374.076 308.927 376.918 307.154C379.731 305.321 382.632 303.667 385.621 302.193C388.551 300.748 391.494 299.631 394.45 298.842C397.377 297.994 400.181 297.726 402.862 298.039C405.544 298.352 408.058 299.379 410.403 301.121C412.72 302.804 414.777 305.468 416.576 309.116L427.943 332.165L411.44 340.304L405.626 332.132ZM398.019 324.845C395.06 326.23 394.052 327.88 394.996 329.793C395.349 330.51 395.883 330.99 396.598 331.233C397.282 331.415 398.043 331.3 398.88 330.888C400.495 330.091 401.455 329.023 401.76 327.683C402.125 326.314 401.969 324.942 401.291 323.566L401.158 323.297L398.019 324.845Z" fill="black"/>
<path d="M71.6481 177.894L86.4544 194.968L68.9915 225.201L101.326 212.118L116.133 229.192L67.8311 272.401L54.7282 257.291L77.0403 236.619L48.4778 245.504L45.5951 242.18L58.7617 215.541L35.1393 234.702L22.0364 219.592L71.6481 177.894Z" fill="black"/>
<path d="M166.612 311.537C166.001 311.003 165.249 310.381 164.356 309.671C163.519 308.997 162.59 308.344 161.569 307.713C160.492 307.047 159.362 306.465 158.18 305.969C156.997 305.473 155.801 305.125 154.592 304.926C153.439 304.762 152.266 304.82 151.073 305.102C149.972 305.361 148.947 305.942 147.997 306.844L135.531 327L118.521 316.48L142.191 278.209L158.35 288.203L153.257 298.339L153.937 298.76C154.962 297.356 156.144 296.205 157.483 295.309C158.821 294.412 160.31 293.843 161.948 293.602C163.643 293.396 165.499 293.564 167.515 294.106C169.532 294.648 171.742 295.701 174.145 297.266L166.612 311.537Z" fill="black"/>
<path d="M369.883 325.311C369.073 325.356 368.101 325.438 366.966 325.555C365.896 325.659 364.775 325.842 363.605 326.104C362.369 326.381 361.154 326.756 359.962 327.228C358.77 327.7 357.672 328.288 356.668 328.992C355.729 329.68 354.932 330.542 354.276 331.578C353.67 332.533 353.344 333.665 353.295 334.974L358.48 358.1L338.965 362.476L329.12 318.566L347.66 314.409L351.108 325.217L351.888 325.042C351.639 323.321 351.679 321.672 352.009 320.095C352.339 318.518 353.005 317.071 354.007 315.753C355.075 314.42 356.519 313.243 358.339 312.22C360.16 311.197 362.476 310.404 365.288 309.842L369.883 325.311Z" fill="black"/>
<path d="M177.942 298.202L196.268 306.212L178.245 347.445L159.919 339.435L177.942 298.202ZM182.261 287.321C184.531 282.129 188.781 280.894 195.011 283.618C198.066 284.953 200.093 286.639 201.094 288.677C202.122 290.654 202.075 292.926 200.954 295.491C199.779 298.179 198.117 299.817 195.968 300.406C193.819 300.995 191.217 300.621 188.163 299.286C181.932 296.563 179.965 292.575 182.261 287.321Z" fill="black"/>
<path d="M209.589 335.482C209.331 337.992 209.745 340.161 210.832 341.988C211.983 343.836 213.984 345.225 216.836 346.156C218.928 346.838 221.133 347.171 223.452 347.157C225.834 347.162 228.12 346.926 230.31 346.448L227.71 360.221C225.46 361.1 222.585 361.53 219.085 361.51C215.606 361.427 211.807 360.714 207.687 359.37C204.138 358.212 200.955 356.683 198.139 354.783C195.386 352.903 193.158 350.704 191.456 348.185C189.837 345.623 188.817 342.731 188.395 339.508C188.037 336.306 188.479 332.804 189.719 329.001C190.98 325.135 192.626 322.025 194.655 319.672C196.769 317.276 199.161 315.532 201.832 314.439C204.586 313.304 207.556 312.8 210.74 312.927C214.008 313.011 217.417 313.632 220.966 314.79L221.537 314.976C224.812 316.115 227.784 317.645 230.453 319.567C233.205 321.447 235.328 323.647 236.82 326.167C238.375 328.708 239.184 331.496 239.245 334.532C239.371 337.588 238.453 340.83 236.494 344.258L209.589 335.482ZM222.281 332.364C222.527 331.182 222.33 330.066 221.69 329.016C221.115 327.987 220.066 327.224 218.545 326.728C217.151 326.273 215.79 326.145 214.463 326.343C213.136 326.541 212.161 327.38 211.538 328.86L222.281 332.364Z" fill="black"/>
<path d="M516.448 228.281C518.618 229.569 520.761 230.104 522.875 229.885C525.035 229.617 527.137 228.385 529.179 226.187C530.677 224.576 531.906 222.715 532.866 220.604C533.872 218.444 534.618 216.271 535.104 214.083L546.511 222.227C546.364 224.639 545.546 227.428 544.058 230.596C542.521 233.718 540.278 236.867 537.328 240.041C534.786 242.775 532.062 245.021 529.154 246.779C526.292 248.487 523.36 249.585 520.359 250.073C517.355 250.466 514.302 250.176 511.2 249.205C508.143 248.185 505.15 246.313 502.22 243.59C499.241 240.821 497.111 238.022 495.828 235.191C494.541 232.267 493.963 229.363 494.094 226.481C494.221 223.504 495.011 220.598 496.463 217.762C497.913 214.831 499.908 211.998 502.45 209.264L502.858 208.824C505.267 206.33 507.904 204.276 510.77 202.662C513.632 200.953 516.52 199.951 519.434 199.656C522.393 199.312 525.263 199.749 528.044 200.968C530.87 202.139 533.427 204.333 535.714 207.551L516.448 228.281ZM518.951 215.453C517.981 214.733 516.885 214.443 515.664 214.582C514.488 214.673 513.355 215.304 512.266 216.476C511.268 217.55 510.58 218.731 510.202 220.018C509.825 221.306 510.177 222.543 511.258 223.73L518.951 215.453Z" fill="black"/>
<path d="M277.883 302.398L322.392 299.553L324.493 316.754L298.946 318.387L299.481 326.77L317.145 325.64L317.962 338.414L300.298 339.543L301.976 365.79L282.017 367.066L277.883 302.398Z" fill="black"/>
<path d="M448.39 291.292C448.013 290.742 447.562 290.203 447.037 289.673C446.53 289.051 445.969 288.587 445.355 288.281C444.741 287.975 444.045 287.845 443.269 287.892C442.548 287.902 441.786 288.263 440.981 288.976C440.139 289.635 439.651 290.455 439.516 291.436C439.381 292.418 439.431 293.435 439.667 294.486C439.957 295.499 440.36 296.557 440.873 297.659C441.442 298.725 441.973 299.735 442.466 300.69L452.703 315.617L436.209 326.928L410.759 289.816L426.428 279.071L433.644 287.824L434.303 287.372C433.26 283.965 433.216 280.6 434.171 277.277C435.181 273.917 437.17 271.219 440.139 269.183C444.043 266.506 447.663 265.478 451 266.1C454.299 266.667 457.155 268.71 459.568 272.229L477.609 298.537L461.115 309.848L448.39 291.292Z" fill="black"/>
<path d="M495.698 247.417C493.969 248.096 492.304 248.943 490.703 249.958C489.056 250.924 487.544 252.038 486.168 253.298C485.381 254.019 484.662 254.813 484.011 255.681C483.359 256.549 482.847 257.47 482.474 258.445C482.15 259.374 482.059 260.361 482.202 261.405C482.349 262.356 482.851 263.298 483.706 264.232C484.652 265.264 485.659 265.969 486.728 266.346C487.801 266.629 488.837 266.675 489.836 266.483C490.884 266.245 491.917 265.842 492.932 265.274C493.952 264.611 494.905 263.874 495.79 263.063C497.068 261.893 498.307 260.531 499.508 258.98C500.663 257.379 501.559 255.79 502.194 254.214L513.266 263.193C512.471 266.272 511.235 269.167 509.559 271.878C507.887 274.494 505.896 276.86 503.585 278.977C500.881 281.453 498.059 283.406 495.118 284.834C492.132 286.213 489.173 286.979 486.24 287.134C483.263 287.239 480.317 286.638 477.401 285.33C474.486 284.023 471.722 281.943 469.111 279.092C466.454 276.191 464.602 273.232 463.555 270.213C462.512 267.1 462.173 264.066 462.539 261.109C462.909 258.058 463.934 255.13 465.614 252.326C467.249 249.472 469.443 246.784 472.196 244.263C474.31 242.326 476.7 240.544 479.367 238.915C482.034 237.286 484.774 236.132 487.588 235.454L495.698 247.417Z" fill="black"/>
<path d="M245.658 338.362L273.801 341.336L272.477 353.866L244.334 350.892L245.658 338.362Z" fill="black"/>
</svg>
