<svg width="294" height="279" viewBox="0 0 294 279" fill="none" xmlns="http://www.w3.org/2000/svg">
<path d="M290.59 182.625C299.158 218.552 278.085 261.495 239.413 274.01C210.236 283.458 177.778 273.401 158.33 251.01C141.179 231.271 132.523 200.094 144.153 175.604C144.992 173.849 157.236 148.708 173.169 146.078C175.169 145.755 180.877 145.172 187.148 141.521C192.393 138.469 195.221 134.891 196.492 133.542C205.502 123.937 229.84 126.073 244.674 131.182C267.007 138.885 285.028 159.297 290.59 182.625Z" fill="#FFCD04"/>
<path d="M216.778 278.641C194.585 278.641 172.523 269.021 157.502 251.729C148.658 241.557 142.226 228.63 139.377 215.323C136.262 200.802 137.575 186.906 143.169 175.141C144.497 172.339 156.637 147.698 172.991 145.005C173.179 144.974 173.403 144.943 173.663 144.901C176.075 144.542 181.096 143.787 186.601 140.583C191.012 138.01 193.674 135.047 195.096 133.453C195.325 133.198 195.523 132.984 195.689 132.797C205.304 122.557 230.325 125.089 245.028 130.156C267.648 137.958 285.945 158.453 291.648 182.375C295.892 200.172 292.986 220.307 283.679 237.615C273.929 255.745 258.325 269.042 239.747 275.052C232.267 277.474 224.517 278.646 216.783 278.646L216.778 278.641ZM218.45 127.938C209.71 127.938 201.622 129.667 197.283 134.287C197.122 134.458 196.934 134.667 196.721 134.906C195.21 136.589 192.403 139.724 187.695 142.469C181.83 145.885 176.528 146.677 173.981 147.063C173.736 147.099 173.523 147.13 173.34 147.162C157.825 149.719 145.648 175.005 145.137 176.078C132.877 201.88 143.809 232.641 159.148 250.297C178.846 272.964 210.965 282.073 239.075 272.979C275.278 261.255 298.382 220 289.528 182.875C283.997 159.662 266.247 139.781 244.314 132.219C237.32 129.807 227.528 127.943 218.45 127.943V127.938Z" fill="black"/>
<path d="M179.783 6.54692C174.366 23.8334 171.861 38.9688 170.653 50.5365C169.148 64.9115 169.387 76.2292 169.575 81.4792C169.846 88.7969 170.523 96.5313 171.783 105.037C174.377 122.604 180.309 140.016 191.252 153.979C191.721 154.578 192.57 154.745 193.241 154.375L194.955 153.427C195.674 153.031 195.913 152.115 195.486 151.417C191.872 145.484 186.861 136.26 182.752 124.349C178.83 113 172.169 82.1771 178.195 39.0261C179.335 30.8594 181.309 19.5365 184.939 6.17712C183.221 6.29691 181.502 6.42192 179.788 6.54171L179.783 6.54692Z" fill="#5F58A6"/>
<path d="M178.731 6.26039C175.226 17.4843 172.564 28.9687 170.825 40.6041C169.257 51.1354 168.413 61.7708 168.346 72.4219C168.288 82.3229 168.945 92.2135 170.262 102.031C171.825 113.661 174.544 125.089 179.268 135.865C181.57 141.109 184.33 146.156 187.601 150.865C188.429 152.047 189.283 153.208 190.163 154.354C191.038 155.484 192.325 156.026 193.695 155.365C195.153 154.656 197.023 153.771 196.757 151.833C196.622 150.844 195.851 149.922 195.361 149.083C194.83 148.182 194.314 147.281 193.804 146.37C192.611 144.24 191.476 142.078 190.398 139.891C187.851 134.708 185.611 129.375 183.752 123.911C181.971 118.703 180.762 113.292 179.788 107.88C178.252 99.3541 177.403 90.7083 177.054 82.0521C176.591 70.5781 177.028 59.0677 178.231 47.6458C179.372 36.8281 181.221 26.0885 183.705 15.5C184.419 12.4791 185.179 9.46872 185.992 6.46872C186.169 5.82289 185.658 5.03643 184.939 5.08852C183.221 5.21352 181.502 5.33331 179.788 5.45831C178.398 5.55727 178.382 7.73956 179.788 7.6406C181.507 7.5156 183.226 7.39581 184.939 7.27081C184.591 6.81247 184.236 6.34893 183.887 5.8906C181.07 16.2864 178.856 26.8437 177.32 37.5052C175.627 49.2187 174.695 61.0468 174.689 72.8854C174.679 82.3281 175.257 91.776 176.528 101.135C177.403 107.562 178.585 113.969 180.33 120.219C182.679 128.651 186.242 136.807 190.32 144.536C191.314 146.417 192.351 148.281 193.429 150.115C193.663 150.505 193.893 150.891 194.127 151.281C194.288 151.552 194.731 152.01 194.564 152.344C194.481 152.51 194.184 152.615 194.033 152.698C193.674 152.896 193.314 153.099 192.955 153.292C192.773 153.391 192.585 153.526 192.361 153.474C191.898 153.365 191.46 152.49 191.189 152.13C190.356 151.016 189.549 149.88 188.778 148.724C187.179 146.349 185.71 143.891 184.356 141.365C179.002 131.359 175.596 120.396 173.575 109.26C171.684 98.8593 170.762 88.25 170.564 77.6927C170.377 67.5885 170.898 57.4687 172.091 47.4427C173.356 36.8125 175.419 26.2708 178.195 15.9271C179.018 12.8854 179.898 9.85414 180.841 6.84372C181.257 5.49997 179.153 4.92185 178.736 6.2656L178.731 6.26039Z" fill="black"/>
<path d="M148.523 218.734C134.268 252.813 91.9394 275.083 53.3197 262.406C24.179 252.839 3.88736 225.594 1.36653 196.036C-0.86264 169.984 10.5176 139.693 34.3509 126.766C36.0644 125.833 60.7728 112.74 75.1894 120.01C76.9967 120.922 81.9551 123.818 89.1738 124.563C95.2103 125.188 99.5957 123.969 101.424 123.625C114.361 121.177 132.768 137.24 141.742 150.115C155.242 169.5 157.773 196.609 148.523 218.734Z" fill="#FFCD04"/>
<path d="M76.0071 267.099C68.1894 267.099 60.429 265.885 52.9758 263.438C24.0852 253.953 2.90291 226.906 0.277909 196.125C-0.867924 182.703 1.55395 168.458 7.09041 156.031C13.1321 142.469 22.3769 132.016 33.83 125.802C36.5592 124.323 60.8925 111.578 75.6842 119.031C75.8612 119.12 76.0592 119.224 76.2883 119.344C78.4498 120.474 82.9498 122.818 89.2831 123.474C94.3612 124 98.2623 123.167 100.356 122.724C100.684 122.656 100.976 122.594 101.221 122.547C115.012 119.938 133.747 136.724 142.637 149.49C156.32 169.12 159.023 196.464 149.533 219.146C142.471 236.026 128.257 250.578 110.533 259.078C99.429 264.401 87.6529 267.094 76.0123 267.094L76.0071 267.099ZM64.7623 118.906C51.3144 118.906 35.6946 127.271 34.8717 127.719C9.76228 141.344 0.460202 172.63 2.44978 195.938C5.00187 225.859 25.58 252.146 53.6529 261.365C89.804 273.234 132.788 253.516 147.512 218.307C156.721 196.297 154.101 169.771 140.84 150.74C132.533 138.818 114.325 122.292 101.622 124.698C101.393 124.74 101.116 124.797 100.804 124.865C98.5904 125.339 94.481 126.214 89.0592 125.651C82.3092 124.958 77.554 122.474 75.2727 121.286C75.054 121.172 74.8665 121.068 74.6998 120.99C71.7519 119.505 68.3352 118.911 64.7623 118.911V118.906Z" fill="black"/>
<path d="M205.507 2.72393C205.335 2.02601 204.669 1.56768 203.955 1.66143C191.174 3.28122 169.856 7.88018 148.273 22.4479C124.913 38.2135 113.726 57.901 105.783 71.6771C93.6946 92.6406 87.4133 113.339 84.2571 131.042C83.9498 132.766 85.2935 134.349 87.0435 134.339H87.8613C88.554 134.333 89.1425 133.839 89.2571 133.151C90.4654 125.958 92.7831 115.115 97.4863 102.604C101.741 91.2864 122.413 36.2916 175.564 15.901C182.58 13.2083 192.596 10.1875 205.393 8.94268C206.257 8.85935 206.84 8.02081 206.632 7.18226L205.512 2.71872L205.507 2.72393Z" fill="#5F58A6"/>
<mask id="mask0_86_3444" style="mask-type:luminance" maskUnits="userSpaceOnUse" x="82" y="0" width="127" height="136">
<path d="M82.0696 0H208.736V135.854H82.0696V0Z" fill="white"/>
</mask>
<g mask="url(#mask0_86_3444)">
<path d="M206.559 2.4323C206.278 1.53647 205.616 0.838549 204.679 0.6198C203.955 0.453133 203.127 0.671883 202.403 0.770841C201.116 0.942716 199.83 1.14063 198.538 1.35417C195.554 1.85417 192.585 2.45313 189.637 3.16147C182.377 4.89584 175.278 7.26563 168.419 10.2083C160.226 13.724 152.392 18.1094 145.137 23.2917C138.596 27.9688 132.528 33.3073 127.08 39.2292C122.408 44.2969 118.195 49.7761 114.361 55.5C111.169 60.2604 108.262 65.1927 105.398 70.1615C100.95 77.8698 97.007 85.8386 93.6893 94.099C90.5956 101.771 88.0435 109.661 86.0175 117.682C85.0956 121.328 84.2831 125 83.58 128.703C83.231 130.536 82.7154 132.375 84.0018 133.979C84.9654 135.177 86.3768 135.49 87.8404 135.427C88.7831 135.391 89.6581 134.922 90.0904 134.057C90.4185 133.411 90.4498 132.604 90.5748 131.906C90.8404 130.427 91.1216 128.953 91.4289 127.484C92.1685 123.896 93.0279 120.339 94.007 116.813C95.5331 111.307 97.3716 105.901 99.4185 100.573C99.8716 99.4115 100.33 98.25 100.794 97.099C100.929 96.7656 101.064 96.4375 101.2 96.1094C101.273 95.9271 101.351 95.75 101.424 95.5781C101.455 95.4948 101.486 95.4167 101.517 95.3438C101.549 95.2708 101.669 94.9896 101.575 95.2136C101.892 94.4688 102.21 93.724 102.538 92.9844C104.106 89.4011 105.788 85.8698 107.585 82.4011C109.778 78.1563 112.137 74.0104 114.674 69.9583C117.533 65.3958 120.606 60.9583 123.919 56.7083C127.564 52.0365 131.486 47.5729 135.689 43.3906C140.142 38.9531 144.919 34.8281 149.997 31.1146C155.419 27.1615 161.184 23.6667 167.215 20.7188C173.174 17.8125 179.392 15.4635 185.767 13.6875C189.544 12.6354 193.377 11.7813 197.241 11.125C199.434 10.75 201.642 10.4427 203.856 10.1979C204.882 10.0885 206.07 10.1563 206.882 9.4323C207.616 8.78126 207.872 7.85417 207.674 6.90105C207.361 5.40626 206.929 3.92188 206.554 2.43751C206.215 1.07813 204.111 1.65105 204.455 3.01563C204.642 3.76043 204.825 4.50522 205.012 5.2448L205.398 6.8073C205.45 7.01042 205.585 7.29688 205.57 7.51042C205.559 7.71876 205.465 7.80209 205.273 7.86459C204.809 8.01043 204.21 7.97397 203.726 8.02605C202.596 8.15105 201.465 8.29688 200.335 8.44792C198.267 8.73438 196.205 9.07292 194.158 9.46876C187.491 10.7552 180.945 12.6302 174.622 15.1042C168.299 17.5729 162.205 20.6042 156.429 24.1667C150.991 27.5156 145.83 31.3281 140.991 35.5C136.424 39.4271 132.142 43.6823 128.153 48.1927C124.429 52.4063 120.95 56.8386 117.71 61.4375C114.799 65.5677 112.085 69.8386 109.564 74.2136C107.382 77.9948 105.346 81.8594 103.45 85.7917C101.924 88.9479 100.497 92.1406 99.1581 95.375C98.2727 97.5052 97.4341 99.6458 96.6216 101.802C93.9862 108.802 91.7987 115.958 90.1164 123.245C89.4341 126.219 88.83 129.214 88.3091 132.219C88.2258 132.734 88.2831 133.224 87.6789 133.25C87.1529 133.271 86.6112 133.281 86.1373 133.005C84.731 132.161 85.4914 130.25 85.731 128.984C87.1581 121.521 89.0383 114.135 91.3664 106.896C93.9862 98.75 97.1841 90.7813 100.939 83.0886C104.012 76.7969 107.502 70.7136 111.106 64.7083C114.257 59.4636 117.606 54.3438 121.314 49.474C125.679 43.75 130.544 38.401 135.866 33.5521C142.158 27.8281 149.09 22.849 156.465 18.6146C163.84 14.375 170.986 11.1927 178.71 8.58334C184.919 6.47917 191.283 4.84897 197.736 3.70313C198.997 3.47917 200.257 3.27605 201.517 3.08855C202.059 3.01043 202.653 2.92188 203.163 2.85417C203.502 2.81251 204.288 2.53126 204.445 3.02084C204.866 4.35938 206.976 3.78647 206.549 2.44272L206.559 2.4323Z" fill="black"/>
</g>
<path d="M182.106 6.34373C187.424 4.10935 197.278 0.807271 209.887 1.41665C214.215 1.62498 226.991 2.68748 240.195 10.7969C247.304 15.1666 251.84 19.9271 254.398 22.6406C260.752 29.3854 264.757 36.0729 267.21 40.9635C248.544 45.2239 231.116 45.5573 216.986 42.401C208.226 40.4479 194.21 35.8437 186.518 22.901C184.294 19.1562 183.189 15.651 182.601 13.2187" fill="#5F58A6"/>
<mask id="mask1_86_3444" style="mask-type:luminance" maskUnits="userSpaceOnUse" x="180" y="0" width="89" height="47">
<path d="M180.736 0H268.736V46.5208H180.736V0Z" fill="white"/>
</mask>
<g mask="url(#mask1_86_3444)">
<path d="M182.393 7.39583C187.736 5.15625 193.398 3.60416 199.153 2.90625C202.861 2.44791 206.606 2.32291 210.341 2.53125C211.205 2.58333 212.08 2.65104 212.95 2.73437C214.184 2.85416 215.106 2.97916 216.278 3.16146C223.2 4.26041 229.95 6.45833 236.148 9.73958C242.398 13.0469 247.913 17.4115 252.783 22.5156C257.7 27.6667 261.939 33.375 265.304 39.6562C265.632 40.2708 265.955 40.8854 266.262 41.5104C266.481 40.9792 266.7 40.4427 266.913 39.9115C259.309 41.6354 251.575 42.8073 243.783 43.2344C236.877 43.6094 229.903 43.4323 223.059 42.4167C218.07 41.6771 213.122 40.5156 208.393 38.7604C203.387 36.9062 198.549 34.2865 194.497 30.7448C189.632 26.4948 186.002 20.9948 184.153 14.7917C183.966 14.1771 183.804 13.5573 183.648 12.9271C183.32 11.5677 181.216 12.1406 181.544 13.5052C183.127 19.9844 186.46 25.9323 191.184 30.6354C195.294 34.7292 200.299 37.776 205.627 40C210.221 41.9219 215.064 43.2292 219.96 44.1042C226.882 45.349 233.95 45.75 240.976 45.5312C248.851 45.2865 256.716 44.2708 264.434 42.6823C265.46 42.4687 266.481 42.2448 267.497 42.0104C268.221 41.8437 268.45 41.0104 268.148 40.4115C264.846 33.8385 260.606 27.7344 255.611 22.3385C250.992 17.349 245.867 12.8958 240.007 9.40625C233.497 5.52604 226.273 2.82291 218.835 1.40104C213.294 0.348956 207.637 0.00520501 202.007 0.437497C195.606 0.932289 189.278 2.35416 183.294 4.69271C182.799 4.88541 182.304 5.08333 181.814 5.29166C181.273 5.51562 180.882 6.01041 181.054 6.63541C181.195 7.14583 181.846 7.625 182.398 7.39583H182.393Z" fill="black"/>
</g>
<path d="M191.924 11.7396C200.96 12.4271 209.898 14.2136 218.507 17.0469C227.34 19.9584 235.788 23.9844 243.632 28.9844C246.919 31.0834 250.169 33.3959 253.153 35.7709C253.611 36.1354 254.242 36.2188 254.695 35.7709C255.075 35.3907 255.158 34.5938 254.695 34.224C248.554 29.3386 241.939 25.0573 234.929 21.5157C225.846 16.9219 216.153 13.5417 206.179 11.5261C201.471 10.5729 196.71 9.9219 191.924 9.55732C191.335 9.51565 190.83 10.0886 190.83 10.6511C190.83 11.2761 191.335 11.6979 191.924 11.7396Z" fill="black"/>
<path d="M72.3925 182.5C72.3925 184.005 72.2935 185.5 72.0852 186.974C71.8821 188.453 71.58 189.885 71.179 191.276C70.7779 192.667 70.2831 193.99 69.6998 195.24C69.1217 196.495 68.455 197.651 67.7154 198.719C66.9758 199.781 66.1685 200.734 65.2935 201.568C64.4237 202.406 63.5019 203.109 62.5331 203.687C61.5644 204.266 60.5644 204.698 59.5383 204.995C58.5071 205.286 57.4706 205.432 56.4185 205.432C55.3717 205.432 54.3352 205.286 53.304 204.995C52.2779 204.698 51.2779 204.266 50.3092 203.687C49.3404 203.109 48.4185 202.406 47.5435 201.568C46.6737 200.734 45.8665 199.781 45.1269 198.719C44.3821 197.651 43.7206 196.495 43.1373 195.24C42.554 193.99 42.0644 192.667 41.6633 191.276C41.2623 189.885 40.9602 188.453 40.7519 186.974C40.5487 185.5 40.4446 184.005 40.4446 182.5C40.4446 180.995 40.5487 179.505 40.7519 178.026C40.9602 176.552 41.2623 175.115 41.6633 173.724C42.0644 172.333 42.554 171.01 43.1373 169.76C43.7206 168.505 44.3821 167.349 45.1269 166.286C45.8665 165.219 46.6737 164.271 47.5435 163.432C48.4185 162.594 49.3404 161.891 50.3092 161.312C51.2779 160.734 52.2779 160.302 53.304 160.005C54.3352 159.713 55.3717 159.568 56.4185 159.568C57.4706 159.568 58.5071 159.713 59.5383 160.005C60.5644 160.302 61.5644 160.734 62.5331 161.312C63.5019 161.891 64.4237 162.594 65.2935 163.432C66.1685 164.271 66.9758 165.219 67.7154 166.286C68.455 167.349 69.1217 168.505 69.6998 169.76C70.2831 171.01 70.7779 172.333 71.179 173.724C71.58 175.115 71.8821 176.547 72.0852 178.026C72.2935 179.505 72.3925 180.995 72.3925 182.5Z" fill="white"/>
<mask id="mask2_86_3444" style="mask-type:luminance" maskUnits="userSpaceOnUse" x="48" y="162" width="25" height="41">
<path d="M48.7363 162.521H72.7363V202.521H48.7363V162.521Z" fill="white"/>
</mask>
<g mask="url(#mask2_86_3444)">
<mask id="mask3_86_3444" style="mask-type:luminance" maskUnits="userSpaceOnUse" x="40" y="159" width="33" height="47">
<path d="M40.4447 182.5C40.4447 179.458 40.851 176.531 41.6635 173.724C42.4707 170.917 43.627 168.432 45.127 166.286C46.6218 164.135 48.351 162.474 50.3093 161.312C52.2624 160.151 54.3041 159.568 56.4187 159.568C58.5385 159.568 60.5749 160.151 62.5332 161.312C64.4916 162.474 66.2155 164.135 67.7155 166.286C69.2155 168.432 70.3666 170.917 71.1791 173.724C71.9916 176.531 72.3926 179.458 72.3926 182.5C72.3926 185.542 71.9916 188.469 71.1791 191.276C70.3666 194.088 69.2155 196.568 67.7155 198.719C66.2155 200.865 64.4916 202.526 62.5332 203.687C60.5749 204.854 58.5385 205.432 56.4187 205.432C54.3041 205.432 52.2624 204.854 50.3093 203.687C48.351 202.526 46.6218 200.865 45.127 198.719C43.627 196.568 42.4707 194.088 41.6635 191.276C40.851 188.469 40.4447 185.542 40.4447 182.5Z" fill="white"/>
</mask>
<g mask="url(#mask3_86_3444)">
<path d="M75.0802 182.5C75.0802 183.74 74.9968 184.964 74.8354 186.177C74.6687 187.391 74.4291 188.568 74.1114 189.714C73.7885 190.859 73.3979 191.943 72.9343 192.974C72.4708 194 71.9395 194.953 71.351 195.828C70.7572 196.703 70.1166 197.484 69.4239 198.172C68.726 198.859 67.9916 199.443 67.2208 199.917C66.45 200.391 65.6531 200.745 64.8354 200.99C64.0125 201.229 63.1843 201.349 62.351 201.349C61.5125 201.349 60.6895 201.229 59.8666 200.99C59.0489 200.745 58.252 200.391 57.4812 199.917C56.7052 199.443 55.976 198.859 55.2781 198.172C54.5854 197.484 53.9395 196.703 53.351 195.828C52.7572 194.953 52.2312 194 51.7677 192.974C51.3041 191.943 50.9135 190.859 50.5906 189.714C50.2729 188.568 50.0281 187.391 49.8666 186.177C49.7052 184.964 49.6218 183.74 49.6218 182.5C49.6218 181.26 49.7052 180.036 49.8666 178.823C50.0281 177.609 50.2729 176.432 50.5906 175.286C50.9135 174.146 51.3041 173.057 51.7677 172.026C52.2312 171 52.7572 170.047 53.351 169.172C53.9395 168.297 54.5854 167.516 55.2781 166.828C55.976 166.141 56.7052 165.557 57.4812 165.083C58.252 164.615 59.0489 164.255 59.8666 164.016C60.6895 163.771 61.5125 163.651 62.351 163.651C63.1843 163.651 64.0125 163.771 64.8354 164.016C65.6531 164.255 66.45 164.615 67.2208 165.083C67.9916 165.557 68.726 166.141 69.4239 166.828C70.1166 167.516 70.7572 168.297 71.351 169.172C71.9395 170.047 72.4708 171 72.9343 172.026C73.3979 173.057 73.7885 174.146 74.1114 175.286C74.4291 176.432 74.6687 177.609 74.8354 178.823C74.9968 180.036 75.0802 181.26 75.0802 182.5Z" fill="black"/>
</g>
</g>
<mask id="mask4_86_3444" style="mask-type:luminance" maskUnits="userSpaceOnUse" x="47" y="169" width="17" height="11">
<path d="M47.403 169.188H63.403V179.854H47.403V169.188Z" fill="white"/>
</mask>
<g mask="url(#mask4_86_3444)">
<mask id="mask5_86_3444" style="mask-type:luminance" maskUnits="userSpaceOnUse" x="40" y="159" width="33" height="47">
<path d="M40.4446 182.5C40.4446 179.458 40.8508 176.531 41.6633 173.724C42.4706 170.917 43.6269 168.432 45.1269 166.286C46.6217 164.135 48.3508 162.474 50.3092 161.312C52.2623 160.151 54.304 159.568 56.4185 159.568C58.5383 159.568 60.5748 160.151 62.5331 161.312C64.4915 162.474 66.2154 164.135 67.7154 166.286C69.2154 168.432 70.3665 170.917 71.179 173.724C71.9915 176.531 72.3925 179.458 72.3925 182.5C72.3925 185.542 71.9915 188.469 71.179 191.276C70.3665 194.089 69.2154 196.568 67.7154 198.719C66.2154 200.865 64.4915 202.526 62.5331 203.687C60.5748 204.854 58.5383 205.432 56.4185 205.432C54.304 205.432 52.2623 204.854 50.3092 203.687C48.3508 202.526 46.6217 200.865 45.1269 198.719C43.6269 196.568 42.4706 194.089 41.6633 191.276C40.8508 188.469 40.4446 185.542 40.4446 182.5Z" fill="white"/>
</mask>
<g mask="url(#mask5_86_3444)">
<path d="M47.429 178.672C52.731 178.51 58.0331 178.359 63.33 178.203C59.0175 175.302 54.705 172.401 50.3925 169.5C49.4029 172.557 48.4185 175.609 47.429 178.672Z" fill="white"/>
</g>
</g>
<path d="M70.6686 182.5C70.6582 186.854 69.8249 191.276 67.8874 195.198C66.2936 198.427 63.9499 201.391 60.7728 203.078C57.9499 204.573 54.679 204.766 51.6582 203.495C50.2832 202.917 48.8509 201.922 47.7103 200.828C46.3717 199.547 45.2676 198.062 44.3509 196.453C42.2467 192.76 41.1738 188.505 40.9499 184.271C40.7103 179.802 41.3561 175.219 43.1061 171.078C44.502 167.755 46.7155 164.531 49.7207 162.568C52.4447 160.786 55.6165 160.182 58.7051 161.083C61.8926 162.021 64.554 164.427 66.4238 167.255C68.7363 170.74 70.0488 174.87 70.4863 179.01C70.6113 180.172 70.6686 181.339 70.6686 182.51C70.6686 183.917 72.8561 183.917 72.8509 182.51C72.8405 177.708 71.8613 172.88 69.6999 168.578C67.9499 165.083 65.2884 161.818 61.7676 159.995C58.4603 158.281 54.5488 157.99 51.0801 159.417C47.403 160.922 44.5592 163.875 42.5801 167.271C40.2051 171.344 39.0176 176.057 38.7728 180.74C38.5124 185.562 39.2832 190.469 41.1686 194.922C42.7624 198.672 45.2572 202.172 48.7259 204.401C51.8249 206.391 55.6582 207.073 59.2207 206.047C62.9915 204.969 66.0228 202.229 68.1842 199.042C70.7572 195.234 72.1374 190.714 72.6478 186.177C72.7832 184.964 72.8457 183.734 72.8509 182.51C72.8509 181.104 70.6738 181.104 70.6686 182.51V182.5Z" fill="black"/>
<path d="M118.7 182.5C118.7 184.005 118.596 185.5 118.393 186.974C118.184 188.453 117.882 189.885 117.481 191.276C117.08 192.667 116.59 193.99 116.007 195.24C115.424 196.495 114.762 197.651 114.018 198.719C113.278 199.781 112.471 200.734 111.596 201.568C110.726 202.406 109.804 203.109 108.835 203.687C107.867 204.266 106.867 204.698 105.84 204.995C104.809 205.286 103.773 205.432 102.726 205.432C101.674 205.432 100.637 205.286 99.6061 204.995C98.5801 204.698 97.5801 204.266 96.6113 203.687C95.6426 203.109 94.7207 202.406 93.8509 201.568C92.9759 200.734 92.1686 199.781 91.429 198.719C90.6842 197.651 90.0228 196.495 89.4395 195.24C88.8613 193.99 88.3665 192.667 87.9655 191.276C87.5645 189.885 87.2624 188.453 87.054 186.974C86.8509 185.5 86.752 184.005 86.752 182.5C86.752 180.995 86.8509 179.505 87.054 178.026C87.2624 176.552 87.5645 175.115 87.9655 173.724C88.3665 172.333 88.8613 171.01 89.4395 169.76C90.0228 168.505 90.6842 167.349 91.429 166.286C92.1686 165.219 92.9759 164.271 93.8509 163.432C94.7207 162.594 95.6426 161.891 96.6113 161.312C97.5801 160.734 98.5801 160.302 99.6061 160.005C100.637 159.713 101.674 159.568 102.726 159.568C103.773 159.568 104.809 159.713 105.84 160.005C106.867 160.302 107.867 160.734 108.835 161.312C109.804 161.891 110.726 162.594 111.596 163.432C112.471 164.271 113.278 165.219 114.018 166.286C114.762 167.349 115.424 168.505 116.007 169.76C116.59 171.01 117.08 172.333 117.481 173.724C117.882 175.115 118.184 176.547 118.393 178.026C118.596 179.505 118.7 180.995 118.7 182.5Z" fill="white"/>
<mask id="mask6_86_3444" style="mask-type:luminance" maskUnits="userSpaceOnUse" x="95" y="162" width="25" height="41">
<path d="M95.403 162.521H119.403V202.521H95.403V162.521Z" fill="white"/>
</mask>
<g mask="url(#mask6_86_3444)">
<mask id="mask7_86_3444" style="mask-type:luminance" maskUnits="userSpaceOnUse" x="86" y="159" width="33" height="47">
<path d="M86.752 182.5C86.752 179.458 87.153 176.531 87.9655 173.724C88.778 170.917 89.929 168.432 91.429 166.286C92.9238 164.135 94.653 162.474 96.6113 161.312C98.5697 160.151 100.606 159.568 102.726 159.568C104.84 159.568 106.877 160.151 108.835 161.312C110.794 162.474 112.523 164.135 114.018 166.286C115.518 168.432 116.669 170.917 117.481 173.724C118.294 176.531 118.7 179.458 118.7 182.5C118.7 185.542 118.294 188.469 117.481 191.276C116.669 194.088 115.518 196.568 114.018 198.719C112.523 200.865 110.794 202.526 108.835 203.687C106.877 204.854 104.84 205.432 102.726 205.432C100.606 205.432 98.5697 204.854 96.6113 203.687C94.653 202.526 92.9238 200.865 91.429 198.719C89.929 196.568 88.778 194.088 87.9655 191.276C87.153 188.469 86.752 185.542 86.752 182.5Z" fill="white"/>
</mask>
<g mask="url(#mask7_86_3444)">
<path d="M121.382 182.5C121.382 183.74 121.299 184.964 121.137 186.177C120.971 187.391 120.731 188.568 120.413 189.714C120.09 190.859 119.7 191.943 119.236 192.974C118.773 194 118.242 194.953 117.653 195.828C117.064 196.703 116.419 197.484 115.726 198.172C115.028 198.859 114.294 199.443 113.523 199.917C112.752 200.391 111.955 200.745 111.137 200.99C110.314 201.229 109.486 201.349 108.653 201.349C107.82 201.349 106.992 201.229 106.169 200.99C105.351 200.745 104.554 200.391 103.783 199.917C103.012 199.443 102.278 198.859 101.58 198.172C100.887 197.484 100.247 196.703 99.653 195.828C99.0645 194.953 98.5332 194 98.0697 192.974C97.6061 191.943 97.2155 190.859 96.8926 189.714C96.5749 188.568 96.3353 187.391 96.1686 186.177C96.0072 184.964 95.9238 183.74 95.9238 182.5C95.9238 181.26 96.0072 180.036 96.1686 178.823C96.3353 177.609 96.5749 176.432 96.8926 175.286C97.2155 174.146 97.6061 173.057 98.0697 172.026C98.5332 171 99.0645 170.047 99.653 169.172C100.247 168.297 100.887 167.516 101.58 166.828C102.278 166.141 103.012 165.557 103.783 165.083C104.554 164.615 105.351 164.255 106.169 164.016C106.992 163.771 107.82 163.651 108.653 163.651C109.486 163.651 110.314 163.771 111.137 164.016C111.955 164.255 112.752 164.615 113.523 165.083C114.294 165.557 115.028 166.141 115.726 166.828C116.419 167.516 117.064 168.297 117.653 169.172C118.242 170.047 118.773 171 119.236 172.026C119.7 173.057 120.09 174.146 120.413 175.286C120.731 176.432 120.971 177.609 121.137 178.823C121.299 180.036 121.382 181.26 121.382 182.5Z" fill="black"/>
</g>
</g>
<mask id="mask8_86_3444" style="mask-type:luminance" maskUnits="userSpaceOnUse" x="92" y="169" width="19" height="11">
<path d="M92.7363 169.188H110.07V179.854H92.7363V169.188Z" fill="white"/>
</mask>
<g mask="url(#mask8_86_3444)">
<mask id="mask9_86_3444" style="mask-type:luminance" maskUnits="userSpaceOnUse" x="86" y="159" width="33" height="47">
<path d="M86.752 182.5C86.752 179.458 87.153 176.531 87.9655 173.724C88.778 170.917 89.929 168.432 91.429 166.286C92.9238 164.135 94.653 162.474 96.6113 161.312C98.5697 160.151 100.606 159.568 102.726 159.568C104.84 159.568 106.877 160.151 108.835 161.312C110.794 162.474 112.523 164.135 114.018 166.286C115.518 168.432 116.669 170.917 117.481 173.724C118.294 176.531 118.7 179.458 118.7 182.5C118.7 185.542 118.294 188.469 117.481 191.276C116.669 194.089 115.518 196.568 114.018 198.719C112.523 200.865 110.794 202.526 108.835 203.687C106.877 204.854 104.84 205.432 102.726 205.432C100.606 205.432 98.5697 204.854 96.6113 203.687C94.653 202.526 92.9238 200.865 91.429 198.719C89.929 196.568 88.778 194.089 87.9655 191.276C87.153 188.469 86.752 185.542 86.752 182.5Z" fill="white"/>
</mask>
<g mask="url(#mask9_86_3444)">
<path d="M93.7312 178.672C99.0333 178.51 104.335 178.359 109.637 178.203C105.32 175.302 101.007 172.401 96.6947 169.5C95.7052 172.557 94.7208 175.609 93.7312 178.672Z" fill="white"/>
</g>
</g>
<path d="M117.611 182.5C117.596 186.854 116.762 191.276 114.825 195.198C113.236 198.427 110.893 201.391 107.715 203.078C104.893 204.573 101.622 204.766 98.6009 203.495C97.2207 202.917 95.7884 201.922 94.653 200.828C93.3144 199.547 92.2102 198.062 91.2936 196.453C89.1894 192.76 88.1165 188.505 87.8873 184.271C87.6477 179.802 88.2988 175.219 90.0436 171.078C91.4446 167.755 93.6582 164.531 96.6582 162.568C99.3873 160.786 102.559 160.182 105.643 161.083C108.83 162.021 111.492 164.427 113.367 167.255C115.674 170.74 116.986 174.87 117.429 179.01C117.549 180.172 117.611 181.339 117.611 182.51C117.611 183.917 119.799 183.917 119.794 182.51C119.778 177.708 118.804 172.88 116.643 168.578C114.887 165.083 112.226 161.818 108.705 159.995C105.398 158.281 101.486 157.99 98.0175 159.417C94.3405 160.922 91.4967 163.875 89.5227 167.271C87.1477 171.344 85.9602 176.057 85.7102 180.74C85.455 185.562 86.2207 190.469 88.1113 194.922C89.705 198.672 92.1946 202.172 95.6634 204.401C98.7675 206.391 102.596 207.073 106.163 206.047C109.934 204.969 112.965 202.229 115.122 199.042C117.7 195.234 119.075 190.714 119.585 186.177C119.721 184.964 119.788 183.734 119.794 182.51C119.794 181.104 117.617 181.104 117.611 182.51V182.5Z" fill="black"/>
<path d="M76.0957 204.88C77.8717 203.01 80.8769 202.708 82.7832 204.547C84.5644 206.266 84.5801 209.245 82.6061 210.849C81.9655 211.37 81.1478 211.646 80.3769 211.911C79.5801 212.193 78.6999 212.552 77.8457 212.344C76.4811 212.01 75.8978 214.115 77.2624 214.448C78.3613 214.719 79.4446 214.521 80.5019 214.172C81.4551 213.859 82.4499 213.526 83.3092 213C84.8509 212.063 85.9342 210.432 86.2155 208.656C86.804 204.938 84.0124 201.505 80.2988 201.135C78.1842 200.927 76.0176 201.802 74.5592 203.328C73.5905 204.349 75.1321 205.891 76.1009 204.875L76.0957 204.88Z" fill="black"/>
<path d="M92.1321 199.375C93.5956 198.266 97.6737 195.474 103.622 195.182C109.07 194.911 113.116 196.891 114.747 197.807C112.809 202.094 108.669 204.995 103.986 205.349C99.2519 205.703 94.679 203.406 92.1321 199.375Z" fill="#E63C23"/>
<path d="M92.6791 200.318C97.7832 196.453 104.486 195.239 110.606 197.193C111.908 197.604 112.981 198.073 114.195 198.75L113.804 197.255C112.429 200.245 109.924 202.625 106.783 203.672C103.591 204.734 100.064 204.401 97.1478 202.719C95.4916 201.771 94.0957 200.432 93.0697 198.823C92.3145 197.646 90.4238 198.734 91.1843 199.922C93.3249 203.26 96.8145 205.667 100.757 206.276C104.695 206.885 108.663 205.838 111.783 203.354C113.45 202.026 114.794 200.286 115.684 198.354C115.929 197.823 115.846 197.172 115.288 196.859C108.981 193.333 101.231 193.182 94.778 196.432C93.653 197 92.5749 197.667 91.5697 198.432C91.1061 198.786 90.8561 199.375 91.1791 199.922C91.4499 200.385 92.1999 200.672 92.6686 200.318H92.6791Z" fill="black"/>
<path d="M45.1113 199.375C46.5749 198.266 50.6582 195.474 56.6061 195.182C62.054 194.911 66.1009 196.891 67.7311 197.807C65.7884 202.094 61.653 204.995 56.9707 205.349C52.2311 205.703 47.6582 203.406 45.1113 199.375Z" fill="#E63C23"/>
<path d="M45.6634 200.318C50.7676 196.453 57.4655 195.239 63.5905 197.193C64.8873 197.604 65.9655 198.073 67.1738 198.75L66.7832 197.255C65.4082 200.245 62.903 202.625 59.7623 203.672C56.5748 204.734 53.0488 204.401 50.1269 202.719C48.4759 201.771 47.0801 200.432 46.0488 198.823C45.2936 197.646 43.403 198.734 44.1634 199.922C46.304 203.26 49.7988 205.667 53.7363 206.276C57.679 206.891 61.6426 205.838 64.7623 203.354C66.429 202.026 67.7728 200.286 68.6634 198.354C68.9082 197.823 68.8248 197.172 68.2728 196.859C61.9603 193.333 54.2103 193.182 47.7571 196.432C46.6321 197 45.554 197.667 44.554 198.432C44.0853 198.786 43.8353 199.375 44.1582 199.922C44.429 200.385 45.179 200.672 45.653 200.318H45.6634Z" fill="black"/>
<path d="M60.4498 215.833C63.0279 216.63 64.9915 218.828 65.4081 221.505C65.8092 224.068 64.554 226.672 62.3717 228.057C61.0331 228.906 59.5071 229.26 57.9237 229.156C57.3352 229.12 56.8352 229.682 56.8352 230.25C56.8352 230.87 57.3352 231.297 57.9237 231.338C61.3977 231.568 64.8717 229.76 66.5696 226.693C68.2467 223.661 67.929 219.844 65.8508 217.094C64.6269 215.479 62.9758 214.323 61.0383 213.724C59.6946 213.307 59.1165 215.417 60.455 215.828L60.4498 215.833Z" fill="black"/>
<path d="M66.5696 225.76C73.8717 225.031 81.3248 226.224 87.9967 229.302C88.5331 229.552 89.1737 229.453 89.4915 228.906C89.7623 228.438 89.6321 227.667 89.0956 227.417C82.08 224.177 74.2675 222.807 66.5644 223.578C65.981 223.635 65.4758 224.037 65.4758 224.672C65.4758 225.219 65.9758 225.823 66.5644 225.76H66.5696Z" fill="black"/>
<path d="M45.5541 151.771C47.7311 150.146 50.2259 149 52.8822 148.427C56.5072 147.651 60.4186 148.068 63.7676 149.5C64.8874 149.979 65.9655 150.573 66.9707 151.255C68.1374 152.047 69.2259 150.156 68.0697 149.37C62.1426 145.354 54.3978 144.807 47.9186 147.818C46.6947 148.385 45.5332 149.078 44.4499 149.885C43.9811 150.239 43.7416 150.828 44.0593 151.375C44.3301 151.838 45.0749 152.125 45.5541 151.771Z" fill="black"/>
<path d="M92.0175 151.771C94.1894 150.146 96.6842 149 99.3404 148.427C102.965 147.651 106.877 148.068 110.226 149.5C111.351 149.979 112.424 150.573 113.429 151.255C114.596 152.047 115.684 150.156 114.528 149.37C108.601 145.354 100.856 144.807 94.3769 147.818C93.1529 148.385 91.9967 149.078 90.9133 149.885C90.4394 150.239 90.1998 150.828 90.5175 151.375C90.7883 151.838 91.5383 152.125 92.0123 151.771H92.0175Z" fill="black"/>
<path d="M248.195 192.958C248.195 194.464 248.09 195.958 247.887 197.432C247.684 198.912 247.382 200.344 246.981 201.734C246.575 203.125 246.085 204.448 245.502 205.698C244.919 206.953 244.257 208.109 243.518 209.177C242.773 210.24 241.965 211.193 241.096 212.026C240.226 212.865 239.304 213.573 238.335 214.146C237.366 214.724 236.366 215.156 235.335 215.453C234.309 215.745 233.268 215.891 232.221 215.891C231.174 215.891 230.132 215.745 229.106 215.453C228.075 215.156 227.075 214.724 226.106 214.146C225.137 213.573 224.221 212.865 223.346 212.026C222.476 211.193 221.669 210.24 220.924 209.177C220.184 208.109 219.523 206.953 218.939 205.698C218.356 204.448 217.866 203.125 217.46 201.734C217.059 200.344 216.757 198.912 216.554 197.432C216.351 195.958 216.247 194.464 216.247 192.958C216.247 191.453 216.351 189.964 216.554 188.484C216.757 187.01 217.059 185.573 217.46 184.182C217.866 182.792 218.356 181.469 218.939 180.219C219.523 178.964 220.184 177.807 220.924 176.745C221.669 175.677 222.476 174.729 223.346 173.891C224.221 173.052 225.137 172.349 226.106 171.771C227.075 171.198 228.075 170.76 229.106 170.469C230.132 170.172 231.174 170.026 232.221 170.026C233.268 170.026 234.309 170.172 235.335 170.469C236.366 170.76 237.366 171.198 238.335 171.771C239.304 172.349 240.226 173.052 241.096 173.891C241.965 174.729 242.773 175.677 243.518 176.745C244.257 177.807 244.919 178.964 245.502 180.219C246.085 181.469 246.575 182.792 246.981 184.182C247.382 185.573 247.684 187.01 247.887 188.484C248.09 189.964 248.195 191.453 248.195 192.958Z" fill="white"/>
<mask id="mask10_86_3444" style="mask-type:luminance" maskUnits="userSpaceOnUse" x="215" y="173" width="25" height="39">
<path d="M215.403 173.188H239.403V211.854H215.403V173.188Z" fill="white"/>
</mask>
<g mask="url(#mask10_86_3444)">
<mask id="mask11_86_3444" style="mask-type:luminance" maskUnits="userSpaceOnUse" x="216" y="170" width="33" height="46">
<path d="M216.247 192.958C216.247 189.917 216.653 186.995 217.46 184.182C218.273 181.375 219.429 178.896 220.924 176.745C222.424 174.594 224.153 172.938 226.106 171.771C228.064 170.609 230.101 170.026 232.221 170.026C234.34 170.026 236.377 170.609 238.335 171.771C240.288 172.938 242.018 174.594 243.518 176.745C245.012 178.896 246.169 181.375 246.981 184.182C247.788 186.995 248.195 189.917 248.195 192.958C248.195 196 247.788 198.927 246.981 201.734C246.169 204.547 245.012 207.026 243.518 209.177C242.018 211.328 240.288 212.984 238.335 214.146C236.377 215.313 234.34 215.891 232.221 215.891C230.101 215.891 228.064 215.313 226.106 214.146C224.153 212.984 222.424 211.328 220.924 209.177C219.429 207.026 218.273 204.547 217.46 201.734C216.653 198.927 216.247 196 216.247 192.958Z" fill="white"/>
</mask>
<g mask="url(#mask11_86_3444)">
<path d="M239.018 192.958C239.018 194.198 238.939 195.422 238.773 196.635C238.611 197.849 238.372 199.031 238.049 200.172C237.731 201.318 237.34 202.401 236.872 203.432C236.408 204.458 235.882 205.411 235.288 206.286C234.7 207.161 234.059 207.943 233.361 208.63C232.669 209.318 231.934 209.901 231.163 210.375C230.387 210.849 229.596 211.203 228.773 211.448C227.955 211.688 227.127 211.807 226.294 211.807C225.455 211.807 224.627 211.688 223.809 211.448C222.986 211.203 222.195 210.849 221.419 210.375C220.648 209.901 219.913 209.318 219.221 208.63C218.523 207.943 217.882 207.161 217.294 206.286C216.7 205.411 216.174 204.458 215.71 203.432C215.247 202.401 214.851 201.318 214.533 200.172C214.21 199.031 213.971 197.849 213.809 196.635C213.643 195.422 213.564 194.198 213.564 192.958C213.564 191.724 213.643 190.495 213.809 189.281C213.971 188.068 214.21 186.891 214.533 185.745C214.851 184.604 215.247 183.516 215.71 182.49C216.174 181.458 216.7 180.505 217.294 179.63C217.882 178.755 218.523 177.974 219.221 177.286C219.913 176.599 220.648 176.021 221.419 175.547C222.195 175.073 222.986 174.714 223.809 174.474C224.627 174.229 225.455 174.109 226.294 174.109C227.127 174.109 227.955 174.229 228.773 174.474C229.596 174.714 230.387 175.073 231.163 175.547C231.934 176.021 232.669 176.599 233.361 177.286C234.059 177.974 234.7 178.755 235.288 179.63C235.882 180.505 236.408 181.458 236.872 182.49C237.34 183.516 237.731 184.604 238.049 185.745C238.372 186.891 238.611 188.068 238.773 189.281C238.939 190.495 239.018 191.724 239.018 192.958Z" fill="black"/>
</g>
</g>
<mask id="mask12_86_3444" style="mask-type:luminance" maskUnits="userSpaceOnUse" x="227" y="185" width="17" height="11">
<path d="M227.403 185.188H243.403V195.854H227.403V185.188Z" fill="white"/>
</mask>
<g mask="url(#mask12_86_3444)">
<mask id="mask13_86_3444" style="mask-type:luminance" maskUnits="userSpaceOnUse" x="216" y="170" width="33" height="46">
<path d="M216.247 192.958C216.247 189.917 216.653 186.995 217.46 184.182C218.273 181.375 219.429 178.896 220.924 176.745C222.424 174.594 224.153 172.938 226.106 171.771C228.064 170.609 230.101 170.026 232.221 170.026C234.34 170.026 236.377 170.609 238.335 171.771C240.288 172.938 242.018 174.594 243.518 176.745C245.012 178.896 246.169 181.375 246.981 184.182C247.788 186.995 248.195 189.917 248.195 192.958C248.195 196 247.788 198.927 246.981 201.734C246.169 204.547 245.012 207.026 243.518 209.177C242.018 211.328 240.288 212.984 238.335 214.146C236.377 215.313 234.34 215.891 232.221 215.891C230.101 215.891 228.064 215.313 226.106 214.146C224.153 212.984 222.424 211.328 220.924 209.177C219.429 207.026 218.273 204.547 217.46 201.734C216.653 198.927 216.247 196 216.247 192.958Z" fill="white"/>
</mask>
<g mask="url(#mask13_86_3444)">
<path d="M242.684 195.682C237.726 193.797 232.773 191.911 227.814 190.026C232.84 188.703 237.867 187.375 242.893 186.047C242.825 189.26 242.752 192.469 242.684 195.682Z" fill="white"/>
</g>
</g>
<path d="M215.153 192.958C215.163 197.76 216.143 202.589 218.304 206.891C220.054 210.385 222.715 213.651 226.236 215.474C229.544 217.188 233.455 217.474 236.924 216.052C240.601 214.542 243.45 211.594 245.424 208.198C247.799 204.125 248.986 199.411 249.231 194.724C249.492 189.906 248.721 185 246.835 180.547C245.242 176.797 242.747 173.292 239.278 171.068C236.179 169.078 232.346 168.396 228.783 169.422C225.012 170.5 221.981 173.24 219.82 176.427C217.247 180.229 215.867 184.755 215.356 189.292C215.221 190.505 215.158 191.734 215.153 192.958C215.153 194.365 217.33 194.365 217.335 192.958C217.346 188.604 218.179 184.182 220.117 180.26C221.71 177.031 224.054 174.073 227.231 172.38C230.054 170.885 233.325 170.693 236.346 171.964C237.721 172.542 239.153 173.536 240.294 174.63C241.632 175.911 242.736 177.396 243.653 179.005C245.757 182.703 246.83 186.953 247.054 191.188C247.294 195.661 246.648 200.24 244.903 204.38C243.502 207.708 241.288 210.927 238.283 212.891C235.559 214.677 232.387 215.276 229.304 214.375C226.111 213.443 223.45 211.031 221.58 208.203C219.273 204.719 217.955 200.589 217.518 196.448C217.393 195.292 217.335 194.12 217.335 192.948C217.335 191.547 215.148 191.547 215.153 192.948V192.958Z" fill="black"/>
<path d="M205.21 192.958C205.21 194.464 205.111 195.958 204.903 197.432C204.7 198.912 204.398 200.344 203.997 201.734C203.596 203.125 203.101 204.448 202.518 205.698C201.939 206.953 201.273 208.109 200.533 209.177C199.794 210.24 198.986 211.193 198.111 212.026C197.241 212.865 196.32 213.573 195.351 214.146C194.382 214.724 193.382 215.156 192.356 215.453C191.325 215.745 190.288 215.891 189.236 215.891C188.189 215.891 187.153 215.745 186.122 215.453C185.096 215.156 184.096 214.724 183.127 214.146C182.158 213.573 181.236 212.865 180.361 212.026C179.491 211.193 178.684 210.24 177.945 209.177C177.2 208.109 176.538 206.953 175.955 205.698C175.372 204.448 174.882 203.125 174.481 201.734C174.08 200.344 173.778 198.912 173.57 197.432C173.366 195.958 173.262 194.464 173.262 192.958C173.262 191.453 173.366 189.964 173.57 188.484C173.778 187.01 174.08 185.573 174.481 184.182C174.882 182.792 175.372 181.469 175.955 180.219C176.538 178.964 177.2 177.807 177.945 176.745C178.684 175.677 179.491 174.729 180.361 173.891C181.236 173.052 182.158 172.349 183.127 171.771C184.096 171.198 185.096 170.76 186.122 170.469C187.153 170.172 188.189 170.026 189.236 170.026C190.288 170.026 191.325 170.172 192.356 170.469C193.382 170.76 194.382 171.198 195.351 171.771C196.32 172.349 197.241 173.052 198.111 173.891C198.986 174.729 199.794 175.677 200.533 176.745C201.273 177.807 201.939 178.964 202.518 180.219C203.101 181.469 203.596 182.792 203.997 184.182C204.398 185.573 204.7 187.01 204.903 188.484C205.111 189.964 205.21 191.453 205.21 192.958Z" fill="white"/>
<mask id="mask14_86_3444" style="mask-type:luminance" maskUnits="userSpaceOnUse" x="172" y="173" width="25" height="39">
<path d="M172.736 173.188H196.736V211.854H172.736V173.188Z" fill="white"/>
</mask>
<g mask="url(#mask14_86_3444)">
<mask id="mask15_86_3444" style="mask-type:luminance" maskUnits="userSpaceOnUse" x="173" y="170" width="33" height="46">
<path d="M173.262 192.958C173.262 189.917 173.669 186.995 174.481 184.182C175.288 181.375 176.445 178.896 177.945 176.745C179.44 174.594 181.169 172.938 183.127 171.771C185.08 170.609 187.122 170.026 189.236 170.026C191.356 170.026 193.393 170.609 195.351 171.771C197.309 172.938 199.033 174.594 200.533 176.745C202.033 178.896 203.184 181.375 203.997 184.182C204.809 186.995 205.21 189.917 205.21 192.958C205.21 196 204.809 198.927 203.997 201.734C203.184 204.547 202.033 207.026 200.533 209.177C199.033 211.328 197.309 212.984 195.351 214.146C193.393 215.313 191.356 215.891 189.236 215.891C187.122 215.891 185.08 215.313 183.127 214.146C181.169 212.984 179.44 211.328 177.945 209.177C176.445 207.026 175.288 204.547 174.481 201.734C173.669 198.927 173.262 196 173.262 192.958Z" fill="white"/>
</mask>
<g mask="url(#mask15_86_3444)">
<path d="M196.033 192.958C196.033 194.198 195.95 195.422 195.788 196.635C195.622 197.849 195.382 199.031 195.065 200.172C194.742 201.318 194.351 202.401 193.887 203.432C193.424 204.458 192.893 205.411 192.304 206.286C191.716 207.161 191.07 207.943 190.377 208.63C189.679 209.318 188.945 209.901 188.174 210.375C187.403 210.849 186.606 211.203 185.788 211.448C184.966 211.688 184.143 211.807 183.304 211.807C182.471 211.807 181.643 211.688 180.82 211.448C180.002 211.203 179.205 210.849 178.434 210.375C177.663 209.901 176.929 209.318 176.231 208.63C175.538 207.943 174.898 207.161 174.304 206.286C173.716 205.411 173.184 204.458 172.721 203.432C172.257 202.401 171.867 201.318 171.544 200.172C171.226 199.031 170.986 197.849 170.82 196.635C170.658 195.422 170.575 194.198 170.575 192.958C170.575 191.724 170.658 190.495 170.82 189.281C170.986 188.068 171.226 186.891 171.544 185.745C171.867 184.604 172.257 183.516 172.721 182.49C173.184 181.458 173.716 180.505 174.304 179.63C174.898 178.755 175.538 177.974 176.231 177.286C176.929 176.599 177.663 176.021 178.434 175.547C179.205 175.073 180.002 174.714 180.82 174.474C181.643 174.229 182.471 174.109 183.304 174.109C184.143 174.109 184.966 174.229 185.788 174.474C186.606 174.714 187.403 175.073 188.174 175.547C188.945 176.021 189.679 176.599 190.377 177.286C191.07 177.974 191.716 178.755 192.304 179.63C192.893 180.505 193.424 181.458 193.887 182.49C194.351 183.516 194.742 184.604 195.065 185.745C195.382 186.891 195.622 188.068 195.788 189.281C195.95 190.495 196.033 191.724 196.033 192.958Z" fill="black"/>
</g>
</g>
<mask id="mask16_86_3444" style="mask-type:luminance" maskUnits="userSpaceOnUse" x="184" y="185" width="17" height="11">
<path d="M184.736 185.188H200.736V195.854H184.736V185.188Z" fill="white"/>
</mask>
<g mask="url(#mask16_86_3444)">
<mask id="mask17_86_3444" style="mask-type:luminance" maskUnits="userSpaceOnUse" x="173" y="170" width="33" height="46">
<path d="M173.262 192.958C173.262 189.917 173.669 186.995 174.481 184.182C175.288 181.375 176.445 178.896 177.945 176.745C179.439 174.594 181.169 172.938 183.127 171.771C185.08 170.609 187.122 170.026 189.236 170.026C191.356 170.026 193.393 170.609 195.351 171.771C197.309 172.938 199.033 174.594 200.533 176.745C202.033 178.896 203.184 181.375 203.997 184.182C204.809 186.995 205.21 189.917 205.21 192.958C205.21 196 204.809 198.927 203.997 201.734C203.184 204.547 202.033 207.026 200.533 209.177C199.033 211.328 197.309 212.984 195.351 214.146C193.393 215.313 191.356 215.891 189.236 215.891C187.122 215.891 185.08 215.313 183.127 214.146C181.169 212.984 179.439 211.328 177.945 209.177C176.445 207.026 175.288 204.547 174.481 201.734C173.669 198.927 173.262 196 173.262 192.958Z" fill="white"/>
</mask>
<g mask="url(#mask17_86_3444)">
<path d="M199.7 195.682C194.747 193.797 189.788 191.911 184.83 190.026C189.856 188.703 194.882 187.375 199.913 186.047C199.84 189.26 199.773 192.469 199.7 195.682Z" fill="white"/>
</g>
</g>
<path d="M172.169 192.958C172.184 197.76 173.158 202.589 175.32 206.891C177.075 210.385 179.736 213.651 183.257 215.474C186.564 217.188 190.471 217.474 193.939 216.052C197.622 214.542 200.465 211.594 202.439 208.198C204.814 204.125 206.002 199.411 206.252 194.724C206.507 189.906 205.742 185 203.851 180.547C202.257 176.797 199.768 173.292 196.299 171.068C193.195 169.078 189.367 168.396 185.799 169.422C182.028 170.5 178.997 173.24 176.84 176.427C174.262 180.229 172.887 184.755 172.372 189.292C172.242 190.505 172.174 191.734 172.169 192.958C172.169 194.365 174.346 194.365 174.351 192.958C174.367 188.604 175.2 184.182 177.132 180.26C178.726 177.031 181.07 174.073 184.247 172.38C187.07 170.885 190.34 170.693 193.361 171.964C194.742 172.542 196.174 173.536 197.309 174.63C198.648 175.911 199.752 177.396 200.669 179.005C202.773 182.703 203.846 186.953 204.075 191.188C204.314 195.661 203.663 200.24 201.919 204.38C200.518 207.708 198.304 210.927 195.304 212.891C192.575 214.677 189.403 215.276 186.32 214.375C183.132 213.443 180.471 211.031 178.596 208.203C176.288 204.719 174.976 200.589 174.533 196.448C174.413 195.292 174.351 194.12 174.351 192.948C174.351 191.547 172.163 191.547 172.169 192.948V192.958Z" fill="black"/>
<path d="M213.45 213.792C210.835 211.047 206.346 210.807 203.622 213.521C201.023 216.104 201.059 220.599 203.976 222.953C204.913 223.703 206.017 224.12 207.132 224.51C208.309 224.922 209.502 225.219 210.741 224.912C212.101 224.573 211.528 222.474 210.158 222.807C209.424 222.99 208.684 222.74 207.991 222.505C207.236 222.25 206.476 221.995 205.794 221.583C204.752 220.948 204.075 219.818 203.903 218.615C203.564 216.245 205.507 213.964 207.872 213.766C209.392 213.641 210.856 214.245 211.903 215.339C212.872 216.359 214.408 214.813 213.445 213.792H213.45Z" fill="black"/>
<path d="M227.965 233.151C224.116 237.422 218.997 240.412 213.314 241.594C206.122 243.083 198.314 241.479 192.267 237.047C190.861 236.016 189.564 234.823 188.392 233.542C187.924 233.031 187.481 232.505 187.054 231.969C187.033 231.943 186.908 231.781 186.991 231.891C187.075 232 186.924 231.807 186.908 231.781C186.82 231.672 186.736 231.557 186.653 231.443C186.512 231.245 186.366 231.042 186.226 230.839C185.892 230.354 185.273 230.135 184.736 230.448C184.257 230.729 184.007 231.458 184.34 231.943C188.403 237.781 194.559 242.073 201.523 243.635C208.637 245.224 216.252 244.042 222.538 240.359C225.127 238.849 227.502 236.927 229.512 234.703C230.45 233.662 228.908 232.115 227.965 233.156V233.151Z" fill="black"/>
<path d="M230.794 224.255C228.247 225.677 226.611 228.568 226.887 231.505C227.179 234.599 229.377 237.193 232.403 237.953C234.169 238.396 235.955 238.172 237.601 237.417C238.137 237.172 238.268 236.396 237.992 235.922C237.669 235.375 237.038 235.286 236.502 235.531C233.903 236.724 230.601 235.573 229.45 232.922C228.361 230.417 229.518 227.469 231.898 226.135C233.122 225.453 232.023 223.568 230.799 224.25L230.794 224.255Z" fill="black"/>
<path d="M186.101 169.313C185.2 169.474 183.945 169.458 182.882 169.214C181.84 168.979 180.835 168.583 179.997 167.901C179.528 167.521 179.111 167.078 178.778 166.573C178.627 166.344 178.486 166.109 178.361 165.859C178.252 165.651 178.158 165.448 178.106 165.307C177.955 164.912 177.835 164.5 177.741 164.083C177.705 163.922 177.674 163.76 177.648 163.599C177.643 163.557 177.606 163.26 177.632 163.484C177.658 163.693 177.632 163.469 177.627 163.427C177.564 162.844 177.174 162.339 176.538 162.339C175.997 162.339 175.382 162.839 175.445 163.427C175.705 165.776 176.721 168.057 178.596 169.557C180.851 171.359 183.877 171.912 186.679 171.412C187.262 171.307 187.59 170.604 187.445 170.068C187.273 169.458 186.684 169.203 186.101 169.307V169.313Z" fill="black"/>
<path d="M189.674 168.937C187.736 168.865 185.538 168.021 184.143 166.49C182.747 164.958 182.403 163.062 182.606 161.161C182.669 160.573 182.059 160.068 181.518 160.068C180.872 160.068 180.486 160.573 180.424 161.161C180.163 163.63 180.924 166.187 182.601 168.026C184.372 169.969 187.085 171.016 189.674 171.115C190.262 171.135 190.768 170.599 190.768 170.021C190.768 169.411 190.262 168.953 189.674 168.932V168.937Z" fill="black"/>
<path d="M228.648 169.313C227.747 169.474 226.491 169.458 225.429 169.214C224.361 168.969 223.382 168.583 222.544 167.901C222.075 167.521 221.658 167.078 221.325 166.573C221.174 166.344 221.033 166.109 220.908 165.859C220.799 165.651 220.705 165.448 220.653 165.307C220.502 164.912 220.377 164.5 220.288 164.083C220.252 163.922 220.221 163.76 220.195 163.599C220.189 163.557 220.153 163.26 220.179 163.484C220.205 163.693 220.179 163.469 220.174 163.427C220.106 162.844 219.721 162.339 219.085 162.339C218.544 162.339 217.929 162.839 217.991 163.427C218.252 165.776 219.268 168.057 221.143 169.557C223.398 171.359 226.424 171.912 229.226 171.412C229.809 171.307 230.137 170.604 229.991 170.068C229.82 169.458 229.231 169.203 228.648 169.307V169.313Z" fill="black"/>
<path d="M232.221 168.937C230.283 168.865 228.085 168.021 226.689 166.49C225.294 164.958 224.95 163.062 225.153 161.161C225.215 160.573 224.606 160.068 224.059 160.068C223.419 160.068 223.033 160.573 222.971 161.161C222.71 163.63 223.465 166.187 225.148 168.026C226.919 169.969 229.632 171.016 232.221 171.115C232.809 171.135 233.309 170.599 233.309 170.021C233.309 169.411 232.809 168.953 232.221 168.932V168.937Z" fill="black"/>
<path d="M79.83 131.099C81.054 132.964 82.8717 134.417 85.0019 135.115C87.6842 135.995 90.6112 135.464 92.9915 134.016C93.6269 133.63 94.2519 133.182 94.7883 132.662C95.7987 131.688 94.2519 130.146 93.2415 131.12C93.0696 131.287 92.8821 131.443 92.6946 131.589C92.9342 131.396 92.6373 131.63 92.5852 131.667C92.4862 131.74 92.3821 131.807 92.2831 131.88C92.0748 132.016 91.8612 132.146 91.6477 132.271C90.4915 132.932 89.1894 133.359 87.8092 133.365C86.2258 133.375 84.6737 132.823 83.4237 131.849C83.0383 131.542 82.6112 131.125 82.2623 130.724C82.179 130.635 82.106 130.537 82.0279 130.443C81.8977 130.281 82.1321 130.599 81.9654 130.349C81.8821 130.234 81.7987 130.115 81.7154 129.995C80.9446 128.823 79.0592 129.917 79.83 131.094V131.099Z" fill="black"/>
<path d="M185.846 155.115C188.226 156.349 191.143 156.677 193.674 155.703C195.955 154.833 197.773 153.109 198.908 150.964C199.21 150.396 199.481 149.792 199.669 149.177C200.075 147.828 197.971 147.255 197.564 148.599C197.507 148.787 197.434 148.974 197.361 149.156C197.252 149.438 197.439 149.01 197.346 149.198C197.304 149.292 197.262 149.385 197.221 149.479C197.117 149.693 197.007 149.901 196.893 150.109C196.325 151.115 195.689 151.922 194.773 152.641C193.497 153.635 191.898 154.13 190.288 154.094C189.528 154.073 188.788 153.927 188.064 153.693C187.919 153.646 187.768 153.594 187.622 153.537C187.559 153.51 187.492 153.484 187.429 153.458C187.502 153.49 187.502 153.49 187.429 153.458C187.268 153.385 187.106 153.313 186.95 153.229C185.705 152.583 184.601 154.464 185.846 155.115Z" fill="black"/>
</svg>
