<svg width="114" height="138" viewBox="0 0 114 138" fill="none" xmlns="http://www.w3.org/2000/svg">
<path d="M79.6583 80.1676L106.736 70.178C108.398 69.5634 108.398 66.5596 106.736 65.919L79.6583 55.9295C73.1833 53.549 68.1453 47.1259 66.2841 38.9023L58.8396 5.91255C58.3548 3.78306 55.9743 3.78306 55.4982 5.91255L48.045 38.9023C46.1839 47.1086 41.1458 53.523 34.6708 55.9295L7.60208 65.919C5.93139 66.5423 5.93139 69.5374 7.60208 70.178L34.6708 80.1676C41.1458 82.5567 46.1839 88.9798 48.045 97.1948L55.4982 130.185C55.9743 132.314 58.3548 132.314 58.8396 130.185L66.2841 97.1948C68.1453 88.9798 73.1833 82.5567 79.6583 80.1676Z" fill="#4780C3"/>
<mask id="mask0_263_2770" style="mask-type:luminance" maskUnits="userSpaceOnUse" x="0" y="0" width="114" height="138">
<path d="M0.114502 0H113.133V137.049H0.114502V0Z" fill="white"/>
</mask>
<g mask="url(#mask0_263_2770)">
<path d="M57.1255 136.019C56.4329 136.01 55.7577 135.889 55.1085 135.646C54.4593 135.404 53.862 135.058 53.3339 134.608C52.8059 134.157 52.3644 133.638 52.0182 133.041C51.6632 132.435 51.4295 131.794 51.2997 131.11L43.8551 98.1206C42.2883 91.3859 38.2284 86.0362 33.1125 84.1751L6.04376 74.1682C4.8232 73.6488 3.84503 72.8351 3.10923 71.7184C2.37343 70.6104 2.00986 69.3898 2.00986 68.0567C2.00986 66.7323 2.37343 65.5118 3.10923 64.4037C3.84503 63.287 4.8232 62.4733 6.04376 61.954L33.1125 51.9558C38.2284 50.1206 42.2883 44.7969 43.8118 38.0102L51.265 5.02051C51.3776 4.32799 51.6113 3.68742 51.9576 3.08147C52.3038 2.47552 52.7453 1.94747 53.2733 1.49734C53.81 1.05586 54.3987 0.709597 55.0566 0.467219C55.7058 0.233494 56.381 0.112305 57.0822 0.112305C57.7747 0.112305 58.4499 0.233494 59.1078 0.467219C59.757 0.709597 60.3543 1.05586 60.8824 1.49734C61.4191 1.94747 61.8605 2.47552 62.2068 3.08147C62.553 3.68742 62.7781 4.32799 62.8993 5.02051L70.3438 38.0102C71.9626 44.7969 76.0571 50.1206 81.1384 51.9558L108.198 61.954C109.419 62.4733 110.397 63.287 111.133 64.4037C111.869 65.5118 112.232 66.7323 112.232 68.0567C112.232 69.3898 111.869 70.6104 111.133 71.7184C110.397 72.8351 109.419 73.6488 108.198 74.1682L81.1384 84.1751C76.0571 86.0448 71.9626 91.3945 70.4304 98.1379L62.9859 131.128C62.856 131.811 62.6136 132.452 62.2674 133.058C61.9125 133.655 61.471 134.183 60.9343 134.625C60.3976 135.075 59.809 135.413 59.1511 135.655C58.4932 135.897 57.818 136.019 57.1255 136.019ZM14.0769 68.0567L36.0989 76.1765C43.959 79.0851 49.9319 86.5729 52.1567 96.2248L57.1687 118.307L62.1722 96.2248C64.3709 86.5729 70.3698 79.0851 78.2299 76.1765L100.209 68.0567L78.2299 59.9543C70.3698 57.0457 64.3969 49.5406 62.1722 39.8887L57.1687 17.8234L52.1567 39.8887C49.9319 49.5406 43.9157 57.0457 36.0989 59.9543L14.0769 68.0567Z" fill="black"/>
</g>
</svg>
