<svg width="173" height="218" viewBox="0 0 173 218" fill="none" xmlns="http://www.w3.org/2000/svg">
<path d="M122.991 128.82L165.96 112.963C168.611 111.972 168.611 107.214 165.96 106.233L122.991 90.3665C112.727 86.5697 104.697 76.3835 101.745 63.3617L89.8592 10.9739C89.0921 7.59464 85.3148 7.59464 84.5573 10.9739L72.6523 63.3617C69.6906 76.3835 61.6795 86.5697 51.4059 90.3665L8.42742 106.233C5.77647 107.214 5.77647 111.972 8.42742 112.963L51.4059 128.82C61.6795 132.617 69.6906 142.803 72.6523 155.825L84.5379 208.212C85.305 211.592 89.0824 211.592 89.8495 208.212L101.716 155.825C104.697 142.803 112.727 132.617 122.991 128.82Z" fill="#E63C23"/>
<mask id="mask0_249_1548" style="mask-type:luminance" maskUnits="userSpaceOnUse" x="0" y="0" width="173" height="218">
<path d="M0.41626 0.961914H173V217.233H0.41626V0.961914Z" fill="white"/>
</mask>
<g mask="url(#mask0_249_1548)">
<path d="M87.2083 215.874C86.2955 215.864 85.4215 215.689 84.567 215.369C83.7222 215.048 82.9551 214.592 82.2559 214C81.5665 213.407 80.9936 212.718 80.5469 211.931C80.0905 211.145 79.7895 210.3 79.6244 209.407L67.7291 156.999C65.2044 145.764 58.2517 136.772 49.6677 133.626L6.69893 117.759C5.087 117.06 3.80522 115.973 2.84388 114.497C1.88255 113.03 1.40674 111.419 1.40674 109.661C1.40674 107.903 1.89226 106.291 2.84388 104.815C3.80522 103.349 5.087 102.262 6.69893 101.553L49.6677 85.6858C58.2517 82.5105 65.1752 73.5478 67.7291 62.3128L79.6244 9.80839C79.7701 8.91503 80.0711 8.06051 80.5178 7.27396C80.9644 6.47771 81.5374 5.78826 82.2365 5.19593C82.9259 4.60359 83.7028 4.15691 84.5573 3.83646C85.4118 3.52573 86.2955 3.37036 87.2083 3.37036C88.121 3.37036 89.0047 3.52573 89.8592 3.83646C90.7137 4.15691 91.4906 4.60359 92.18 5.19593C92.8792 5.78826 93.4521 6.47771 93.8988 7.27396C94.3454 8.06051 94.6465 8.91503 94.7921 9.80839L106.668 62.2157C109.202 73.4507 116.155 82.4425 124.749 85.5887L167.718 101.456C169.33 102.155 170.611 103.242 171.573 104.718C172.534 106.185 173.01 107.797 173.01 109.554C173.01 111.312 172.534 112.924 171.573 114.4C170.611 115.866 169.33 116.953 167.718 117.662L124.749 133.529C116.155 136.695 109.222 145.667 106.668 156.902L94.7921 209.3C94.6367 210.203 94.3454 211.057 93.889 211.854C93.4424 212.66 92.8792 213.359 92.18 213.951C91.4906 214.553 90.7137 215.019 89.8592 215.349C89.0047 215.68 88.121 215.854 87.2083 215.874ZM13.9041 109.68L53.0857 124.168C65.0296 128.587 74.1574 140.025 77.4978 154.795L87.1209 197.171L96.7245 154.795C100.084 140.025 109.212 128.587 121.156 124.168L160.338 109.68L121.156 95.1924C109.212 90.7838 100.075 79.3449 96.7245 64.5753L87.1209 22.1989L77.4978 64.5753C74.1574 79.3449 65.0296 90.7838 53.0857 95.1924L13.9041 109.68Z" fill="black"/>
</g>
</svg>
