<svg width="124" height="153" viewBox="0 0 124 153" fill="none" xmlns="http://www.w3.org/2000/svg">
<path d="M85.2954 90.9871L114.903 80.0628C115.815 79.5676 116.281 78.8005 116.281 77.7517C116.281 76.703 115.815 75.9359 114.903 75.4407L85.2954 64.5067C78.2359 61.8946 72.6621 54.8836 70.6714 45.9209L62.4855 9.80774C61.9709 7.48694 59.3685 7.48694 58.8344 9.80774L50.6485 45.8918C48.619 54.8545 43.0646 61.8752 36.0245 64.4776L6.41739 75.4407C5.51432 75.9359 5.05793 76.7127 5.05793 77.7517C5.05793 78.7908 5.51432 79.5579 6.41739 80.0628L36.0245 90.9871C43.0938 93.6089 48.6578 100.62 50.6485 109.583L58.8344 145.657C59.3685 147.978 61.9709 147.978 62.4855 145.657L70.6714 109.583C72.7106 100.62 78.2359 93.6089 85.2954 90.9871Z" fill="#ED1B68"/>
<mask id="mask0_249_1547" style="mask-type:luminance" maskUnits="userSpaceOnUse" x="0" y="0" width="124" height="153">
<path d="M0 0.81543H123.235V152.454H0V0.81543Z" fill="white"/>
</mask>
<g mask="url(#mask0_249_1547)">
<path d="M60.6709 152.453C59.8649 152.434 59.0881 152.288 58.3404 152.007C57.583 151.715 56.9032 151.317 56.2915 150.803C55.67 150.288 55.1651 149.686 54.7572 148.997C54.3494 148.307 54.0581 147.559 53.9027 146.773L45.7168 110.699C44.0854 103.464 39.6963 97.7351 34.3361 95.725L4.68043 84.8008C3.2627 84.2085 2.12658 83.2665 1.28177 81.9848C0.427254 80.703 0.00970459 79.2853 0.00970459 77.751C0.00970459 76.2168 0.427254 74.799 1.28177 73.5173C2.12658 72.2355 3.2627 71.2936 4.68043 70.6915L34.2779 59.7575C39.6963 57.7669 44.0854 52.028 45.7168 44.7937L53.9027 8.71943C54.0581 7.93288 54.3397 7.19489 54.7475 6.50545C55.1553 5.8063 55.67 5.20425 56.2818 4.68959C56.9032 4.17494 57.583 3.7671 58.3307 3.4855C59.0881 3.2039 59.8649 3.04853 60.6709 3.03882C61.4671 3.04853 62.244 3.2039 63.0014 3.4855C63.7491 3.77681 64.4288 4.17494 65.0406 4.68959C65.662 5.20425 66.167 5.81601 66.5748 6.50545C66.9827 7.19489 67.2643 7.93288 67.4196 8.71943L75.6055 44.7937C77.2466 52.028 81.6357 57.7669 87.0542 59.7575L116.661 70.6915C118.069 71.2936 119.205 72.2355 120.06 73.5173C120.905 74.799 121.332 76.2168 121.332 77.751C121.332 79.2853 120.905 80.703 120.06 81.9848C119.205 83.2665 118.069 84.2085 116.661 84.8008L87.0542 95.7736C81.6357 97.7837 77.2466 103.513 75.6055 110.747L67.4196 146.831C67.2546 147.608 66.973 148.346 66.5651 149.026C66.1476 149.715 65.6426 150.307 65.0309 150.822C64.4094 151.337 63.7297 151.725 62.982 152.007C62.2343 152.288 61.4671 152.434 60.6709 152.453ZM14.7599 77.751L37.7834 86.2476C46.5033 89.4521 53.1647 97.7642 55.6117 108.417L60.6709 130.819L65.7203 108.417C68.1479 97.7254 74.8093 89.4521 83.5293 86.2088L106.533 77.7122L83.5584 69.2252C74.8384 66.0014 68.1771 57.6989 65.7494 47.0077L60.6903 24.6057L55.6409 47.0077C53.2133 57.6989 46.5519 65.9722 37.8319 69.2252L14.7599 77.751Z" fill="black"/>
</g>
</svg>
