<svg width="387" height="387" viewBox="0 0 387 387" fill="none" xmlns="http://www.w3.org/2000/svg">
<mask id="mask0_86_3437" style="mask-type:luminance" maskUnits="userSpaceOnUse" x="0" y="0" width="387" height="387">
<path d="M0 0H387V387H0V0Z" fill="white"/>
</mask>
<g mask="url(#mask0_86_3437)">
<path d="M385.465 197.866L367.708 190.949L371.855 189.329C372.373 189.128 372.793 188.793 373.11 188.33C373.427 187.867 373.585 187.356 373.585 186.795C373.585 186.235 373.427 185.724 373.11 185.261C372.793 184.798 372.373 184.463 371.855 184.262L296.406 154.838L333.053 71.3446C333.278 70.827 333.339 70.2972 333.236 69.7431C333.132 69.195 332.883 68.72 332.487 68.3242C332.091 67.9284 331.616 67.6787 331.062 67.5752C330.514 67.4717 329.978 67.5326 329.466 67.7579L311.606 75.5951L319.443 57.7346C319.668 57.217 319.729 56.6872 319.626 56.133C319.522 55.585 319.273 55.11 318.877 54.7142C318.481 54.3184 318.006 54.0687 317.452 53.9652C316.904 53.8616 316.368 53.9225 315.856 54.1479L232.357 90.7884L202.939 15.3395C202.738 14.8218 202.403 14.4017 201.94 14.085C201.477 13.7684 200.966 13.61 200.405 13.61C199.845 13.61 199.334 13.7684 198.871 14.085C198.408 14.4017 198.073 14.8218 197.866 15.3395L196.252 19.4864L189.329 1.72942C189.128 1.21181 188.793 0.791635 188.33 0.47498C187.867 0.158327 187.356 0 186.795 0C186.235 0 185.724 0.158327 185.261 0.47498C184.798 0.791635 184.463 1.21181 184.256 1.72942L148.316 93.9001L57.7285 54.1418C57.217 53.9165 56.6811 53.8556 56.133 53.9591C55.5789 54.0626 55.11 54.3123 54.7081 54.7081C54.3123 55.1039 54.0626 55.5789 53.9591 56.133C53.8556 56.6811 53.9164 57.217 54.1418 57.7285L93.9001 148.316L1.73551 184.256C1.21181 184.457 0.791637 184.792 0.474983 185.255C0.158329 185.718 0 186.229 0 186.789C0 187.35 0.158329 187.861 0.474983 188.324C0.791637 188.787 1.21181 189.122 1.73551 189.329L19.4864 196.252L15.3455 197.872C14.8218 198.073 14.4017 198.408 14.085 198.871C13.7684 199.334 13.61 199.845 13.61 200.406C13.61 200.966 13.7684 201.477 14.085 201.94C14.4017 202.403 14.8218 202.738 15.3455 202.939L90.7884 232.363L54.1418 315.856C53.9164 316.374 53.8556 316.904 53.9591 317.458C54.0626 318.006 54.3123 318.481 54.7142 318.877C55.11 319.273 55.5789 319.522 56.133 319.626C56.6811 319.729 57.217 319.668 57.7285 319.443L75.5951 311.606L67.7518 329.466C67.5265 329.984 67.4656 330.514 67.5691 331.068C67.6726 331.616 67.9223 332.091 68.3242 332.487C68.72 332.883 69.1889 333.132 69.7431 333.236C70.2911 333.339 70.827 333.278 71.3385 333.053L154.838 296.407L184.256 371.855C184.463 372.379 184.798 372.793 185.261 373.11C185.724 373.427 186.235 373.585 186.795 373.585C187.356 373.585 187.867 373.427 188.33 373.11C188.793 372.793 189.128 372.379 189.329 371.855L190.942 367.709L197.866 385.466C198.073 385.989 198.408 386.403 198.871 386.72C199.334 387.037 199.845 387.195 200.405 387.195C200.966 387.195 201.477 387.037 201.94 386.72C202.403 386.403 202.738 385.989 202.939 385.466L238.879 293.301L329.466 333.053C329.978 333.278 330.514 333.339 331.062 333.236C331.616 333.132 332.085 332.883 332.487 332.487C332.883 332.091 333.132 331.616 333.236 331.068C333.339 330.514 333.278 329.984 333.053 329.466L293.295 238.879L385.459 202.939C385.983 202.732 386.403 202.397 386.72 201.934C387.03 201.471 387.189 200.96 387.189 200.399C387.189 199.839 387.03 199.328 386.72 198.865C386.403 198.402 385.983 198.067 385.459 197.866H385.465ZM152.359 275.063C152.219 274.716 152.024 274.411 151.763 274.149C151.507 273.881 151.202 273.681 150.861 273.54C150.52 273.4 150.161 273.333 149.79 273.333C149.418 273.339 149.065 273.419 148.724 273.565L61.9363 311.649L100.026 224.861C100.172 224.52 100.251 224.167 100.258 223.795C100.258 223.424 100.191 223.065 100.051 222.724C99.9105 222.383 99.7034 222.078 99.4416 221.822C99.1797 221.56 98.8752 221.366 98.5281 221.226L10.2182 186.795L98.5281 152.365C98.8752 152.225 99.1797 152.031 99.4416 151.769C99.7034 151.513 99.9105 151.208 100.051 150.867C100.191 150.526 100.258 150.167 100.258 149.796C100.251 149.424 100.172 149.071 100.026 148.73L61.9363 61.9302L148.724 100.026C149.065 100.172 149.424 100.251 149.79 100.251C150.161 100.258 150.52 100.191 150.861 100.044C151.202 99.9044 151.507 99.7034 151.763 99.4355C152.024 99.1736 152.219 98.8631 152.359 98.5221L186.789 10.2121L221.226 98.5221C221.359 98.8631 221.554 99.1736 221.816 99.4355C222.072 99.7034 222.376 99.9044 222.717 100.044C223.058 100.191 223.418 100.258 223.789 100.251C224.155 100.251 224.514 100.172 224.855 100.026L311.642 61.9302L273.559 148.724C273.413 149.065 273.333 149.418 273.327 149.79C273.327 150.161 273.394 150.514 273.534 150.861C273.674 151.202 273.881 151.501 274.143 151.763C274.405 152.024 274.71 152.219 275.057 152.353L363.367 186.789L275.057 221.219C274.71 221.353 274.405 221.554 274.143 221.81C273.881 222.072 273.674 222.376 273.534 222.717C273.394 223.058 273.327 223.418 273.327 223.783C273.333 224.155 273.413 224.514 273.559 224.849L311.649 311.642L224.861 273.559C224.52 273.406 224.167 273.333 223.795 273.327C223.424 273.321 223.071 273.394 222.724 273.534C222.383 273.674 222.084 273.875 221.822 274.143C221.56 274.405 221.366 274.71 221.232 275.057L186.795 363.361L152.359 275.063Z" fill="black"/>
</g>
<path d="M152.359 275.063C152.219 274.716 152.024 274.411 151.763 274.15C151.507 273.882 151.202 273.681 150.861 273.541C150.52 273.401 150.161 273.334 149.79 273.334C149.418 273.34 149.065 273.419 148.724 273.565L61.9364 311.649L100.026 224.861C100.172 224.52 100.252 224.167 100.258 223.795C100.258 223.424 100.191 223.065 100.051 222.724C99.9105 222.383 99.7035 222.078 99.4416 221.822C99.1798 221.561 98.8753 221.366 98.5282 221.226L10.2183 186.796L98.5282 152.366C98.8753 152.226 99.1798 152.031 99.4416 151.769C99.7035 151.513 99.9105 151.209 100.051 150.868C100.191 150.527 100.258 150.167 100.258 149.796C100.252 149.424 100.172 149.071 100.026 148.73L61.9364 61.9304L148.724 100.026C149.065 100.172 149.424 100.252 149.79 100.252C150.161 100.258 150.52 100.191 150.861 100.045C151.202 99.9045 151.507 99.7036 151.763 99.4357C152.024 99.1738 152.219 98.8632 152.359 98.5222L186.789 10.2123L221.226 98.5222C221.36 98.8632 221.554 99.1738 221.816 99.4357C222.072 99.7036 222.376 99.9045 222.717 100.045C223.059 100.191 223.418 100.258 223.789 100.252C224.155 100.252 224.514 100.172 224.855 100.026L311.642 61.9304L273.559 148.724C273.413 149.065 273.333 149.418 273.327 149.79C273.327 150.161 273.394 150.514 273.534 150.861C273.674 151.202 273.881 151.501 274.143 151.763C274.405 152.025 274.71 152.219 275.057 152.353L363.367 186.79L275.057 221.22C274.71 221.354 274.405 221.555 274.143 221.81C273.881 222.072 273.674 222.377 273.534 222.718C273.394 223.059 273.327 223.418 273.327 223.783C273.333 224.155 273.413 224.514 273.559 224.849L311.649 311.643L224.861 273.559C224.52 273.407 224.167 273.334 223.795 273.327C223.424 273.321 223.071 273.394 222.724 273.534C222.383 273.675 222.084 273.875 221.822 274.143C221.56 274.405 221.366 274.71 221.232 275.057L186.796 363.361L152.359 275.063Z" fill="#FFCD04"/>
</svg>
