<svg width="124" height="126" viewBox="0 0 124 126" fill="none" xmlns="http://www.w3.org/2000/svg">
<path d="M118.807 58.345L79.7502 44.7236L66.1196 5.69009C64.6947 1.42476 58.5896 1.42476 57.1647 5.69009L43.5387 44.7236L4.47752 58.345C0.202969 59.7698 0.202969 65.8704 4.47752 67.2907L43.5387 80.912L57.1647 119.946C58.5896 124.216 64.6947 124.216 66.1196 119.946L79.7502 80.912L118.807 67.2907C123.081 65.8704 123.081 59.9727 118.807 58.345Z" fill="#E63C23"/>
<mask id="mask0_218_94" style="mask-type:luminance" maskUnits="userSpaceOnUse" x="0" y="0" width="124" height="126">
<path d="M0 0H123.925V125.129H0V0Z" fill="white"/>
</mask>
<g mask="url(#mask0_218_94)">
<path d="M61.845 124.621C59.2028 124.621 56.7589 122.998 55.9473 120.356L42.5196 82.1341L4.27455 68.7156C1.62774 67.904 0 65.4647 0 62.8179C0 60.1757 1.62774 57.7364 4.27455 56.9248L42.5196 43.5063L55.9473 5.28435C56.7589 2.64215 59.2028 1.0144 61.845 1.0144C64.4918 1.0144 66.9311 2.64215 67.7473 5.28435L81.1704 43.5063L119.42 56.9248C122.062 57.7364 123.69 60.1757 123.69 62.8179C123.69 65.4647 122.062 67.904 119.42 68.7156L81.1704 82.1341L67.7473 120.356C66.7282 122.998 64.4918 124.621 61.845 124.621ZM61.845 4.067C60.623 4.067 59.2028 4.67567 58.7924 6.30341L45.1618 45.3369C44.9589 45.7427 44.756 46.1485 44.3502 46.1485L5.28901 59.7699C3.66127 60.3786 3.05259 61.8034 3.05259 62.8179C3.05259 64.0398 3.66127 65.4647 5.28901 65.8705L44.3502 79.4919C44.756 79.6947 45.1618 79.8976 45.1618 80.3034L58.7924 119.337C59.4057 120.965 60.8305 121.573 61.845 121.573C63.0669 121.573 64.4918 120.965 64.8976 119.337L78.5282 80.3034C78.7311 79.8976 78.934 79.4919 79.3397 79.4919L118.401 65.8705C120.029 65.2572 120.637 63.8369 120.637 62.8179C120.637 61.8034 120.029 60.1757 118.401 59.7699L79.3397 46.1485C78.934 45.9456 78.5282 45.7427 78.5282 45.3369L64.8976 6.30341C64.2889 4.67567 62.864 4.067 61.845 4.067Z" fill="#202020"/>
</g>
</svg>
