<svg width="89" height="89" viewBox="0 0 89 89" fill="none" xmlns="http://www.w3.org/2000/svg">
<path d="M84.9887 41.1408L57.5246 31.5819L47.961 4.13621C46.9466 1.08822 42.672 1.08822 41.6576 4.13621L32.094 31.5819L4.6299 41.1408C1.57731 42.1553 1.57731 46.4252 4.6299 47.4397L32.094 56.994L41.6576 84.4397C42.672 87.4923 46.9466 87.4923 47.961 84.4397L57.5246 56.994L84.9887 47.4397C88.0413 46.4252 88.0413 42.1553 84.9887 41.1408Z" fill="#F791C3"/>
<mask id="mask0_218_101" style="mask-type:luminance" maskUnits="userSpaceOnUse" x="0" y="0" width="89" height="89">
<path d="M0 0H88.8526V88.5344H0V0Z" fill="white"/>
</mask>
<g mask="url(#mask0_218_101)">
<path d="M44.7097 88.3039C42.6716 88.3039 40.8409 87.0866 40.0294 85.053L30.6687 58.216L3.81788 48.8646C1.78435 48.2559 0.562393 46.4253 0.562393 44.1889C0.562393 42.1554 1.78435 40.3247 3.81788 39.5132L30.6687 30.1617L40.0294 3.32472C40.638 1.2912 42.4687 0.0738525 44.7097 0.0738525C46.7432 0.0738525 48.5739 1.2912 49.3854 3.32472L58.7461 30.1617L85.5969 39.5132C87.6351 40.1218 88.8524 41.9525 88.8524 44.1889C88.8524 46.2224 87.6351 48.053 85.5969 48.8646L58.7461 58.216L49.3854 85.053C48.5739 87.0866 46.7432 88.3039 44.7097 88.3039ZM44.7097 3.12183C44.2993 3.12183 43.2849 3.12183 42.8791 4.33918L33.3155 31.7848C33.1126 32.1952 32.9097 32.601 32.4993 32.601L5.03984 42.1554C3.81788 42.5611 3.81788 43.5802 3.81788 43.986C3.81788 44.3918 3.81788 45.4062 5.03984 45.8166L32.4993 55.371C32.9097 55.5738 33.3155 55.7767 33.3155 56.1825L42.8791 83.6282C43.2849 84.8501 44.2993 84.8501 44.7097 84.8501C45.1155 84.8501 46.1299 84.8501 46.5403 83.6282L56.0993 56.1825C56.3022 55.7767 56.5051 55.371 56.9155 55.371L84.3796 45.8166C85.5969 45.4062 85.5969 44.3918 85.5969 43.986C85.5969 43.5802 85.5969 42.5611 84.3796 42.1554L56.9155 32.601C56.5051 32.3981 56.0993 32.1952 56.0993 31.7848L46.5403 4.33918C45.9271 3.32472 44.9126 3.12183 44.7097 3.12183Z" fill="#202020"/>
</g>
</svg>
