<svg width="575" height="591" viewBox="0 0 575 591" fill="none" xmlns="http://www.w3.org/2000/svg">
<mask id="mask0_299_2804" style="mask-type:luminance" maskUnits="userSpaceOnUse" x="0" y="0" width="575" height="591">
<path d="M0 0H575V590.964H0V0Z" fill="white"/>
</mask>
<g mask="url(#mask0_299_2804)">
<path fill-rule="evenodd" clip-rule="evenodd" d="M417.655 485.318C450.235 483.779 473.802 475.293 489.932 463.872C509.46 450.037 508.678 399.005 520.941 377.326C533.758 354.745 556.309 346.345 565.926 328.037C571.45 317.516 567.672 301.852 560.23 293.337C558.372 291.217 552.094 285.259 548.694 283.369C546.398 282.091 543.288 283.225 543.288 285.463C543.173 293.164 542.33 303.133 541.66 309.324C541.197 311.705 539.974 314.582 538.493 317.344C515.798 359.947 488.856 410.254 463.6 450.589C459.561 457.014 454.941 462.591 449.421 463.406C447.125 463.754 442.243 463.463 436.866 462.215C377.377 448.441 189.495 407.086 84.8126 381.54C81.4154 380.611 79.6114 376.978 79.2634 372.329C78.363 360.442 78.1874 330.914 78.5674 320.278C78.7685 314.815 79.9595 310.195 81.8209 307.462C83.9123 304.381 107.192 287.439 113.063 282.267C116.665 279.128 116.898 278.605 116.984 275.524L116.694 69.4198C118.003 49.3973 125.238 46.4886 141.949 39.5153L221.286 8.82531C241.05 1.82332 245.641 -0.181811 267.379 0.776054C310.565 2.69498 499.262 22.5419 512.774 29.1991C518.732 32.1334 522.161 39.196 522.276 47.3315C523.148 100.078 522.365 147.508 522.19 197.841C522.161 201.474 521.957 204.555 521.637 207.317C520.737 214.929 520.098 220.191 518.904 229.083C518.528 231.931 518.847 234.431 520.622 234.984C529.977 237.947 533.467 239.138 539.102 241.638C542.765 243.266 544.422 245.386 544.074 250.096C544.217 257.65 544.074 264.566 544.074 267.094C544.045 270.409 544.336 271.28 546.631 272.88C552.181 276.715 558.72 281.363 564.882 287.963C575.112 298.918 577.465 317.082 572.088 330.799C563.4 353.06 532.972 358.609 522.305 391.013C513.502 417.664 514.664 455.21 492.142 470.874C468.163 487.499 449.884 489.766 417.684 493.396C415.33 493.687 416.754 498.396 415.911 504.76C415.187 510.513 372.262 571.951 362.003 585.201C358.574 589.592 354.621 591.625 345.757 589.154C225.21 555.734 136.196 529.783 3.44201 489.124C1.40814 488.486 0.0990601 486.918 0.0990601 485.114C0.884509 477.879 0.798301 471.34 1.40814 466.516C1.69869 463.987 2.19359 461.895 3.09398 460.471C19.1638 439.459 34.8855 419.261 51.3353 398.686C59.0652 390.87 59.2121 390.375 70.9811 391.304C148.37 408.597 304.403 442.25 413.587 468.636C414.925 468.987 416.058 469.887 416.058 472.125C416.116 475.526 416.173 478.141 416.464 483.428C416.55 485.175 416.116 485.405 417.655 485.318Z" fill="black"/>
</g>
<path fill-rule="evenodd" clip-rule="evenodd" d="M372.871 549.981C374.091 548.119 372.814 548.41 375.69 548.614C375.371 550.939 376.272 549.748 374.413 551.434L372.871 549.981Z" fill="black"/>
<path fill-rule="evenodd" clip-rule="evenodd" d="M458.951 439.082C457.936 437.396 456.598 439.082 459.008 436.32C461.014 438.878 459.561 438.006 458.951 439.082Z" fill="black"/>
<path fill-rule="evenodd" clip-rule="evenodd" d="M145.812 50.9076C182.955 50.4127 397.051 73.4014 434.018 81.4507C443.957 83.6314 447.792 80.9845 454.274 75.5502C466.333 65.4671 486.998 49.9178 501.701 39.6016C503.882 38.0626 504.635 35.387 502.049 34.6047C375.314 18.155 337.36 15.1026 256.277 8.47735C253.69 8.27301 250.376 8.33048 246.918 9.49588C212.132 21.2361 177.55 35.4476 145.959 47.4784C140.669 49.4835 136.949 50.9938 145.812 50.9076Z" fill="#FFE8CE"/>
<path fill-rule="evenodd" clip-rule="evenodd" d="M460.142 80.5499C450.465 89.3272 447.645 89.589 448.954 101.763C449.216 168.169 450.525 237.742 450.321 320.712C450.292 331.06 449.622 336.057 456.423 324.636C474.734 293.889 497.806 253.32 510.069 229.578C512.046 225.74 514.198 207.722 514.546 203.045C516.145 196.04 513.993 50.9072 513.993 50.6166C514.083 42.7973 512.978 39.7193 506.873 45.4154C496.382 55.1505 471.1 70.5817 460.142 80.5499Z" fill="#FFE8CE"/>
<path fill-rule="evenodd" clip-rule="evenodd" d="M137.706 58.8413C131.633 58.1995 126.575 60.0897 124.976 67.0949C124.104 129.49 123.756 214.466 126.109 278.604C126.342 285.115 129.018 290.839 136.339 293.512C230.762 311.095 332.245 333.5 426.403 347.507C444.944 350.269 441.572 340.067 441.253 325.131C440.615 261.778 441.049 199.702 441.167 137.945C441.224 122.456 441.458 111.965 440.615 104.787C438.986 91.214 433.408 89.4419 414.925 87.9604C314.719 73.9532 238.026 65.3803 137.706 58.8413Z" fill="#FFE8CE"/>
<path fill-rule="evenodd" clip-rule="evenodd" d="M445.844 353.788C443.434 355.441 439.714 356.141 435.295 356.198C423.379 356.374 142.415 302.056 131.514 299.904C129.481 299.499 127.622 298.48 125.936 297.318C123.232 295.46 121.46 293.86 118.902 292.117C116.431 290.431 115.445 291.45 113.002 293.017C108.353 295.984 101.872 300.952 98.3276 305.109C95.1602 308.771 95.3326 309.496 99.2279 310.281C109.602 312.373 118.816 314.087 128.29 315.977C226.838 335.652 323.873 354.337 427.217 374.739C438.552 376.54 449.711 382.993 456.975 371.077C478.044 336.552 516.959 283.11 532.011 251.721C533.843 247.943 528.323 246.347 523.323 244.834C514.341 242.161 512.626 241.347 510.216 246.315C497.023 273.461 472.086 311.21 452.469 347.102C450.959 349.863 448.52 351.984 445.844 353.788Z" fill="#FFE8CE"/>
<path fill-rule="evenodd" clip-rule="evenodd" d="M458.779 382.092C457.383 384.998 456.54 387.731 456.422 390.432C455.579 408.45 455.378 424.056 455.931 434.81C456.393 444.341 457.964 444.545 462.118 437.862C477.32 413.478 523.47 326.993 533.524 309.524C533.639 309.352 536.053 278.895 535.733 265.788C535.673 262.851 533.696 261.979 532.042 264.888C520.328 290.722 462.09 375.263 458.779 382.092Z" fill="#FFE8CE"/>
<path fill-rule="evenodd" clip-rule="evenodd" d="M93.7939 317.111C84.9592 316.53 86.7312 327.251 86.7025 330.971C86.6163 342.976 87.4592 355.792 87.1399 368.899C87.2261 374.535 88.0403 376.31 94.027 377.906C208.064 406.416 324.572 428.648 439.363 455.008C447.035 456.78 447.939 455.356 449.041 446.898C449.331 428.881 447.996 411.183 448.083 393.484C448.111 389.27 447.996 386.859 443.201 385.927C306.932 359.541 193.358 336.028 93.7939 317.111Z" fill="#FFE8CE"/>
<path fill-rule="evenodd" clip-rule="evenodd" d="M408.328 505.139C408.909 501.563 409.024 493.6 408.558 488.98C408.153 484.941 408.181 485.637 406.09 488.603C398.794 499.006 372.9 538.588 358.717 561.982C358.021 563.406 357.906 565.383 357.878 566.864C357.817 569.422 358.05 571.835 358.312 574.361C358.545 576.513 358.922 577.413 360.55 575.146C368.57 563.901 399.723 519.929 406.671 508.888C407.543 507.464 408.066 506.793 408.328 505.139ZM21.0826 465.848C128.871 498.453 231.982 527.777 335.645 556.257C355.697 561.634 349.333 564.163 371.767 529.316C381.444 513.393 394.318 496.1 402.485 480.379C404.286 476.889 404.085 473.287 394.26 471.745C295.192 448.178 174.992 421.208 69.3239 398.047C65.2274 397.175 62.3219 397.581 57.408 402.405C51.1308 408.567 25.7027 440.592 16.2869 455.908C10.8813 464.714 11.9286 463.086 21.0826 465.848ZM8.29508 472.444C7.53836 475.35 8.14821 478.693 7.82892 480.784C7.77144 481.336 7.97579 482.266 9.31361 482.617C114.717 513.422 225.616 549.399 347.676 581.191C349.215 581.599 350.029 581.162 350.001 578.403C350.001 575.903 349.796 572.937 349.768 570.031C349.739 568.754 349.739 567.94 348.11 567.474C218.004 531.177 107.016 497.176 11.3187 470.963C9.7191 470.525 8.78997 470.583 8.29508 472.444Z" fill="#FFE8CE"/>
<path fill-rule="evenodd" clip-rule="evenodd" d="M74.2632 407.897C106.348 414.931 318.816 463.348 373.51 476.455C380.11 478.022 380.486 484.041 378.915 487.323C373.452 496.624 354.273 524.958 347.849 534.169C341.98 542.656 340.147 542.656 327.535 538.994C232.416 511.241 143.083 487.643 40.524 459.047C35.061 457.505 33.4039 454.833 36.7756 448.555C41.7437 439.344 57.2068 421.413 64.7899 412.84C68.3372 408.801 68.366 407.811 74.2632 407.897Z" fill="black"/>
<path fill-rule="evenodd" clip-rule="evenodd" d="M393.621 109.231C409.286 113.417 412.948 119.433 412.948 133.877C412.948 188.543 413.963 246.956 412.539 290.811C411.843 311.938 397.37 315.249 376.271 313.506C304.984 307.637 202.687 292.321 164.385 276.133C158.137 273.489 152.904 270.003 151.54 262.212C141.891 206.822 148.079 133.992 150.87 103.915C152.121 92.4656 159.937 85.8691 168.948 85.8691C211.26 86.1597 352.529 98.9153 393.621 109.231Z" fill="black"/>
<path fill-rule="evenodd" clip-rule="evenodd" d="M156.304 111.384C154.388 143.788 149.679 218.272 159.851 259.422C160.49 262.04 162.933 264.597 166.825 267.094C201.611 289.326 352.296 305.572 377.929 307.2C399.203 308.538 406 304.467 406 286.711C408.909 233.47 407.338 166.978 406.262 133.731C406.262 123.153 399.318 116.499 390.336 115.132C332.855 106.326 197.106 91.6517 169.529 92.6096C160.375 92.9289 156.828 103.797 156.304 111.384Z" fill="#FFCD04"/>
<path fill-rule="evenodd" clip-rule="evenodd" d="M275.194 387.207C274.674 385.231 275.284 375.815 275.775 374.072C276.88 369.915 282.052 371.281 285.076 371.891C329.074 379.825 374.557 388.021 423.002 398.453C427.217 399.385 430.442 401.39 430.732 406.853C431.023 412.374 430.704 414.698 430.761 418.418C430.819 422.399 427.332 422.575 420.183 421.266C374.905 412.983 327.13 404.992 282.605 393.861C278.566 392.846 275.689 391.275 275.194 387.207Z" fill="black"/>
<path fill-rule="evenodd" clip-rule="evenodd" d="M240.817 368.548C206.174 361.08 172.377 354.716 131.924 346.782C129.395 346.287 130.876 340.128 133.258 340.62C161.071 345.706 187.429 351.488 241.746 362.213C245.494 362.912 245.031 369.305 240.817 368.548Z" fill="black"/>
<path fill-rule="evenodd" clip-rule="evenodd" d="M108.44 350.326C111.579 350.939 114.283 354.57 113.293 358.117C112.45 361.198 110.244 363.813 105.681 362.97C101.786 362.242 99.9245 358.96 100.247 355.965C100.595 352.478 103.558 349.397 108.44 350.326Z" fill="black"/>
<path fill-rule="evenodd" clip-rule="evenodd" d="M114.136 342.335C109.748 341.115 104.72 340.563 99.7516 338.966C97.8614 338.353 98.4425 333.995 100.709 334.49C103.238 335.013 113.439 337.047 116.201 337.772C118.497 338.382 119.251 343.759 114.136 342.335Z" fill="black"/>
<path fill-rule="evenodd" clip-rule="evenodd" d="M267.321 468.259C273.307 469.801 276.794 471.049 281.794 471.978C282.809 472.154 284.438 472.473 285.6 471.193C287.663 468.929 288.854 468.144 289.61 465.586C289.987 464.424 289.725 463.524 288.882 463.115C285.424 461.372 280.137 460.529 275.747 459.919C273.451 459.628 271.213 459.367 270.111 460.529C268.978 461.72 266.42 464.51 266.302 466.487C266.245 467.243 266.449 468.026 267.321 468.259ZM345.553 486.366C352.501 488.543 356.597 490.229 362.408 491.624C363.602 491.886 365.489 492.352 366.856 490.957C369.238 488.457 370.633 487.614 371.533 484.68C371.942 483.313 371.651 482.295 370.662 481.742C366.651 479.507 360.492 478.169 355.377 477.212C352.702 476.688 350.115 476.251 348.781 477.56C347.472 478.866 344.509 481.947 344.362 484.271C344.304 485.114 344.566 486.046 345.553 486.366ZM315.709 479.622C322.248 481.452 326.111 482.908 331.546 484.041C332.679 484.271 334.451 484.651 335.674 483.284C337.823 480.903 339.103 480.088 339.857 477.327C340.208 476.078 339.914 475.088 338.956 474.593C335.15 472.649 329.397 471.573 324.601 470.816C322.101 470.411 319.659 470.06 318.468 471.311C317.277 472.56 314.604 475.555 314.515 477.703C314.486 478.489 314.748 479.36 315.709 479.622ZM336.747 500.896C343.286 502.93 347.124 504.498 352.558 505.807C353.691 506.069 355.464 506.503 356.744 505.197C358.95 502.841 360.288 502.059 361.131 499.326C361.508 498.048 361.246 497.059 360.288 496.535C356.54 494.444 350.757 493.224 345.962 492.292C343.461 491.829 341.019 491.42 339.771 492.614C338.551 493.834 335.76 496.768 335.613 498.92C335.556 499.734 335.818 500.606 336.747 500.896ZM293.416 473.926C298.33 475.206 301.236 476.308 305.303 477.007C306.146 477.151 307.484 477.384 308.413 476.046C310.013 473.664 310.999 472.821 311.552 470.178C311.814 468.987 311.581 468.115 310.884 467.706C308.036 466.139 302.775 464.686 299.173 464.306C297.283 464.105 296.382 464.772 295.482 465.992C294.578 467.243 292.573 470.206 292.516 472.212C292.487 472.968 292.691 473.751 293.416 473.926ZM239.683 460.615C245.67 462.157 249.185 463.406 254.157 464.335C255.172 464.51 256.8 464.83 257.962 463.552C260.025 461.286 261.216 460.5 262.001 457.943C262.349 456.78 262.088 455.88 261.245 455.443C257.787 453.728 252.499 452.885 248.109 452.275C245.814 451.985 243.607 451.694 242.474 452.885C241.34 454.047 238.783 456.867 238.665 458.843C238.607 459.6 238.84 460.385 239.683 460.615ZM211.988 454.137C217.946 455.676 221.461 456.924 226.43 457.856C227.477 458.058 229.105 458.348 230.267 457.071C232.301 454.833 233.521 454.019 234.278 451.49C234.626 450.299 234.393 449.427 233.521 448.993C230.092 447.278 224.804 446.403 220.385 445.822C218.118 445.503 215.88 445.241 214.747 446.435C213.613 447.598 211.085 450.417 210.941 452.39C210.912 453.118 211.116 453.904 211.988 454.137ZM184.874 448.236C190.829 449.775 194.347 451.027 199.344 451.956C200.363 452.132 201.991 452.451 203.153 451.17C205.187 448.932 206.407 448.118 207.164 445.592C207.512 444.398 207.279 443.527 206.407 443.092C202.978 441.349 197.687 440.506 193.3 439.925C191.004 439.606 188.766 439.344 187.633 440.535C186.499 441.697 183.971 444.488 183.827 446.493C183.798 447.218 183.999 448.003 184.874 448.236ZM159.328 441.582C165.024 443.035 168.367 444.226 173.102 445.126C174.092 445.302 175.631 445.592 176.764 444.37C178.712 442.25 179.845 441.464 180.57 439.053C180.921 437.92 180.688 437.077 179.874 436.668C176.589 435.014 171.534 434.229 167.348 433.648C165.168 433.357 163.048 433.096 161.972 434.229C160.896 435.334 158.456 438.006 158.338 439.896C158.281 440.621 158.514 441.349 159.328 441.582ZM135.815 435.596C140.959 436.901 143.983 438.006 148.284 438.792C149.184 438.964 150.579 439.226 151.569 438.121C153.341 436.177 154.389 435.477 155.027 433.297C155.346 432.281 155.142 431.525 154.389 431.148C151.422 429.666 146.86 428.91 143.082 428.415C141.106 428.153 139.187 427.923 138.201 428.938C137.211 429.957 135.033 432.368 134.915 434.082C134.858 434.721 135.062 435.391 135.815 435.596ZM111.115 429.666C116.288 431.001 119.308 432.077 123.612 432.891C124.484 433.038 125.908 433.329 126.895 432.224C128.667 430.276 129.685 429.577 130.352 427.399C130.672 426.381 130.442 425.595 129.714 425.247C126.751 423.737 122.188 423.009 118.379 422.489C116.403 422.227 114.487 422.023 113.526 423.041C112.539 424.028 110.359 426.47 110.244 428.185C110.183 428.795 110.387 429.491 111.115 429.666ZM90.6554 423.737C95.1605 424.899 97.833 425.857 101.581 426.557C102.367 426.7 103.587 426.933 104.487 425.975C106.029 424.261 106.929 423.651 107.511 421.732C107.801 420.832 107.597 420.193 106.958 419.842C104.343 418.536 100.333 417.894 97.0188 417.46C95.2755 417.227 93.5896 417.023 92.7467 417.894C91.875 418.798 89.9593 420.918 89.8699 422.428C89.8124 422.981 89.988 423.59 90.6554 423.737ZM71.067 418.041C74.8761 419.028 77.1111 419.813 80.2817 420.423C80.949 420.541 81.9963 420.742 82.721 419.931C84.0301 418.475 84.8124 417.984 85.3073 416.355C85.5116 415.599 85.3647 415.017 84.8124 414.756C82.6061 413.654 79.2344 413.102 76.4438 412.722C74.9623 412.521 73.5383 412.374 72.8391 413.102C72.1143 413.855 70.4859 415.659 70.3997 416.936C70.371 417.403 70.5146 417.894 71.067 418.041ZM259.3 482.557C265.258 484.127 268.774 485.433 273.742 486.394C274.789 486.599 276.417 486.918 277.58 485.666C279.613 483.428 280.804 482.646 281.59 480.088C281.938 478.926 281.676 478.023 280.833 477.588C277.375 475.845 272.117 474.945 267.698 474.303C265.431 473.984 263.192 473.693 262.059 474.855C260.925 476.017 258.397 478.808 258.253 480.784C258.196 481.512 258.429 482.327 259.3 482.557ZM307.685 494.357C314.196 496.244 318.062 497.758 323.525 498.92C324.63 499.182 326.402 499.559 327.622 498.221C329.774 495.868 331.079 495.025 331.807 492.292C332.155 491.043 331.865 490.057 330.936 489.562C327.13 487.557 321.344 486.452 316.552 485.638C314.052 485.203 311.609 484.852 310.418 486.104C309.256 487.323 306.552 490.286 306.494 492.438C306.466 493.224 306.727 494.096 307.685 494.357ZM285.367 488.457C290.278 489.795 293.186 490.928 297.283 491.653C298.126 491.8 299.464 492.062 300.364 490.724C301.989 488.371 302.95 487.499 303.531 484.913C303.793 483.69 303.56 482.79 302.832 482.413C299.984 480.784 294.754 479.303 291.121 478.894C289.262 478.664 288.333 479.332 287.43 480.551C286.558 481.803 284.553 484.737 284.495 486.742C284.467 487.499 284.671 488.281 285.367 488.457ZM231.663 474.654C237.621 476.222 241.136 477.531 246.104 478.489C247.151 478.693 248.78 479.012 249.942 477.764C251.976 475.526 253.195 474.74 253.952 472.183C254.3 471.021 254.038 470.12 253.195 469.683C249.738 467.939 244.479 467.039 240.06 466.401C237.793 466.081 235.555 465.787 234.421 466.953C233.288 468.115 230.762 470.902 230.615 472.879C230.558 473.636 230.791 474.421 231.663 474.654ZM203.936 467.911C209.922 469.51 213.441 470.816 218.409 471.774C219.428 471.978 221.053 472.298 222.218 471.021C224.252 468.811 225.472 468.026 226.228 465.468C226.605 464.306 226.343 463.406 225.5 462.971C222.043 461.225 216.752 460.324 212.365 459.686C210.069 459.338 207.831 459.076 206.726 460.238C205.593 461.4 203.035 464.191 202.92 466.167C202.863 466.892 203.093 467.678 203.936 467.911ZM176.822 461.748C182.808 463.348 186.327 464.657 191.295 465.615C192.314 465.819 193.939 466.139 195.101 464.887C197.167 462.649 198.358 461.867 199.111 459.309C199.491 458.147 199.229 457.247 198.386 456.809C194.929 455.066 189.638 454.165 185.251 453.524C182.955 453.204 180.746 452.914 179.612 454.076C178.479 455.238 175.921 458.029 175.806 460.005C175.746 460.733 175.979 461.547 176.822 461.748ZM151.279 454.861C156.975 456.404 160.343 457.623 165.081 458.552C166.071 458.728 167.61 459.047 168.715 457.828C170.663 455.704 171.796 454.948 172.55 452.537C172.869 451.432 172.639 450.561 171.825 450.155C168.539 448.469 163.514 447.626 159.328 447.017C157.118 446.697 154.998 446.435 153.922 447.537C152.846 448.67 150.436 451.317 150.289 453.204C150.26 453.904 150.464 454.657 151.279 454.861ZM127.766 448.67C132.91 450.037 135.962 451.142 140.234 451.985C141.135 452.16 142.53 452.451 143.549 451.346C145.292 449.427 146.336 448.76 147.007 446.55C147.326 445.532 147.093 444.778 146.365 444.398C143.373 442.888 138.839 442.103 135.033 441.55C133.057 441.26 131.138 441.03 130.151 442.045C129.19 443.035 126.981 445.446 126.895 447.131C126.837 447.77 127.013 448.469 127.766 448.67ZM103.095 442.54C108.239 443.907 111.259 445.011 115.56 445.854C116.46 446.027 117.856 446.317 118.845 445.213C120.617 443.297 121.665 442.598 122.332 440.417C122.623 439.401 122.418 438.645 121.693 438.268C118.698 436.729 114.136 435.972 110.359 435.42C108.382 435.129 106.463 434.896 105.477 435.886C104.519 436.901 102.309 439.315 102.191 441.001C102.163 441.64 102.338 442.336 103.095 442.54ZM81.7344 435.886C86.2683 437.106 88.912 438.064 92.6892 438.792C93.4747 438.964 94.6944 439.197 95.566 438.239C97.1082 436.553 98.0373 435.972 98.6184 434.025C98.8802 433.153 98.6759 432.486 98.0373 432.134C95.4223 430.8 91.4408 430.129 88.0979 429.638C86.3833 429.405 84.6974 429.2 83.8258 430.072C82.9829 430.944 81.0639 433.067 80.949 434.548C80.9203 435.101 81.0927 435.711 81.7344 435.886ZM61.1563 430.19C65.4603 431.324 67.9859 432.281 71.5906 432.949C72.3474 433.096 73.5096 433.357 74.3525 432.425C75.8053 430.829 76.7056 430.248 77.2293 428.415C77.4911 427.572 77.3155 426.933 76.7056 426.614C74.2056 425.337 70.3997 424.695 67.2324 424.232C65.5753 423.999 63.9756 423.795 63.1327 424.638C62.3217 425.481 60.489 427.486 60.4028 428.91C60.374 429.433 60.5177 430.014 61.1563 430.19ZM316.753 512.694C323.263 514.728 336.166 518.767 341.6 520.076C342.734 520.338 344.509 520.772 345.786 519.437C348.024 517.113 349.333 516.299 350.173 513.566C350.553 512.289 350.291 511.299 349.362 510.775C345.582 508.713 330.76 505.022 325.968 504.121C323.468 503.626 321.025 503.221 319.805 504.441C318.557 505.66 315.766 508.569 315.62 510.746C315.562 511.532 315.824 512.404 316.753 512.694ZM291.034 504.878C295.568 506.069 302.398 508.451 306.146 509.121C306.932 509.236 308.151 509.469 308.994 508.246C310.476 506.098 311.347 505.312 311.871 502.902C312.133 501.797 311.9 500.983 311.261 500.635C308.646 499.153 299.665 496.477 296.325 496.101C294.61 495.868 293.767 496.506 292.953 497.611C292.139 498.744 290.278 501.449 290.249 503.307C290.22 503.974 290.396 504.702 291.034 504.878ZM264.24 498.25C268.627 499.239 275.226 501.273 278.857 501.768C279.613 501.883 280.804 502.059 281.619 500.836C283.043 498.687 283.914 497.902 284.409 495.577C284.642 494.472 284.438 493.716 283.799 493.368C281.27 492.062 272.579 489.795 269.383 489.562C267.698 489.415 266.883 490.057 266.101 491.161C265.316 492.292 263.512 494.967 263.483 496.768C263.454 497.439 263.63 498.106 264.24 498.25ZM239.626 491.567C243.837 492.525 250.261 494.472 253.748 494.967C254.476 495.082 255.638 495.229 256.423 494.067C257.816 491.972 258.63 491.219 259.125 488.952C259.358 487.905 259.153 487.18 258.544 486.857C256.101 485.551 247.675 483.399 244.565 483.138C242.965 483.023 242.183 483.633 241.398 484.709C240.641 485.785 238.926 488.399 238.869 490.114C238.84 490.753 239.013 491.42 239.626 491.567ZM216.027 485.58C220.242 486.538 225.152 488.138 228.639 488.633C229.367 488.719 230.529 488.894 231.311 487.729C232.707 485.638 233.521 484.881 234.016 482.617C234.249 481.57 234.045 480.813 233.435 480.494C230.992 479.217 224.076 477.413 220.995 477.151C219.37 477.036 218.585 477.617 217.828 478.722C217.042 479.798 215.328 482.413 215.27 484.127C215.242 484.766 215.446 485.465 216.027 485.58ZM192.834 479.507C197.049 480.436 201.931 482.065 205.449 482.528C206.174 482.646 207.307 482.818 208.093 481.627C209.488 479.536 210.331 478.779 210.794 476.541C211.027 475.497 210.826 474.74 210.213 474.421C207.774 473.112 200.886 471.311 197.777 471.078C196.177 470.934 195.363 471.544 194.609 472.649C193.853 473.722 192.109 476.308 192.08 478.055C192.052 478.693 192.224 479.36 192.834 479.507ZM169.791 473.316C174.002 474.274 178.916 475.874 182.403 476.369C183.128 476.455 184.29 476.631 185.075 475.436C186.471 473.374 187.285 472.617 187.78 470.353C187.981 469.306 187.808 468.549 187.199 468.23C184.756 466.953 177.84 465.149 174.759 464.887C173.131 464.772 172.348 465.382 171.563 466.458C170.806 467.534 169.092 470.149 169.034 471.864C169.034 472.502 169.21 473.198 169.791 473.316ZM147.15 467.416C150.899 468.259 155.26 469.683 158.399 470.12C159.037 470.206 160.053 470.353 160.781 469.306C162 467.445 162.757 466.777 163.191 464.743C163.367 463.814 163.223 463.144 162.671 462.853C160.49 461.72 154.328 460.123 151.569 459.89C150.145 459.772 149.417 460.324 148.75 461.286C148.051 462.243 146.512 464.568 146.483 466.11C146.454 466.691 146.627 467.301 147.15 467.416ZM127.099 461.953C130.847 462.796 135.234 464.249 138.344 464.657C138.986 464.743 140.001 464.916 140.729 463.872C141.949 462.01 142.706 461.314 143.14 459.309C143.316 458.377 143.169 457.709 142.616 457.419C140.439 456.257 134.277 454.657 131.515 454.456C130.091 454.309 129.366 454.861 128.695 455.822C127.999 456.809 126.46 459.134 126.428 460.676C126.4 461.225 126.575 461.838 127.099 461.953ZM105.882 456.113C109.634 456.953 115.474 458.728 118.584 459.162C119.251 459.252 120.269 459.395 120.965 458.348C122.217 456.519 122.971 455.822 123.379 453.814C123.58 452.885 123.408 452.189 122.884 451.927C120.704 450.765 113.063 448.817 110.272 448.584C108.848 448.469 108.149 449.022 107.453 449.98C106.786 450.937 105.244 453.265 105.186 454.804C105.186 455.385 105.33 455.995 105.882 456.113ZM84.2919 450.474C87.8073 451.289 93.2991 452.943 96.2365 453.351C96.8464 453.437 97.8042 453.584 98.4715 452.594C99.605 450.851 100.304 450.213 100.71 448.322C100.914 447.451 100.738 446.841 100.247 446.55C98.181 445.503 91.0321 443.645 88.4459 443.44C87.0793 443.326 86.4407 443.849 85.8022 444.75C85.1636 445.65 83.7108 447.828 83.6789 449.283C83.6502 449.804 83.797 450.385 84.2919 450.474ZM54.2405 441.611C57.7591 442.393 73.4808 447.045 76.4151 447.451C77.0249 447.508 77.9828 447.684 78.6533 446.697C79.8155 444.951 80.5116 444.312 80.8915 442.425C81.0927 441.55 80.9203 440.912 80.4254 440.65C78.3915 439.577 60.9552 434.781 58.3689 434.577C57.0311 434.462 56.3638 434.983 55.722 435.886C55.0834 436.787 53.6307 438.964 53.6019 440.417C53.5732 440.94 53.7456 441.493 54.2405 441.611ZM309.808 526.615C316.319 528.62 326.169 531.874 331.603 533.183C332.708 533.445 334.512 533.879 335.76 532.544C337.998 530.22 339.333 529.406 340.147 526.673C340.556 525.395 340.265 524.406 339.333 523.911C335.585 521.819 323.816 518.943 319.02 518.013C316.52 517.547 314.052 517.142 312.829 518.333C311.609 519.552 308.819 522.487 308.675 524.639C308.618 525.424 308.879 526.325 309.808 526.615ZM284.09 518.796C288.592 519.99 295.45 522.343 299.202 523.01C299.984 523.157 301.207 523.358 302.05 522.139C303.531 519.99 304.403 519.204 304.927 516.823C305.16 515.718 304.955 514.904 304.317 514.524C301.699 513.042 292.691 510.398 289.377 509.993C287.663 509.789 286.82 510.398 286.006 511.532C285.191 512.665 283.333 515.367 283.276 517.199C283.276 517.895 283.448 518.623 284.09 518.796ZM257.295 512.142C261.653 513.16 268.279 515.165 271.912 515.689C272.669 515.775 273.831 515.948 274.674 514.728C276.098 512.579 276.941 511.794 277.461 509.469C277.694 508.393 277.49 507.608 276.852 507.289C274.323 505.951 265.635 503.716 262.41 503.454C260.753 503.307 259.939 503.946 259.153 505.079C258.368 506.184 256.567 508.888 256.51 510.66C256.51 511.328 256.682 512.027 257.295 512.142ZM232.678 505.459C236.893 506.417 243.285 508.393 246.803 508.888C247.528 508.974 248.69 509.15 249.476 507.956C250.842 505.893 251.685 505.108 252.18 502.873C252.41 501.826 252.209 501.069 251.599 500.75C249.156 499.472 240.727 497.292 237.621 497.059C236.021 496.915 235.207 497.525 234.45 498.601C233.697 499.702 231.982 502.292 231.924 504.035C231.893 504.674 232.068 505.341 232.678 505.459ZM106.087 470.934C110.301 471.892 219.252 502.378 222.767 502.841C223.495 502.959 224.629 503.135 225.414 501.941C226.809 499.878 227.652 499.092 228.115 496.826C228.348 495.781 228.144 495.025 227.534 494.734C225.095 493.425 114.136 462.767 111.026 462.534C109.43 462.39 108.644 463 107.859 464.073C107.105 465.178 105.391 467.764 105.33 469.51C105.301 470.12 105.477 470.816 106.087 470.934ZM85.9459 463.524C89.6081 464.51 95.1892 466.429 98.2416 466.982C98.8515 467.068 99.8668 467.272 100.537 466.254C101.757 464.51 102.482 463.872 102.89 461.924C103.095 461.024 102.919 460.353 102.396 460.063C100.276 458.872 92.951 456.694 90.2499 456.372C88.8546 456.199 88.1553 456.694 87.488 457.623C86.8175 458.524 85.336 460.733 85.2785 462.243C85.2498 462.796 85.4254 463.377 85.9459 463.524ZM64.1225 458.118C67.6666 458.929 73.0434 460.586 76.0096 460.995C76.6194 461.081 77.5773 461.225 78.2446 460.238C79.4068 458.495 80.1061 457.828 80.5116 455.937C80.7159 455.066 80.5403 454.427 80.0486 454.165C77.9828 453.089 70.8946 451.26 68.2764 451.056C66.9418 450.937 66.2713 451.432 65.604 452.361C64.9654 453.265 63.5414 455.443 63.4839 456.924C63.4839 457.448 63.6276 458.029 64.1225 458.118ZM44.068 452.684C47.5003 453.466 52.7015 455.066 55.5783 455.443C56.1594 455.532 57.0886 455.676 57.7271 454.718C58.8606 453.032 59.5311 452.39 59.9366 450.561C60.1122 449.718 59.9654 449.108 59.4737 448.846C57.4685 447.799 50.6389 446.027 48.1102 445.822C46.7724 445.707 46.1338 446.202 45.5239 447.103C44.8822 447.974 43.4869 450.094 43.4582 451.49C43.4294 452.042 43.5763 452.566 44.068 452.684Z" fill="#FFE8CE"/>
<path fill-rule="evenodd" clip-rule="evenodd" d="M306.232 133.121C297.458 132.367 290.801 145.385 291.354 162.183C291.906 178.98 299.432 193.192 308.209 193.949C316.957 194.731 323.611 181.713 323.088 164.916C322.538 148.118 314.981 133.878 306.232 133.121Z" fill="black"/>
<path fill-rule="evenodd" clip-rule="evenodd" d="M243.808 127.715C235.034 126.962 228.377 139.979 228.929 156.777C229.482 173.575 237.007 187.786 245.785 188.543C254.533 189.328 261.187 176.308 260.664 159.51C260.114 142.712 252.557 128.472 243.808 127.715Z" fill="black"/>
<path d="M199.986 199.645C204.721 216.906 214.894 232.512 228.463 244.224C242.269 256.111 259.562 264.017 278.132 265.642C296.702 267.241 313.557 262.302 326.664 252.711C339.537 243.295 348.781 229.403 352.411 212.838C353.72 212.634 354.882 212.142 355.869 211.414C357.44 210.28 358.545 208.566 358.921 206.532C359.183 205.137 358.225 203.626 356.773 203.189C355.32 202.755 353.896 203.537 353.634 204.961C353.487 205.804 353.021 206.503 352.382 206.966C351.772 207.404 350.958 207.665 350.058 207.579C349.158 207.49 348.315 207.113 347.647 206.561C346.977 205.98 346.485 205.194 346.281 204.322C345.904 202.841 344.448 201.822 342.995 201.998C341.571 202.174 340.7 203.537 341.048 204.99C341.571 207.084 342.794 209.003 344.448 210.427C345.176 211.066 346.048 211.618 346.948 212.052C343.433 227.049 334.946 239.661 323.177 248.263C310.971 257.187 295.278 261.778 277.956 260.297C260.635 258.783 244.536 251.43 231.691 240.361C219.309 229.664 209.954 215.482 205.449 199.789C206.321 199.527 207.135 199.121 207.86 198.598C209.402 197.464 210.503 195.75 210.912 193.716C211.174 192.32 210.184 190.81 208.731 190.373C207.279 189.938 205.883 190.721 205.621 192.145C205.449 192.988 205.012 193.658 204.373 194.15C203.734 194.587 202.92 194.849 202.02 194.763C201.119 194.674 200.277 194.297 199.635 193.744C198.967 193.163 198.444 192.378 198.239 191.506C197.863 190.025 196.41 189.006 194.986 189.182C193.533 189.357 192.662 190.692 193.01 192.174C193.533 194.268 194.753 196.187 196.41 197.611C197.457 198.511 198.677 199.207 199.986 199.645Z" fill="black"/>
<path fill-rule="evenodd" clip-rule="evenodd" d="M302.631 139.749C300.479 139.545 298.851 142.741 298.969 146.869C299.113 150.966 300.945 154.452 303.094 154.628C305.246 154.829 306.875 151.633 306.756 147.536C306.613 143.408 304.78 139.921 302.631 139.749Z" fill="#FFE8CE"/>
<path fill-rule="evenodd" clip-rule="evenodd" d="M239.188 134.255C237.04 134.053 235.411 137.25 235.555 141.375C235.673 145.474 237.531 148.961 239.683 149.133C241.803 149.338 243.461 146.142 243.317 142.045C243.17 137.917 241.34 134.43 239.188 134.255Z" fill="#FFE8CE"/>
<path fill-rule="evenodd" clip-rule="evenodd" d="M422.45 405.196C403.066 402.23 296.644 379.739 284 377.906C282.723 377.734 282.809 377.558 282.49 378.836C281.966 380.754 281.733 383.922 282.375 385.984C282.605 386.77 282.985 387.38 283.508 387.731C285.89 389.27 393.797 411.358 422.45 415.921C424.251 415.774 424.717 405.544 422.45 405.196Z" fill="#FFE8CE"/>
</svg>
