<svg width="556" height="560" viewBox="0 0 556 560" fill="none" xmlns="http://www.w3.org/2000/svg">
<mask id="mask0_86_3345" style="mask-type:luminance" maskUnits="userSpaceOnUse" x="0" y="0" width="556" height="560">
<path d="M0.537109 0.361328H555.044V559.329H0.537109V0.361328Z" fill="white"/>
</mask>
<g mask="url(#mask0_86_3345)">
<path d="M533.908 308.144C534.685 296.21 533.288 284.154 529.426 272.676C521.729 249.831 505.886 230.507 484.757 218.784C479.757 216.012 474.512 213.635 469.124 211.632C481.705 116.551 419.108 25.9179 323.727 5.39503C275.114 -5.06736 225.336 4.02593 183.568 30.9925C141.8 57.9658 113.035 99.5838 102.573 148.19C101.994 150.874 101.497 153.558 101.04 156.248C94.2154 157.897 87.5674 160.219 81.0216 163.291C70.675 168.148 61.0028 175.422 53.3331 183.889C44.8051 193.303 38.6476 203.704 33.9341 215.426C32.3947 219.254 31.1618 223.239 30.1878 227.298C11.7151 233.633 -0.681732 247.024 0.73505 261.131C1.29359 266.716 3.95005 271.798 8.19359 276.062C6.13653 294.718 4.06585 331.732 17.3209 348.195C21.1285 352.929 24.8885 357.268 28.4577 361.205C30.7122 366.967 33.5322 372.634 37.0401 377.402C44.6621 387.776 54.6136 394.05 61.7656 397.544C70.0347 407.366 79.4277 415.131 87.4039 416.936C88.6096 417.209 89.7743 417.338 90.8914 417.338C94.7399 417.338 98.023 415.73 100.509 412.597C110.658 399.778 104.29 391.339 98.132 383.172C93.5615 377.123 89.243 371.408 90.6802 363.623C91.7565 357.772 91.9063 352.411 91.5862 347.711C93.9702 350.586 96.9263 353.624 100.966 356.546C109.854 362.983 116.475 366.014 121.822 366.014C123.001 366.014 124.118 365.871 125.18 365.578C129.165 364.495 132.203 361.45 134.471 356.266C138.851 346.26 133.177 338.352 126.611 329.198C120.569 320.779 113.723 311.236 111.789 297.232C109.568 281.109 102.076 270.769 95.3597 264.537C97.5053 260.3 98.4181 255.845 97.9685 251.37C96.7424 239.157 85.4763 229.526 69.9121 225.514C71.9964 221.155 74.4417 216.986 77.2617 213.063C80.4154 209.262 83.8892 205.774 87.6832 202.627C91.1366 200.155 94.7739 197.996 98.5747 196.116C100.053 228.606 110.059 260.266 128.177 288.322C143.728 312.394 164.176 332.12 187.995 346.54C184.338 361.15 185.216 377.212 190.945 391.141C197.082 406.072 206.516 419.259 219.008 429.578C224.777 434.353 230.867 438.569 237.235 442.281C235.928 444.08 234.586 445.851 233.244 447.622C228.251 453.956 223.013 460.08 217.55 466.006C210.991 461.871 203.825 459.998 197.62 460.747C197.64 460.339 197.675 459.923 197.709 459.528C197.756 459.017 197.79 458.513 197.804 458.03C197.858 457.655 197.886 457.423 197.892 457.376C197.913 457.144 197.879 456.933 197.811 456.729C197.416 421.977 175.278 403.231 154.435 403.231C144.252 403.231 134.566 406.528 126.42 412.767L126.141 412.972C125.003 413.864 123.975 414.777 123.028 415.703C121.931 416.425 120.869 417.195 119.908 418.101C118.655 419.272 117.579 420.75 116.639 422.419C116.019 422.896 115.399 423.366 114.827 423.904C107.218 431.015 105.107 447.921 110.202 460.829C111.741 464.739 114.391 469.738 117.19 475.031C121.672 483.491 126.747 493.088 129.049 501.33C138.17 533.977 146.943 547.695 152.705 553.451C154.905 555.651 158.802 556.836 162.807 557.477C165.851 558.267 169.237 558.689 172.86 558.689C173.548 558.689 174.257 558.669 174.958 558.635C175.871 558.716 176.804 558.771 177.758 558.771C179.508 558.771 181.967 558.192 184.501 557.402C187.668 556.727 190.877 555.801 194.024 554.575C209.281 548.649 216.692 539.515 220.241 531.28C225.097 528.099 229.484 523.208 232.563 517.31C235.546 511.595 237.045 505.519 237.024 499.525C250.136 486.168 261.981 471.761 272.491 456.463C280.618 458.37 288.866 459.399 297.163 459.589C298.395 462.246 299.867 464.718 301.583 466.959C294.465 467.784 287.633 471.019 281.946 476.38C274.542 483.355 269.944 493.115 269.944 501.854C269.944 509.953 271.177 516.424 273.629 521.471C273.411 526.778 274.208 533.861 279.003 538.65C287.49 547.137 300.105 548.792 319.027 548.792C340.143 548.792 377.04 544.855 386.937 518.474C389.383 511.949 388.967 505.138 388.525 497.931C388.095 490.902 387.646 483.627 390.112 476.632C400.22 447.969 384.288 421.057 374.902 413.701C367.273 405.827 356.872 400.65 345.435 400.037C340.408 399.771 335.497 400.357 330.818 401.672C328.407 400.881 325.9 400.418 323.298 400.418C311.289 400.418 300.916 409.43 295.957 422.453C294.983 422.406 294.009 422.385 293.035 422.31C299.812 409.294 305.738 395.8 310.779 381.905C312.086 378.302 313.299 374.671 314.477 371.027C380.705 360.156 437.819 313.756 460.46 248.203C465.419 250.539 470.16 253.284 474.601 256.499C478.381 259.639 481.848 263.106 484.988 266.887C487.842 270.865 490.308 275.081 492.372 279.522C494.225 284.392 495.587 289.398 496.466 294.527C496.493 294.78 496.5 295.025 496.52 295.27C474.771 293.765 456.224 302.374 452.048 317.434C449.814 325.506 452.096 334.313 457.926 342.289C453.152 345.436 433.807 359.597 434.645 382.463C434.529 395.242 432.411 397.074 422.221 405.874L421.601 406.406C415.164 411.977 411.67 420.158 412.48 427.753C413.141 433.91 416.581 438.985 422.166 442.036C430.51 446.6 440.258 436.226 448.84 427.072C454.534 420.996 460.998 414.123 464.377 415.186C464.581 415.247 464.629 415.329 464.677 415.438C464.969 416.16 464.731 417.515 464.145 419.266C457.804 422.978 445.264 431.506 441.688 442.772C440.802 445.558 440.537 448.337 440.864 451.075C437.792 454.44 435.183 458.275 433.882 462.491C432.22 467.865 432.853 473.178 435.762 478.28C436.647 479.833 437.764 481.107 439.059 482.163C439.352 487.659 441.518 492.203 446.544 495.07C448.772 496.344 451.088 496.977 453.465 496.977C455.141 496.977 456.85 496.664 458.58 496.037C466.577 493.136 474.117 483.784 480.248 473.73C480.438 473.771 480.636 473.778 480.833 473.744C481.405 473.648 495.083 471.026 517.901 442.418C540.706 413.823 538.928 363.814 538.84 361.695C538.84 361.688 538.833 361.675 538.833 361.661C545.889 357.751 550.719 352.111 552.612 345.273C555.126 336.207 552.156 326.262 544.255 317.264C541.326 313.92 537.832 310.861 533.908 308.144ZM245.886 403.654C241.145 399.771 236.772 395.473 232.876 390.732C230.247 387.061 227.945 383.185 226.031 379.098C224.811 375.802 223.871 372.423 223.238 368.97C223.074 366.981 223.02 364.985 223.068 362.989C230.322 365.516 237.76 367.662 245.389 369.304C255.102 371.395 264.795 372.675 274.412 373.2C273.009 377.041 271.524 380.849 269.971 384.636C266.102 393.6 261.804 402.36 257.104 410.901C253.222 408.721 249.482 406.297 245.886 403.654Z" fill="#FFCD04"/>
</g>
<path d="M371.011 414.245C370.63 413.891 370.262 413.53 369.867 413.189C363.124 407.372 354.562 403.633 345.271 403.136C341.967 402.952 338.725 403.197 335.565 403.762C344.297 408.728 350.87 418.809 352.995 431.042C353.111 431.689 353.199 432.343 353.281 432.997C353.37 433.664 353.458 434.325 353.52 435.006C353.663 436.505 353.751 438.031 353.751 439.584C353.751 458.376 343.582 474.179 329.393 477.864C330.728 479.172 332.138 480.636 333.664 482.298C334.243 482.932 334.195 483.913 333.569 484.492C332.935 485.07 331.955 485.03 331.376 484.396C330.034 482.932 328.794 481.651 327.622 480.48C326.117 478.967 324.728 477.673 323.467 476.59C321.826 475.998 319.817 475.337 317.739 474.676C317.296 474.533 316.86 474.397 316.418 474.261C315.866 474.09 315.314 473.92 314.769 473.75C314.211 473.58 313.659 473.409 313.114 473.246C310.478 472.442 308.101 471.74 306.67 471.318L304.954 470.814L304.675 470.535C304.477 470.337 304.3 470.106 304.103 469.901C296.807 470.201 289.819 473.219 284.07 478.64C277.272 485.043 273.042 493.939 273.042 501.854C273.042 506.813 273.54 511.07 274.48 514.734C274.772 515.879 275.113 516.962 275.494 517.983C275.883 518.998 276.312 519.966 276.789 520.865C277.769 522.711 278.921 524.338 280.296 525.708C288.198 533.554 302.447 533.459 318.945 533.343C320.968 533.33 323.032 533.316 325.116 533.316C345.482 533.316 364.343 526.532 373.171 516.029C377.435 510.954 379.076 505.369 378.041 499.436C376.1 488.333 378.892 475.78 381.358 464.697C383.027 457.198 384.607 450.121 384.566 444.379C384.498 433.549 380.023 423.495 372.864 416.016C372.272 415.403 371.638 414.824 371.011 414.245ZM284.179 510.498C284.029 510.545 283.879 510.566 283.729 510.566C283.294 510.566 282.885 510.368 282.599 510.048C282.449 509.885 282.319 509.694 282.251 509.469C282.245 509.449 282.136 509.067 281.993 508.427C281.89 507.937 281.768 507.296 281.659 506.52C280.882 500.948 280.801 488.715 292.782 480.657C293.497 480.18 294.458 480.371 294.934 481.079C295.411 481.787 295.227 482.755 294.512 483.231C285.351 489.396 284.152 498.128 284.445 503.57C284.486 504.32 284.547 505.028 284.629 505.641C284.731 506.418 284.853 507.051 284.962 507.541C285.085 508.114 285.194 508.481 285.214 508.57C285.466 509.387 285.003 510.252 284.179 510.498ZM289.111 522.929C288.13 522.929 287.333 522.132 287.333 521.151C287.333 520.17 288.13 519.373 289.111 519.373C290.091 519.373 290.888 520.17 290.888 521.151C290.888 522.132 290.091 522.929 289.111 522.929ZM219.763 507.18C220.083 510.028 220.281 513.004 220.281 516.185C220.281 521.103 219.327 525.381 217.801 529.154C217.474 529.965 217.134 530.755 216.759 531.511C216.385 532.26 216.01 533.016 215.588 533.718C210.786 541.776 203.245 546.775 197.449 549.657C198.402 546.346 199.295 540.046 197.149 530.21C196.938 529.229 196.693 528.207 196.413 527.158C196.066 525.837 195.664 524.461 195.208 523.024C193.335 517.173 190.481 510.368 186.271 502.535C185.352 500.819 184.378 499.068 183.322 497.249C182.586 495.996 181.823 494.715 181.026 493.414C180.229 492.114 179.398 490.799 178.533 489.45C173.111 481.031 173.248 473.743 173.411 465.304C173.581 456.197 173.779 445.877 167.363 431.716C162.826 421.704 153.692 414.443 142.93 412.297C139.64 411.643 136.405 411.527 133.346 411.922C139.769 408.271 146.949 406.337 154.435 406.337C173.956 406.337 194.711 424.312 194.724 457.634C194.615 458.315 194.37 459.637 193.866 461.523C193.716 462.102 193.539 462.729 193.335 463.41C193.151 464.016 192.94 464.677 192.715 465.358C191.788 468.137 190.467 471.536 188.58 475.487C188.212 476.256 188.539 477.183 189.309 477.551C189.527 477.66 189.752 477.707 189.977 477.707C190.556 477.707 191.114 477.38 191.38 476.822C193.655 472.061 195.14 468.069 196.114 464.956C196.134 464.97 196.148 464.99 196.168 465.004C197.749 466.107 199.526 467.49 201.372 469.159C201.59 469.363 201.808 469.561 202.026 469.758C203.947 471.557 205.929 473.675 207.85 476.168C213.313 483.252 218.231 493.319 219.763 507.18Z" fill="#4780C3"/>
<path d="M294.812 191.075C294.036 190.21 293.212 189.359 292.279 188.521C286.21 183.044 277.6 178.801 267.894 176.417C267.212 176.253 266.545 176.07 265.864 175.92C261.709 175.027 257.636 174.551 253.733 174.421C253.644 174.414 253.549 174.414 253.46 174.414C252.854 174.394 252.241 174.36 251.648 174.36C251.628 174.36 251.614 174.36 251.594 174.36C251.444 174.36 251.301 174.367 251.151 174.373C250.674 174.373 250.204 174.387 249.734 174.401C249.312 174.414 248.883 174.428 248.46 174.448C235.451 175.136 225.288 180.102 222.652 187.908C222.502 188.357 222.359 188.807 222.257 189.277C222.182 189.645 222.161 190.019 222.121 190.387C222.039 191.055 222.005 191.729 222.032 192.41C222.059 193.057 222.127 193.711 222.25 194.372C222.27 194.481 222.291 194.59 222.318 194.692C222.379 194.999 222.427 195.305 222.509 195.618C222.563 195.809 222.631 196 222.686 196.191C222.843 196.667 223.02 197.151 223.224 197.635C223.939 199.351 224.968 201.074 226.31 202.77C227.379 204.126 228.632 205.475 230.09 206.789C236.581 212.647 245.961 217.122 256.505 219.39C267.042 221.652 277.436 221.434 285.767 218.771C293.798 216.196 298.892 211.673 300.105 206.033C300.486 204.276 300.432 202.471 300.057 200.645C299.397 197.451 297.639 194.208 294.812 191.075ZM260.748 190.006C259.965 194.658 254.005 197.539 247.432 196.436C243.1 195.714 239.599 193.439 237.923 190.646C237.664 190.21 237.44 189.761 237.269 189.297C237.194 189.086 237.119 188.868 237.065 188.65C236.976 188.323 236.922 188.003 236.888 187.676C236.854 187.295 236.854 186.907 236.888 186.518C236.901 186.355 236.908 186.185 236.936 186.021C237.079 185.149 237.412 184.345 237.889 183.61C238.877 182.091 240.525 180.912 242.555 180.177C242.575 180.17 242.596 180.163 242.623 180.156C243.563 179.823 244.578 179.584 245.661 179.462C245.899 179.434 246.145 179.414 246.39 179.4C246.826 179.366 247.268 179.353 247.718 179.359C247.732 179.359 247.752 179.359 247.766 179.359C248.249 179.366 248.733 179.4 249.223 179.455C249.346 179.468 249.469 179.489 249.591 179.503C249.809 179.53 250.027 179.55 250.252 179.591C256.832 180.688 261.525 185.354 260.748 190.006Z" fill="#ED1B68"/>
<path d="M389.9 451.797C390.697 459.256 390.098 467.348 387.189 475.603C384.512 483.191 384.975 490.779 385.425 498.122C385.847 504.988 386.249 511.479 384.036 517.384C374.792 542.015 339.339 545.693 319.027 545.693C300.915 545.693 288.92 544.181 281.196 536.457C278.519 533.786 277.355 530.115 276.932 526.566C277.321 527.023 277.688 527.493 278.111 527.908C285.93 535.673 298.497 536.477 313.23 536.477C315.11 536.477 317.024 536.463 318.966 536.45C320.982 536.436 323.039 536.422 325.116 536.422C346.361 536.422 366.149 529.202 375.542 518.032C380.357 512.303 382.278 505.689 381.1 498.905C379.261 488.409 381.985 476.168 384.39 465.372C385.439 460.659 386.447 456.115 387.067 451.892L389.9 451.797ZM215.377 468.376C214.355 467.722 213.313 467.116 212.251 466.578C211.004 466.973 207.823 468.131 206.495 469.834C207.673 471.073 208.852 472.415 210.017 473.9C215.943 481.447 221.31 492.264 222.89 507.235C223.183 510.083 223.387 513.032 223.387 516.186C223.387 518.576 223.129 521.989 222.107 525.878C227.985 520.525 232.855 512.16 233.761 502.767C234.163 498.578 233.809 494.185 232.351 489.757C229.606 481.427 223.088 473.321 215.377 468.376ZM183.418 503.782C181.293 499.838 178.827 495.635 175.925 491.133C169.992 481.917 170.149 473.818 170.313 465.243C170.476 456.47 170.66 446.518 164.537 432.997C160.47 424.027 151.963 417.263 142.324 415.342C140.499 414.981 138.694 414.797 136.937 414.797C132.536 414.797 128.429 415.935 125.003 418.087C124.921 418.142 124.846 418.196 124.764 418.251C124.799 418.244 124.833 418.23 124.867 418.217C129.246 416.909 134.008 416.711 138.714 417.822C148.298 420.09 155.852 426.928 159.442 436.601C163.61 447.833 163.419 455.918 163.229 463.731C163.031 471.829 162.854 479.479 168.14 489.771C169.448 492.305 170.83 494.941 172.254 497.645C183.084 518.25 195.358 541.613 188.833 552.416C188.778 552.497 188.71 552.572 188.663 552.654C190.713 551.864 192.586 551.074 193.846 550.515C194.63 548.71 197.415 540.503 192.286 524.203C190.475 518.433 187.655 511.649 183.418 503.782ZM165.381 491.188C159.728 480.201 159.925 472.163 160.13 463.656C160.307 456.136 160.491 448.35 156.533 437.677C153.311 428.999 146.554 422.862 137.999 420.846C136.133 420.403 134.253 420.185 132.4 420.185C128.334 420.185 124.403 421.241 120.977 423.223C120.317 423.598 119.676 424.013 119.056 424.456C118.818 424.633 118.573 424.803 118.334 424.994C117.858 425.369 117.388 425.757 116.945 426.172C116.713 426.383 116.509 426.636 116.291 426.867C116.107 427.071 115.91 427.262 115.732 427.48C114.827 428.577 114.05 429.891 113.383 431.329C109.827 438.903 109.473 450.537 113.083 459.691C114.568 463.445 117.176 468.369 119.928 473.58C124.485 482.183 129.641 491.93 132.032 500.492C138.094 522.18 143.911 535.244 148.741 543.132C149.592 544.521 150.41 545.747 151.2 546.83C152.535 548.683 153.781 550.141 154.898 551.258C155.927 552.286 157.991 553.41 162.05 554.173C162.357 554.234 162.677 554.289 163.004 554.343C163.985 554.5 165.068 554.643 166.267 554.759C167.976 554.922 169.931 555.038 172.152 555.086C173.051 555.106 173.984 555.12 174.978 555.113H175.551C180.952 555.113 184.426 553.703 186.176 550.808C191.803 541.504 179.44 517.984 169.502 499.082C168.085 496.378 166.689 493.728 165.381 491.188ZM76.519 332.563C76.6961 332.515 76.8663 332.494 77.0366 332.454C81.212 331.534 83.923 333.101 86.3819 335.818C87.1789 336.697 87.9554 337.698 88.7455 338.775C89.1201 339.285 89.4948 339.81 89.883 340.348C90.1487 340.723 90.4348 341.111 90.714 341.492C90.7821 341.588 90.8434 341.676 90.9116 341.772C91.1431 342.092 91.3952 342.426 91.6472 342.759C91.9469 343.168 92.267 343.583 92.594 344.006C95.0802 347.221 98.2134 350.729 102.784 354.032C112.667 361.191 119.52 363.916 124.363 362.587C127.387 361.763 129.764 359.291 131.63 355.02C135.302 346.635 130.602 340.082 124.09 331.01C118.151 322.727 110.753 312.421 108.717 297.654C107.225 286.824 103.131 278.725 98.6017 272.84C97.2871 271.13 95.9384 269.618 94.6034 268.269C94.3105 267.963 94.0108 267.67 93.7111 267.384C93.4727 267.758 93.207 268.119 92.9414 268.487C91.0546 271.11 88.6706 273.616 85.803 275.932C85.1423 276.477 84.1614 276.368 83.6233 275.707C83.4803 275.53 83.3849 275.333 83.3304 275.128C83.1806 274.556 83.3645 273.923 83.8549 273.521C86.8519 271.096 89.2768 268.46 91.0887 265.715C91.184 265.565 91.2589 265.408 91.3543 265.259C91.5518 264.938 91.7289 264.618 91.9128 264.298C91.9946 264.155 92.0899 264.005 92.1649 263.862C92.3556 263.522 92.5599 263.181 92.7234 262.834C92.7983 262.691 92.846 262.541 92.9141 262.398C94.5352 258.91 95.2436 255.293 94.8826 251.677C93.7724 240.642 83.2895 231.971 68.7539 228.375C67.16 232.891 65.934 237.516 65.1575 242.25C64.9463 244.497 64.8714 246.752 64.8509 249.013C69.7961 250.587 75.1022 252.365 75.1022 252.365C75.1022 252.365 75.0817 252.385 75.0749 252.392C75.3746 252.48 75.6539 252.637 75.8582 252.903C76.3827 253.584 76.2533 254.558 75.5722 255.082C75.4291 255.184 74.7275 255.716 73.5968 256.485C72.8544 256.99 71.928 257.589 70.845 258.256C69.9118 258.829 68.8697 259.442 67.7186 260.075C61.8811 263.277 53.5235 266.832 45.1522 266.832C42.9249 266.832 40.6975 266.573 38.5179 266.001C36.2224 265.395 34.1517 264.7 32.2582 263.958C31.2637 263.569 30.3237 263.161 29.4314 262.745C28.5527 262.343 27.7217 261.928 26.9452 261.506C19.0848 257.282 15.9992 252.63 15.8289 252.365C15.3658 251.643 15.5769 250.682 16.2989 250.219C17.0141 249.763 17.9745 249.967 18.4377 250.689C18.499 250.777 21.5097 255.225 29.1998 259.176C28.2598 256.962 27.6945 254.578 27.6196 252.174C27.3948 245.104 28.0078 237.883 29.411 230.847C13.2542 236.896 2.58747 248.577 3.82034 260.824C4.22903 264.898 5.93189 268.685 8.6701 272.022C9.11284 272.554 9.56921 273.078 10.0596 273.589C10.5092 274.052 10.9928 274.495 11.4764 274.938C17.5999 280.482 26.9588 284.372 38.1909 285.557C39.6894 285.713 41.2016 285.802 42.7273 285.856C45.8811 285.972 49.0824 285.891 52.2974 285.57C55.3285 285.264 58.3392 284.767 61.2477 284.085C62.0855 283.881 62.9165 284.412 63.114 285.243C63.3116 286.074 62.7871 286.912 61.9561 287.103C58.9182 287.811 55.7713 288.336 52.604 288.656C50.1382 288.901 47.6725 289.024 45.2272 289.024C42.7478 289.024 40.282 288.901 37.864 288.642C26.9384 287.484 17.6612 283.868 11.0882 278.636C9.21501 297.47 7.81866 331.439 19.7387 346.247C21.7685 348.767 23.7779 351.171 25.76 353.467C21.7617 340.614 20.3994 329.136 20.3109 328.36C20.2087 327.508 20.8217 326.739 21.6732 326.643C22.5518 326.562 23.2943 327.161 23.3896 328.006C23.3965 328.04 23.4305 328.339 23.4986 328.864C23.9754 332.406 26.087 346.294 31.1956 359.611C31.7269 360.994 32.2922 362.376 32.8916 363.739C33.5659 365.271 34.2812 366.783 35.044 368.248C36.3995 370.85 37.8844 373.322 39.5328 375.563C44.6822 382.565 51.0578 387.64 56.7794 391.196C55.1106 388.907 53.5099 386.564 52.0182 384.2C51.194 382.892 50.4107 381.585 49.6546 380.27C48.8372 378.853 48.0607 377.436 47.3387 376.026C44.5664 370.652 42.4821 365.421 41.4264 360.81L35.7388 335.996C35.5753 335.274 35.9636 334.572 36.6107 334.272C36.706 334.225 36.7946 334.163 36.9036 334.136C37.6801 333.959 38.4225 334.408 38.6813 335.124C38.7086 335.185 38.7495 335.239 38.7631 335.301L38.7971 335.444L44.4506 360.115C45.7925 365.966 48.9121 372.941 53.0399 379.895C53.3123 380.352 53.5916 380.808 53.8709 381.264C54.1502 381.721 54.4226 382.17 54.7087 382.627C57.406 386.891 60.4576 391.1 63.6726 394.983C64.4695 395.943 65.2801 396.883 66.0974 397.803C66.8944 398.702 67.6981 399.58 68.5087 400.432C75.1499 407.386 82.1316 412.563 88.0848 413.905C92.3215 414.865 95.591 413.81 98.0772 410.669C106.741 399.73 101.599 392.926 95.6523 385.045C91.1023 379.017 85.946 372.192 87.6284 363.057C88.6297 357.636 88.7659 352.622 88.4799 348.202C88.4322 347.507 88.3777 346.819 88.3164 346.151C88.2483 345.477 88.1802 344.803 88.0984 344.162C88.0371 343.733 87.969 343.325 87.9077 342.909C87.7238 342.664 87.5399 342.405 87.3628 342.16C83.3917 336.636 81.6071 334.429 77.3023 335.566C76.4713 335.778 75.6267 335.287 75.4087 334.456C75.1907 333.632 75.688 332.781 76.519 332.563ZM219.253 195.203C219.239 195.128 219.226 195.06 219.212 194.992C218.47 195.128 217.734 195.244 217.032 195.346C217.768 195.325 218.51 195.278 219.253 195.203ZM328.168 219.132C328.175 219.036 328.161 218.941 328.182 218.845L345.183 136.74C345.885 136.829 346.573 136.89 347.26 136.917C347.969 136.951 348.677 136.965 349.365 136.945C357.886 136.686 364.834 132.36 365.897 126.005C366.918 119.909 362.218 113.813 354.808 110.666C354.174 110.394 353.527 110.141 352.853 109.924C352.206 109.706 351.538 109.508 350.857 109.338L356.02 84.4078C335.736 86.1856 315.294 110.918 308.108 144.287C300.786 178.297 309.709 209.8 328.168 219.132ZM221.903 116.122C222.046 116.149 222.189 116.183 222.332 116.21C222.877 116.299 223.415 116.367 223.953 116.422C234.115 117.525 243.025 112.9 244.244 105.632C245.402 98.6914 239.149 91.7506 229.906 89.1622C229.252 88.9783 228.585 88.8148 227.897 88.6786C227.59 88.6173 227.29 88.5424 226.977 88.4879C226.596 88.4266 226.228 88.3925 225.853 88.3448L232.508 57.884C212.278 59.7844 191.925 84.4691 184.76 117.75C177.649 150.785 185.87 181.457 203.266 191.736L219.88 115.672C220.54 115.849 221.215 115.999 221.903 116.122ZM455.624 436.914C457.906 432.63 460.324 428.08 462.108 424.224C455.842 428.379 447.307 435.334 444.644 443.712C444.187 445.156 443.949 446.593 443.874 448.03C447.212 444.938 450.76 442.411 453.71 440.524C454.357 439.305 454.997 438.092 455.624 436.914ZM444.964 458.35C445.223 457.75 445.488 457.144 445.761 456.538C447.266 453.166 448.915 449.794 450.597 446.498C448.438 448.132 446.217 450.006 444.174 452.09C443.745 452.533 443.322 452.975 442.907 453.432C442.491 453.895 442.09 454.379 441.694 454.862C439.549 457.485 437.792 460.352 436.845 463.417C435.448 467.933 435.993 472.422 438.459 476.747C438.677 477.122 438.936 477.435 439.181 477.776C439.74 472.361 441.66 466.299 444.215 460.121C444.46 459.535 444.712 458.942 444.964 458.35ZM533.601 311.781C533.029 317.393 531.98 322.965 530.468 328.414C533.731 329.477 536.626 330.437 537.436 330.703C537.715 330.758 537.981 330.853 538.206 331.057C538.839 331.643 538.88 332.617 538.308 333.251C537.988 333.598 530.243 341.874 511.989 343.488C511.233 343.556 510.47 343.583 509.72 343.583C492.133 343.583 475.69 326.078 474.975 325.302C474.389 324.668 474.43 323.687 475.057 323.108C475.684 322.529 476.664 322.563 477.25 323.19C477.339 323.292 482.223 328.476 489.286 333.142C489.715 331.568 490.308 330.022 491.064 328.523C491.5 327.658 491.888 326.773 492.297 325.894C494.197 320.949 495.587 315.847 496.479 310.63C496.874 306.55 496.963 302.47 496.751 298.39C476.269 296.796 458.852 304.513 455.038 318.265C452.94 325.846 455.426 334.225 461.434 341.785C461.972 342.46 462.537 343.127 463.13 343.788C463.757 344.489 464.411 345.184 465.105 345.865C468.681 349.4 473.048 352.67 478.129 355.469C478.824 355.851 479.082 356.689 478.796 357.404C478.776 357.458 478.776 357.52 478.742 357.574C478.326 358.33 477.38 358.596 476.637 358.187C469.764 354.407 464.09 349.782 459.854 344.748C455.971 347.316 436.961 360.994 437.744 382.422C437.614 396.672 434.788 399.117 424.25 408.224L423.63 408.755C417.95 413.667 414.864 420.819 415.566 427.426C415.954 431.043 417.67 436.042 423.651 439.312C429.911 442.738 438.766 433.277 446.578 424.946C453.056 418.039 458.75 411.97 463.634 411.97C464.206 411.97 464.765 412.052 465.31 412.222C466.359 412.556 467.135 413.258 467.544 414.259C467.878 415.076 467.939 416.085 467.775 417.29C467.701 417.89 467.564 418.544 467.367 419.245C467.183 419.926 466.951 420.641 466.665 421.411C465.201 425.369 462.463 430.661 458.825 437.507C458.669 437.799 458.519 438.079 458.362 438.372C458.069 438.93 457.769 439.489 457.47 440.047C457 440.933 456.53 441.832 456.046 442.738C453.165 448.214 450.168 454.065 447.702 459.807C447.457 460.373 447.225 460.931 446.994 461.49C446.769 462.035 446.551 462.573 446.34 463.111C443.854 469.405 442.164 475.433 442.117 480.514C442.117 481.148 442.137 481.761 442.185 482.36C442.239 482.966 442.314 483.552 442.416 484.124C443.064 487.646 444.814 490.513 448.084 492.38C451.081 494.089 454.173 494.335 457.524 493.122C463.307 491.024 468.967 484.942 473.974 477.681C474.43 477.027 474.88 476.359 475.323 475.678C485.022 460.897 491.97 442.459 492.079 442.172C492.378 441.369 493.278 440.96 494.074 441.26C494.878 441.553 495.287 442.452 494.987 443.255C494.619 444.243 489.783 457.076 482.475 469.95C487.059 468.036 498.699 461.524 515.476 440.483C535.529 415.342 535.89 371.429 535.767 363.194C532.62 364.604 529.119 365.714 525.291 366.47C521.382 367.253 517.295 367.642 513.106 367.642C506.58 367.642 499.81 366.695 493.06 364.828C492.235 364.604 491.752 363.745 491.983 362.921C491.997 362.86 492.038 362.819 492.058 362.765C492.351 362.043 493.114 361.627 493.891 361.838C504.496 364.781 515.149 365.332 524.685 363.432C526.851 363.003 528.895 362.444 530.829 361.79C531.721 361.491 532.586 361.171 533.431 360.823C534.221 360.496 534.998 360.156 535.747 359.795C542.94 356.26 547.824 350.947 549.622 344.442C551.842 336.418 549.111 327.495 541.925 319.307C539.534 316.583 536.714 314.076 533.601 311.781ZM250.252 179.591C250.027 179.55 249.809 179.53 249.591 179.502C249.469 179.489 249.346 179.468 249.223 179.455C248.733 179.4 248.249 179.366 247.766 179.359C247.752 179.359 247.732 179.359 247.718 179.359C247.268 179.353 246.826 179.366 246.39 179.4C246.145 179.414 245.899 179.434 245.661 179.462C244.578 179.584 243.563 179.823 242.623 180.156C242.596 180.163 242.575 180.17 242.555 180.177C240.525 180.912 238.877 182.091 237.889 183.61C237.412 184.345 237.078 185.149 236.935 186.021C236.908 186.185 236.901 186.355 236.888 186.518C236.854 186.907 236.854 187.295 236.888 187.676C236.922 188.003 236.976 188.323 237.065 188.65C237.119 188.868 237.194 189.086 237.269 189.297C237.439 189.761 237.664 190.21 237.923 190.646C239.599 193.439 243.1 195.714 247.432 196.436C254.005 197.539 259.965 194.658 260.748 190.006C261.525 185.354 256.832 180.688 250.252 179.591ZM281.993 508.427C282.136 509.068 282.245 509.449 282.252 509.47C282.32 509.694 282.45 509.885 282.599 510.049C282.885 510.369 283.294 510.566 283.73 510.566C283.88 510.566 284.03 510.546 284.18 510.498C285.004 510.253 285.467 509.388 285.215 508.57C285.195 508.482 285.086 508.114 284.963 507.542C284.854 507.051 284.731 506.418 284.629 505.642C284.547 505.029 284.486 504.32 284.445 503.571C284.152 498.129 285.351 489.396 294.513 483.232C295.228 482.755 295.412 481.788 294.935 481.079C294.458 480.371 293.498 480.18 292.783 480.657C280.801 488.715 280.883 500.948 281.659 506.52C281.768 507.297 281.891 507.937 281.993 508.427ZM117.061 211.285C117.204 212.027 117.858 212.545 118.586 212.545C118.682 212.545 118.777 212.538 118.873 212.518C119.717 212.361 120.269 211.55 120.112 210.706C118.818 203.86 118.076 197.253 117.762 190.939C117.047 176.792 118.477 164.109 120.718 153.449C125.207 132.054 132.938 118.84 133.074 118.615C133.517 117.879 133.279 116.926 132.543 116.49C131.807 116.047 130.854 116.285 130.418 117.021C130.275 117.253 122.101 131.175 117.51 153.653C115.31 164.422 113.941 177.153 114.67 191.286C115.004 197.682 115.753 204.364 117.061 211.285ZM119.417 222.449C119.417 223.43 120.214 224.226 121.195 224.226C122.176 224.226 122.973 223.43 122.973 222.449C122.973 221.468 122.176 220.671 121.195 220.671C120.214 220.671 119.417 221.468 119.417 222.449ZM287.333 521.151C287.333 522.132 288.13 522.929 289.111 522.929C290.092 522.929 290.889 522.132 290.889 521.151C290.889 520.17 290.092 519.373 289.111 519.373C288.13 519.373 287.333 520.17 287.333 521.151ZM305.997 422.46C306.644 422.426 307.291 422.358 307.938 422.31C309.144 422.215 310.356 422.106 311.562 421.97C316.609 421.173 320.975 421.479 325.552 423.897C327.453 424.899 329.047 426.329 330.375 427.977C326.867 418.435 319.463 417.345 319.368 417.338C318.516 417.236 317.91 416.459 318.019 415.608C318.121 414.756 318.891 414.15 319.749 414.259C319.899 414.273 334.782 416.357 335.286 438.344C335.661 454.767 319.592 461.612 319.429 461.68C319.238 461.762 319.034 461.796 318.836 461.796C318.23 461.796 317.651 461.435 317.406 460.843C317.079 460.052 317.447 459.147 318.237 458.813C318.346 458.772 318.884 458.534 319.688 458.111C314.525 458.908 309.348 459.385 304.171 459.555C303.62 459.576 303.075 459.582 302.523 459.596C301.978 459.603 301.433 459.63 300.888 459.637C300.8 459.637 300.711 459.637 300.622 459.637C300.888 460.155 301.167 460.652 301.453 461.149C302.918 463.697 304.614 466.04 306.596 468.063L306.807 468.124L307.468 468.322L307.55 468.342C310.138 469.105 312.87 469.922 315.492 470.726C316.05 470.896 316.602 471.067 317.14 471.237C317.699 471.414 318.251 471.584 318.789 471.755C319.347 471.932 319.899 472.109 320.43 472.286C322.16 472.844 323.727 473.383 325.048 473.866C326.254 474.316 327.255 474.718 327.957 475.058C340.933 472.102 350.646 456.981 350.646 439.584C350.646 439.087 350.605 438.603 350.591 438.106C350.571 437.384 350.564 436.648 350.51 435.933C350.455 435.252 350.36 434.591 350.278 433.924C348.602 420.008 340.892 408.728 330.784 404.927C329.932 404.607 329.074 404.342 328.195 404.13C327.242 403.899 326.268 403.749 325.28 403.654C324.626 403.592 323.972 403.517 323.298 403.517C312.883 403.517 303.81 411.248 299.192 422.583C300.847 422.61 302.502 422.562 304.151 422.508C304.764 422.481 305.384 422.494 305.997 422.46Z" fill="white"/>
<mask id="mask1_86_3345" style="mask-type:luminance" maskUnits="userSpaceOnUse" x="0" y="0" width="556" height="560">
<path d="M0.537109 0.361328H555.044V559.329H0.537109V0.361328Z" fill="white"/>
</mask>
<g mask="url(#mask1_86_3345)">
<path d="M364.398 81.8331C340.143 76.6224 313.537 104.338 305.077 143.64C296.618 182.935 309.464 219.145 333.713 224.37C335.715 224.799 337.745 225.01 339.782 225.01C349.856 225.01 360.243 219.806 369.596 209.95C369.963 209.555 370.324 209.146 370.692 208.737C381.366 198.145 389.362 182.547 393.327 163.673C399.116 136.141 396.889 114.76 386.76 100.067C381.372 90.4632 373.737 83.8425 364.398 81.8331ZM365.897 126.005C364.834 132.36 357.887 136.686 349.366 136.945C348.678 136.965 347.969 136.951 347.261 136.917C346.573 136.89 345.885 136.829 345.183 136.74L328.182 218.845C328.161 218.941 328.175 219.036 328.168 219.132C309.709 209.8 300.786 178.297 308.109 144.287C315.295 110.918 335.736 86.1856 356.02 84.4079L350.857 109.338C351.538 109.508 352.206 109.706 352.853 109.924C353.527 110.142 354.174 110.394 354.808 110.666C362.219 113.813 366.919 119.909 365.897 126.005ZM369.037 264.523C368.771 265.075 368.22 265.402 367.641 265.402C367.416 265.402 367.184 265.354 366.966 265.245C362.048 262.868 358.684 259.619 356.334 256.213C352.124 259.231 325.532 276.886 279.821 276.886C271.279 276.886 262.07 276.266 252.214 274.822C219.035 269.959 192.035 253.366 171.859 225.473L163.679 225.582C162.82 226.726 161.921 227.884 160.906 229.063C160.6 229.424 160.164 229.608 159.728 229.608C159.374 229.608 159.013 229.485 158.72 229.233C158.066 228.674 157.991 227.694 158.55 227.046C169.414 214.377 170.197 203.71 170.204 203.601C170.258 202.75 170.987 202.103 171.845 202.151C172.697 202.198 173.351 202.934 173.303 203.785C173.283 204.099 172.922 209.105 169.38 216.346C169.679 216.782 170.02 217.292 170.442 217.94C190.488 248.584 218.15 266.696 252.663 271.757C315.424 280.959 351.157 256.172 354.706 253.563C350.735 246.132 351.096 238.803 351.102 238.687C351.157 237.829 351.899 237.168 352.744 237.236C353.602 237.284 354.249 238.02 354.202 238.878C354.161 239.539 353.425 255.253 368.315 262.452C369.085 262.827 369.412 263.753 369.037 264.523ZM209.969 33.1994C209.554 32.4501 209.819 31.5033 210.569 31.0878C247.425 10.4423 275.053 40.0721 275.332 40.3718C275.904 41.0053 275.863 41.9861 275.23 42.5651C274.93 42.8308 274.555 42.967 274.181 42.967C273.765 42.967 273.343 42.7967 273.036 42.4629C271.981 41.305 246.758 14.3725 212.081 33.792C211.331 34.2143 210.391 33.9418 209.969 33.1994ZM403.305 78.2844C403.748 79.02 403.51 79.9668 402.774 80.4095C402.522 80.5594 402.25 80.6275 401.977 80.6275C401.453 80.6275 400.935 80.3619 400.649 79.8714C379.186 43.9547 344.475 57.9113 343.004 58.5243C342.22 58.8649 341.308 58.4835 340.981 57.6934C340.647 56.9032 341.021 55.9973 341.812 55.6635C342.193 55.5069 380.453 40.0244 403.305 78.2844ZM533.908 308.144C534.685 296.21 533.288 284.154 529.426 272.676C521.729 249.831 505.886 230.507 484.757 218.784C479.757 216.012 474.512 213.635 469.124 211.639C481.705 116.551 419.108 25.9179 323.727 5.39503C275.114 -5.06736 225.336 4.02593 183.568 30.9925C141.8 57.9658 113.035 99.5838 102.573 148.19C101.994 150.874 101.497 153.558 101.04 156.248C94.2154 157.897 87.5674 160.219 81.0216 163.291C70.675 168.148 61.0028 175.422 53.3331 183.889C44.8051 193.303 38.6476 203.704 33.9341 215.426C32.3947 219.254 31.1618 223.239 30.1878 227.298C11.7151 233.633 -0.681732 247.024 0.73505 261.131C1.29359 266.716 3.95005 271.798 8.19359 276.062C6.13653 294.718 4.06585 331.732 17.3209 348.195C21.1285 352.929 24.8885 357.268 28.4577 361.205C30.7122 366.967 33.5322 372.634 37.0401 377.402C44.6621 387.776 54.6136 394.05 61.7656 397.544C70.0347 407.366 79.4277 415.131 87.4039 416.936C88.6096 417.209 89.7743 417.345 90.8914 417.345C94.7399 417.345 98.023 415.737 100.509 412.597C110.658 399.778 104.29 391.339 98.132 383.172C93.5615 377.123 89.243 371.408 90.6802 363.623C91.7565 357.772 91.9063 352.411 91.5862 347.711C93.9702 350.586 96.9263 353.624 100.966 356.546C109.854 362.983 116.475 366.014 121.822 366.014C123.001 366.014 124.118 365.871 125.18 365.578C129.165 364.495 132.203 361.45 134.471 356.266C138.851 346.26 133.177 338.352 126.611 329.198C120.569 320.779 113.723 311.236 111.789 297.232C109.568 281.109 102.076 270.769 95.3597 264.537C97.5053 260.3 98.4181 255.845 97.9685 251.37C96.7424 239.157 85.4763 229.526 69.9121 225.514C71.9964 221.155 74.4417 216.986 77.2617 213.063C80.4154 209.262 83.8892 205.774 87.6832 202.627C91.1366 200.155 94.7739 197.996 98.5747 196.116C100.053 228.606 110.059 260.266 128.177 288.322C143.728 312.394 164.176 332.12 187.995 346.54C184.338 361.15 185.216 377.212 190.945 391.141C197.082 406.072 206.516 419.259 219.008 429.578C224.777 434.353 230.867 438.569 237.235 442.281C235.928 444.08 234.586 445.851 233.244 447.622C228.251 453.956 223.013 460.08 217.55 466.006C210.991 461.871 203.825 459.998 197.62 460.747C197.64 460.339 197.675 459.923 197.709 459.528C197.756 459.017 197.79 458.513 197.804 458.03C197.858 457.655 197.886 457.423 197.892 457.376C197.913 457.151 197.879 456.933 197.811 456.729C197.416 421.977 175.278 403.238 154.435 403.238C144.252 403.238 134.566 406.528 126.42 412.767L126.141 412.972C125.003 413.864 123.975 414.777 123.028 415.703C121.931 416.425 120.869 417.202 119.908 418.101C118.655 419.272 117.579 420.75 116.639 422.419C116.019 422.896 115.399 423.366 114.827 423.904C107.218 431.015 105.107 447.921 110.202 460.829C111.741 464.739 114.391 469.738 117.19 475.031C121.672 483.491 126.747 493.088 129.049 501.33C138.17 533.977 146.943 547.695 152.705 553.451C154.905 555.651 158.802 556.836 162.807 557.477C165.851 558.267 169.237 558.689 172.86 558.689C173.548 558.689 174.257 558.669 174.958 558.635C175.871 558.716 176.804 558.771 177.758 558.771C179.508 558.771 181.967 558.192 184.501 557.402C187.668 556.727 190.877 555.801 194.024 554.575C209.281 548.649 216.692 539.515 220.241 531.28C225.097 528.099 229.484 523.208 232.563 517.31C235.546 511.595 237.045 505.519 237.024 499.525C250.136 486.168 261.981 471.761 272.491 456.463C280.618 458.37 288.866 459.399 297.163 459.589C298.395 462.246 299.867 464.718 301.583 466.959C294.465 467.784 287.633 471.019 281.946 476.38C274.542 483.355 269.944 493.115 269.944 501.854C269.944 509.953 271.177 516.424 273.629 521.471C273.411 526.778 274.208 533.861 279.003 538.65C287.49 547.137 300.105 548.792 319.027 548.792C340.143 548.792 377.04 544.855 386.937 518.474C389.383 511.949 388.967 505.138 388.525 497.931C388.095 490.902 387.646 483.627 390.112 476.632C400.22 447.969 384.288 421.057 374.902 413.701C367.273 405.827 356.872 400.65 345.435 400.037C340.408 399.771 335.497 400.357 330.818 401.672C328.407 400.881 325.9 400.418 323.298 400.418C311.289 400.418 300.916 409.43 295.957 422.453C294.983 422.406 294.009 422.385 293.035 422.31C299.812 409.294 305.738 395.8 310.779 381.905C312.086 378.302 313.299 374.671 314.477 371.027C380.705 360.156 437.819 313.756 460.46 248.203C465.419 250.539 470.16 253.284 474.601 256.499C478.381 259.639 481.848 263.106 484.988 266.887C487.842 270.865 490.308 275.081 492.372 279.522C494.225 284.392 495.587 289.398 496.466 294.527C496.493 294.78 496.5 295.025 496.52 295.27C474.771 293.765 456.224 302.374 452.048 317.434C449.814 325.506 452.096 334.313 457.926 342.289C453.152 345.436 433.807 359.597 434.645 382.463C434.529 395.242 432.411 397.074 422.221 405.874L421.601 406.406C415.164 411.977 411.67 420.158 412.48 427.753C413.141 433.91 416.581 438.985 422.166 442.036C430.51 446.6 440.258 436.226 448.84 427.072C454.534 420.996 460.998 414.123 464.377 415.186C464.581 415.247 464.629 415.329 464.677 415.438C464.969 416.16 464.731 417.515 464.145 419.266C457.804 422.978 445.264 431.506 441.688 442.772C440.802 445.558 440.537 448.337 440.864 451.075C437.792 454.44 435.183 458.275 433.882 462.491C432.22 467.865 432.853 473.178 435.762 478.28C436.647 479.833 437.764 481.107 439.059 482.163C439.352 487.659 441.518 492.203 446.544 495.07C448.772 496.344 451.088 496.977 453.465 496.977C455.141 496.977 456.85 496.664 458.58 496.037C466.577 493.136 474.117 483.784 480.248 473.73C480.438 473.771 480.636 473.778 480.833 473.744C481.405 473.648 495.083 471.026 517.901 442.418C540.706 413.823 538.928 363.814 538.84 361.695C538.84 361.688 538.833 361.675 538.833 361.661C545.889 357.751 550.719 352.111 552.612 345.273C555.126 336.207 552.156 326.262 544.255 317.264C541.326 313.92 537.832 310.861 533.908 308.144ZM94.8829 251.677C95.2439 255.294 94.5355 258.91 92.9144 262.398C92.8463 262.541 92.7986 262.691 92.7237 262.834C92.5602 263.181 92.3559 263.522 92.1651 263.862C92.0902 264.005 91.9949 264.155 91.9131 264.298C91.7292 264.618 91.5521 264.939 91.3546 265.259C91.2592 265.409 91.1843 265.565 91.0889 265.715C89.2771 268.46 86.8522 271.096 83.8552 273.521C83.3648 273.923 83.1808 274.556 83.3307 275.128C83.3852 275.333 83.4805 275.53 83.6236 275.707C84.1617 276.368 85.1425 276.477 85.8033 275.932C88.6709 273.616 91.0549 271.11 92.9417 268.487C93.2073 268.12 93.4729 267.758 93.7113 267.384C94.011 267.67 94.3108 267.963 94.6036 268.269C95.9387 269.618 97.2874 271.13 98.602 272.84C103.132 278.725 107.225 286.824 108.717 297.654C110.754 312.421 118.151 322.727 124.09 331.01C130.602 340.082 135.302 346.635 131.631 355.02C129.764 359.291 127.387 361.763 124.363 362.587C119.52 363.916 112.668 361.191 102.784 354.032C98.2137 350.729 95.0804 347.221 92.5943 344.006C92.2673 343.584 91.9472 343.168 91.6475 342.759C91.3954 342.426 91.1434 342.092 90.9118 341.772C90.8437 341.676 90.7824 341.588 90.7143 341.492C90.435 341.111 90.149 340.723 89.8833 340.348C89.4951 339.81 89.1204 339.286 88.7458 338.775C87.9557 337.698 87.1792 336.697 86.3822 335.819C83.9233 333.101 81.2123 331.534 77.0369 332.454C76.8666 332.495 76.6963 332.515 76.5192 332.563C75.6882 332.781 75.191 333.632 75.409 334.456C75.6269 335.287 76.4716 335.778 77.3026 335.566C81.6074 334.429 83.392 336.636 87.3631 342.16C87.5402 342.405 87.7241 342.664 87.908 342.909C87.9693 343.325 88.0374 343.733 88.0987 344.163C88.1804 344.803 88.2486 345.477 88.3167 346.151C88.378 346.819 88.4325 347.507 88.4801 348.202C88.7662 352.622 88.63 357.636 87.6287 363.057C85.9463 372.192 91.1026 379.017 95.6526 385.045C101.599 392.926 106.742 399.73 98.0775 410.67C95.5913 413.81 92.3218 414.865 88.0851 413.905C82.1319 412.563 75.1501 407.386 68.509 400.432C67.6984 399.58 66.8947 398.702 66.0977 397.803C65.2803 396.883 64.4698 395.943 63.6728 394.983C60.4578 391.1 57.4063 386.891 54.709 382.627C54.4229 382.17 54.1504 381.721 53.8712 381.264C53.5919 380.808 53.3126 380.352 53.0402 379.895C48.9124 372.941 45.7928 365.966 44.4509 360.115L38.7974 335.444L38.7634 335.301C38.7498 335.24 38.7089 335.185 38.6816 335.124C38.4228 334.409 37.6804 333.959 36.9039 334.136C36.7949 334.163 36.7063 334.225 36.611 334.272C35.9639 334.572 35.5756 335.274 35.7391 335.996L41.4267 360.81C42.4824 365.421 44.5667 370.652 47.339 376.026C48.061 377.436 48.8375 378.853 49.6549 380.27C50.411 381.585 51.1943 382.892 52.0185 384.2C53.5102 386.564 55.1109 388.907 56.7797 391.196C51.058 387.64 44.6825 382.565 39.5331 375.563C37.8847 373.322 36.3998 370.85 35.0443 368.248C34.2814 366.783 33.5662 365.271 32.8919 363.739C32.2925 362.376 31.7271 360.994 31.1959 359.611C26.0873 346.295 23.9757 332.406 23.4989 328.864C23.4308 328.34 23.3967 328.04 23.3899 328.006C23.2946 327.161 22.5521 326.562 21.6734 326.643C20.822 326.739 20.209 327.509 20.3112 328.36C20.3997 329.136 21.762 340.614 25.7603 353.467C23.7782 351.172 21.7688 348.767 19.739 346.247C7.81896 331.439 9.21531 297.47 11.0885 278.636C17.6615 283.868 26.9387 287.484 37.8643 288.642C40.2823 288.901 42.7481 289.024 45.2274 289.024C47.6728 289.024 50.1385 288.901 52.6042 288.656C55.7716 288.336 58.9185 287.811 61.9564 287.103C62.7874 286.912 63.3118 286.074 63.1143 285.243C62.9168 284.412 62.0858 283.881 61.248 284.086C58.3395 284.767 55.3288 285.264 52.2977 285.57C49.0827 285.891 45.8813 285.972 42.7276 285.857C41.2019 285.802 39.6897 285.713 38.1912 285.557C26.9591 284.372 17.6002 280.482 11.4767 274.938C10.9931 274.495 10.5095 274.052 10.0599 273.589C9.5695 273.078 9.11314 272.554 8.67039 272.022C5.93219 268.685 4.22933 264.898 3.82064 260.824C2.58776 248.577 13.2545 236.896 29.4113 230.847C28.0081 237.883 27.3951 245.104 27.6198 252.174C27.6948 254.578 28.2601 256.962 29.2001 259.176C21.51 255.225 18.4993 250.778 18.438 250.689C17.9748 249.967 17.0144 249.763 16.2992 250.219C15.5772 250.682 15.366 251.643 15.8292 252.365C15.9995 252.63 19.0851 257.282 26.9455 261.506C27.722 261.928 28.553 262.343 29.4317 262.745C30.324 263.161 31.264 263.569 32.2584 263.958C34.152 264.7 36.2227 265.395 38.5182 266.001C40.6978 266.573 42.9252 266.832 45.1525 266.832C53.5238 266.832 61.8814 263.277 67.7188 260.075C68.87 259.442 69.9121 258.829 70.8453 258.257C71.9283 257.589 72.8547 256.99 73.5971 256.486C74.7278 255.716 75.4294 255.185 75.5724 255.082C76.2536 254.558 76.383 253.584 75.8585 252.903C75.6542 252.637 75.3749 252.48 75.0752 252.392C75.082 252.385 75.1025 252.365 75.1025 252.365C75.1025 252.365 69.7963 250.587 64.8512 249.013C64.8717 246.752 64.9466 244.497 65.1577 242.25C65.9342 237.516 67.1603 232.891 68.7542 228.375C83.2898 231.971 93.7726 240.642 94.8829 251.677ZM186.177 550.808C184.426 553.703 180.952 555.113 175.551 555.113H174.979C173.984 555.12 173.051 555.106 172.152 555.086C169.931 555.038 167.977 554.922 166.267 554.759C165.068 554.643 163.985 554.5 163.004 554.344C162.677 554.289 162.357 554.234 162.051 554.173C157.991 553.41 155.927 552.286 154.899 551.258C153.782 550.141 152.535 548.683 151.2 546.83C150.41 545.747 149.592 544.521 148.741 543.132C143.912 535.244 138.095 522.18 132.033 500.492C129.642 491.93 124.485 482.183 119.929 473.58C117.177 468.369 114.568 463.445 113.083 459.692C109.473 450.537 109.827 438.903 113.383 431.329C114.05 429.891 114.827 428.577 115.733 427.48C115.91 427.262 116.107 427.072 116.291 426.867C116.509 426.636 116.714 426.384 116.945 426.172C117.388 425.757 117.858 425.369 118.335 424.994C118.573 424.803 118.812 424.633 119.057 424.456C119.677 424.013 120.317 423.598 120.978 423.223C124.404 421.241 128.334 420.185 132.4 420.185C134.253 420.185 136.133 420.403 137.999 420.846C146.555 422.862 153.312 428.999 156.533 437.677C160.491 448.35 160.307 456.136 160.13 463.656C159.925 472.163 159.728 480.201 165.381 491.188C166.689 493.728 168.086 496.378 169.502 499.082C179.44 517.984 191.803 541.504 186.177 550.808ZM193.846 550.515C192.586 551.074 190.713 551.864 188.663 552.654C188.711 552.573 188.779 552.498 188.833 552.416C195.359 541.613 183.084 518.25 172.254 497.645C170.831 494.941 169.448 492.305 168.14 489.771C162.854 479.479 163.031 471.83 163.229 463.731C163.42 455.918 163.61 447.833 159.442 436.601C155.852 426.928 148.298 420.09 138.715 417.822C134.008 416.711 129.247 416.909 124.867 418.217C124.833 418.23 124.799 418.244 124.765 418.251C124.846 418.196 124.921 418.142 125.003 418.087C128.429 415.935 132.537 414.797 136.937 414.797C138.694 414.797 140.499 414.981 142.325 415.342C151.963 417.263 160.47 424.027 164.537 432.997C170.66 446.518 170.476 456.47 170.313 465.243C170.149 473.819 169.993 481.917 175.926 491.133C178.827 495.636 181.293 499.838 183.418 503.782C187.655 511.649 190.475 518.434 192.287 524.203C197.416 540.503 194.63 548.71 193.846 550.515ZM217.802 529.155C217.475 529.965 217.135 530.755 216.76 531.512C216.386 532.261 216.011 533.017 215.589 533.718C210.787 541.776 203.246 546.776 197.45 549.657C198.403 546.347 199.296 540.046 197.15 530.211C196.939 529.23 196.694 528.208 196.414 527.159C196.067 525.838 195.665 524.462 195.209 523.024C193.336 517.173 190.482 510.369 186.272 502.536C185.353 500.819 184.379 499.069 183.323 497.25C182.587 495.997 181.824 494.716 181.027 493.415C180.23 492.114 179.399 490.799 178.534 489.451C173.112 481.032 173.249 473.744 173.412 465.304C173.582 456.197 173.78 445.878 167.364 431.717C162.827 421.704 153.693 414.443 142.931 412.297C139.641 411.644 136.406 411.528 133.347 411.923C139.77 408.272 146.95 406.337 154.435 406.337C173.957 406.337 194.712 424.313 194.725 457.635C194.616 458.316 194.371 459.637 193.867 461.524C193.717 462.103 193.54 462.729 193.336 463.411C193.152 464.017 192.941 464.678 192.716 465.359C191.789 468.138 190.468 471.537 188.581 475.487C188.213 476.257 188.54 477.183 189.31 477.551C189.528 477.66 189.753 477.708 189.978 477.708C190.557 477.708 191.115 477.381 191.381 476.822C193.656 472.061 195.141 468.07 196.115 464.957C196.135 464.97 196.149 464.991 196.169 465.004C197.749 466.108 199.527 467.491 201.373 469.159C201.591 469.357 201.809 469.555 202.027 469.759C203.948 471.557 205.93 473.675 207.851 476.168C213.314 483.252 218.231 493.32 219.764 507.181C220.084 510.028 220.282 513.005 220.282 516.186C220.282 521.104 219.328 525.381 217.802 529.155ZM233.762 502.767C232.856 512.16 227.985 520.525 222.107 525.878C223.129 521.989 223.388 518.577 223.388 516.186C223.388 513.032 223.183 510.083 222.891 507.236C221.31 492.264 215.943 481.447 210.017 473.9C208.852 472.415 207.674 471.074 206.495 469.834C207.824 468.131 211.005 466.973 212.251 466.578C213.314 467.116 214.356 467.722 215.377 468.376C223.088 473.321 229.607 481.427 232.352 489.757C233.809 494.185 234.163 498.578 233.762 502.767ZM389.9 451.797C390.697 459.256 390.098 467.348 387.189 475.603C384.513 483.191 384.976 490.779 385.425 498.122C385.848 504.988 386.25 511.479 384.036 517.385C374.793 542.015 339.339 545.693 319.027 545.693C300.916 545.693 288.921 544.181 281.197 536.457C278.52 533.787 277.355 530.115 276.933 526.566C277.321 527.023 277.689 527.493 278.111 527.908C285.93 535.673 298.498 536.477 313.231 536.477C315.111 536.477 317.025 536.463 318.966 536.45C320.982 536.436 323.039 536.423 325.117 536.423C346.362 536.423 366.149 529.202 375.542 518.032C380.358 512.303 382.278 505.689 381.1 498.905C379.261 488.409 381.986 476.168 384.39 465.372C385.439 460.659 386.447 456.116 387.067 451.892L389.9 451.797ZM345.272 403.136C354.563 403.633 363.125 407.373 369.868 413.19C370.263 413.53 370.631 413.891 371.012 414.246C371.639 414.825 372.272 415.404 372.865 416.017C380.024 423.495 384.499 433.549 384.567 444.379C384.608 450.121 383.028 457.199 381.359 464.698C378.893 475.78 376.1 488.334 378.042 499.436C379.077 505.369 377.435 510.955 373.172 516.029C364.344 526.532 345.483 533.317 325.117 533.317C323.032 533.317 320.969 533.33 318.946 533.344C302.448 533.46 288.199 533.555 280.297 525.708C278.921 524.339 277.77 522.711 276.789 520.865C276.313 519.966 275.884 518.999 275.495 517.984C275.114 516.962 274.773 515.879 274.48 514.735C273.54 511.07 273.043 506.813 273.043 501.854C273.043 493.94 277.273 485.044 284.071 478.641C289.82 473.219 296.808 470.202 304.103 469.902C304.301 470.106 304.478 470.338 304.676 470.535L304.955 470.815L306.671 471.319C308.102 471.741 310.479 472.443 313.115 473.246C313.66 473.41 314.212 473.58 314.77 473.75C315.315 473.921 315.867 474.091 316.419 474.261C316.861 474.397 317.297 474.534 317.74 474.677C319.817 475.337 321.827 475.998 323.468 476.591C324.728 477.674 326.118 478.968 327.623 480.48C328.795 481.652 330.035 482.932 331.376 484.397C331.955 485.03 332.936 485.071 333.57 484.492C334.196 483.913 334.244 482.932 333.665 482.299C332.139 480.637 330.729 479.172 329.394 477.865C343.583 474.18 353.752 458.377 353.752 439.584C353.752 438.031 353.664 436.505 353.52 435.007C353.459 434.326 353.371 433.665 353.282 432.997C353.2 432.344 353.112 431.69 352.996 431.043C350.871 418.809 344.298 408.728 335.566 403.763C338.726 403.197 341.968 402.952 345.272 403.136ZM323.298 403.518C323.972 403.518 324.626 403.592 325.28 403.654C326.268 403.749 327.242 403.899 328.196 404.131C329.074 404.342 329.932 404.607 330.784 404.927C340.892 408.728 348.603 420.008 350.278 433.924C350.36 434.591 350.455 435.252 350.51 435.933C350.564 436.648 350.571 437.384 350.592 438.106C350.605 438.603 350.646 439.087 350.646 439.584C350.646 456.981 340.933 472.102 327.957 475.058C327.256 474.718 326.254 474.316 325.049 473.866C323.727 473.383 322.161 472.844 320.43 472.286C319.899 472.109 319.347 471.932 318.789 471.755C318.251 471.584 317.699 471.414 317.141 471.237C316.602 471.067 316.051 470.896 315.492 470.726C312.87 469.922 310.138 469.105 307.55 468.342L307.468 468.322L306.808 468.124L306.596 468.063C304.614 466.04 302.918 463.697 301.454 461.149C301.168 460.652 300.888 460.155 300.623 459.637C300.711 459.637 300.8 459.637 300.888 459.637C301.433 459.63 301.978 459.603 302.523 459.596C303.075 459.583 303.62 459.576 304.172 459.555C309.348 459.385 314.525 458.908 319.688 458.111C318.884 458.534 318.346 458.772 318.237 458.813C317.447 459.147 317.079 460.053 317.406 460.843C317.651 461.435 318.23 461.796 318.837 461.796C319.034 461.796 319.238 461.762 319.429 461.681C319.593 461.612 335.661 454.767 335.286 438.344C334.782 416.357 319.899 414.273 319.749 414.259C318.891 414.15 318.121 414.756 318.019 415.608C317.91 416.459 318.516 417.236 319.368 417.338C319.463 417.345 316.609 421.173 311.562 421.97C310.356 422.106 309.144 422.215 307.938 422.31C307.291 422.358 306.644 422.426 305.997 422.46C305.384 422.494 304.764 422.481 304.151 422.508C302.503 422.562 300.848 422.61 299.192 422.583C303.811 411.249 312.883 403.518 323.298 403.518ZM269.971 384.636C266.102 393.6 261.804 402.36 257.104 410.901C253.222 408.721 249.482 406.297 245.886 403.654C241.145 399.771 236.772 395.473 232.876 390.732C230.247 387.061 227.945 383.185 226.031 379.098C224.811 375.802 223.871 372.423 223.238 368.97C223.074 366.981 223.02 364.985 223.068 362.989C230.322 365.516 237.76 367.662 245.389 369.304C255.102 371.395 264.795 372.675 274.412 373.2C273.009 377.041 271.524 380.849 269.971 384.636ZM466.127 210.576C460.917 208.812 455.59 207.395 450.216 206.401C449.337 206.237 448.458 206.108 447.593 206.026C446.313 205.904 445.039 206.346 444.154 207.273C437.036 214.738 431.151 224.438 430.633 234.069C430.572 235.173 431.014 236.242 431.757 237.059C434.073 239.593 436.995 241.677 440.319 242.29C446.218 243.387 451.98 244.988 457.599 247.045C435.551 311.086 380.037 356.566 315.513 367.723C302.482 369.978 289.084 370.823 275.516 370.148C265.755 369.658 255.906 368.391 246.043 366.272C238.237 364.59 230.642 362.383 223.238 359.768C223.231 359.768 223.231 359.768 223.231 359.768C223.204 359.754 223.17 359.747 223.143 359.733C211.093 355.47 199.616 350.027 188.854 343.441C165.749 329.307 145.914 310.058 130.786 286.633C112.756 258.72 102.873 227.169 101.606 194.808C101.095 181.771 102.008 168.604 104.344 155.492C104.739 153.272 105.127 151.051 105.604 148.837C115.889 101.048 144.177 60.125 185.25 33.6012C215.214 14.2567 249.353 4.26433 284.194 4.26433C297.115 4.26433 310.138 5.64024 323.073 8.42613C416.649 28.5608 478.129 117.321 466.127 210.576ZM444.644 443.712C447.307 435.334 455.842 428.379 462.109 424.224C460.324 428.08 457.906 432.63 455.624 436.914C454.997 438.092 454.357 439.305 453.71 440.524C450.761 442.411 447.212 444.938 443.874 448.03C443.949 446.593 444.188 445.156 444.644 443.712ZM438.459 476.747C435.994 472.422 435.449 467.933 436.845 463.417C437.792 460.352 439.549 457.485 441.695 454.862C442.09 454.379 442.492 453.895 442.907 453.432C443.323 452.975 443.745 452.533 444.174 452.09C446.218 450.006 448.438 448.133 450.597 446.498C448.915 449.794 447.266 453.166 445.761 456.538C445.489 457.144 445.223 457.75 444.964 458.35C444.712 458.942 444.46 459.535 444.215 460.121C441.661 466.299 439.74 472.361 439.181 477.776C438.936 477.435 438.677 477.122 438.459 476.747ZM549.622 344.442C547.824 350.947 542.94 356.26 535.747 359.795C534.998 360.156 534.221 360.496 533.431 360.823C532.587 361.171 531.722 361.491 530.829 361.791C528.895 362.444 526.851 363.003 524.685 363.432C515.149 365.333 504.496 364.781 493.891 361.838C493.114 361.627 492.351 362.043 492.059 362.765C492.038 362.819 491.997 362.86 491.984 362.921C491.752 363.745 492.236 364.604 493.06 364.828C499.81 366.695 506.581 367.642 513.106 367.642C517.295 367.642 521.382 367.253 525.292 366.47C529.12 365.714 532.621 364.604 535.768 363.194C535.89 371.429 535.529 415.342 515.476 440.483C498.7 461.524 487.059 468.036 482.475 469.95C489.784 457.076 494.62 444.243 494.987 443.256C495.287 442.452 494.879 441.553 494.075 441.26C493.278 440.96 492.379 441.369 492.079 442.172C491.97 442.459 485.022 460.897 475.323 475.678C474.88 476.359 474.431 477.027 473.974 477.681C468.968 484.942 463.307 491.024 457.525 493.122C454.173 494.335 451.081 494.089 448.084 492.38C444.814 490.513 443.064 487.646 442.417 484.124C442.315 483.552 442.24 482.966 442.185 482.36C442.137 481.761 442.117 481.148 442.117 480.514C442.165 475.433 443.854 469.405 446.34 463.111C446.551 462.573 446.769 462.035 446.994 461.49C447.226 460.931 447.457 460.373 447.702 459.807C450.168 454.065 453.165 448.214 456.046 442.738C456.53 441.832 457 440.933 457.47 440.047C457.77 439.489 458.069 438.93 458.362 438.372C458.519 438.079 458.669 437.8 458.826 437.507C462.463 430.661 465.201 425.369 466.665 421.411C466.952 420.642 467.183 419.926 467.367 419.245C467.565 418.544 467.701 417.89 467.776 417.29C467.939 416.085 467.878 415.077 467.544 414.259C467.135 413.258 466.359 412.556 465.31 412.223C464.765 412.052 464.207 411.971 463.634 411.971C458.751 411.971 453.056 418.04 446.579 424.946C438.766 433.277 429.911 442.738 423.651 439.312C417.671 436.042 415.954 431.043 415.566 427.426C414.864 420.819 417.95 413.667 423.631 408.756L424.251 408.224C434.788 399.117 437.615 396.672 437.744 382.422C436.961 360.994 455.972 347.316 459.854 344.748C464.091 349.782 469.765 354.407 476.637 358.187C477.38 358.596 478.327 358.33 478.742 357.574C478.776 357.52 478.776 357.458 478.797 357.404C479.083 356.689 478.824 355.851 478.129 355.47C473.048 352.67 468.682 349.401 465.106 345.865C464.411 345.184 463.757 344.489 463.13 343.788C462.538 343.127 461.972 342.46 461.434 341.785C455.427 334.225 452.94 325.847 455.038 318.265C458.853 304.513 476.27 296.796 496.752 298.39C496.963 302.47 496.874 306.55 496.479 310.63C495.587 315.847 494.197 320.949 492.297 325.894C491.888 326.773 491.5 327.658 491.064 328.523C490.308 330.022 489.715 331.568 489.286 333.142C482.223 328.476 477.339 323.292 477.25 323.19C476.665 322.563 475.684 322.529 475.057 323.108C474.431 323.687 474.39 324.668 474.975 325.302C475.691 326.078 492.134 343.584 509.721 343.584C510.47 343.584 511.233 343.556 511.989 343.488C530.244 341.874 537.988 333.598 538.308 333.251C538.88 332.617 538.84 331.643 538.206 331.057C537.981 330.853 537.716 330.758 537.436 330.703C536.626 330.437 533.731 329.477 530.468 328.414C531.98 322.965 533.029 317.394 533.602 311.781C536.714 314.076 539.534 316.583 541.925 319.308C549.111 327.495 551.843 336.418 549.622 344.442ZM210.371 197.825C212.34 198.248 214.329 198.459 216.324 198.459C217.584 198.459 218.851 198.363 220.118 198.2C220.35 198.806 220.622 199.406 220.915 200.012C221.998 204.684 224.968 209.364 229.729 213.655C236.69 219.928 246.662 224.71 257.813 227.108C262.881 228.198 267.921 228.742 272.764 228.742C278.567 228.742 284.071 227.959 288.941 226.399C298.259 223.416 304.212 217.94 305.718 210.971C306.862 205.638 305.248 200.019 301.168 194.733C299.628 191.811 297.374 188.936 294.356 186.212C287.47 180 277.58 175.266 266.511 172.889C262.928 172.119 259.4 171.669 255.967 171.451C261.893 163.121 266.92 151.998 269.978 137.122C274.072 117.28 273.704 100.469 268.922 86.9281C264.079 70.1924 254.264 58.1361 241.05 55.2957C216.794 50.0782 190.189 77.8008 181.729 117.096C173.269 156.391 186.115 192.608 210.371 197.825ZM249.734 174.401C250.204 174.387 250.674 174.373 251.151 174.373C251.301 174.367 251.444 174.36 251.594 174.36C251.614 174.36 251.628 174.36 251.648 174.36C252.241 174.36 252.854 174.394 253.46 174.414C253.549 174.414 253.644 174.414 253.733 174.421C257.636 174.551 261.709 175.027 265.864 175.92C266.545 176.07 267.213 176.253 267.894 176.417C277.6 178.801 286.21 183.044 292.279 188.521C293.212 189.359 294.036 190.21 294.813 191.075C297.639 194.208 299.397 197.451 300.057 200.645C300.432 202.471 300.487 204.276 300.105 206.033C298.893 211.673 293.798 216.196 285.767 218.771C277.437 221.434 267.042 221.652 256.505 219.39C245.961 217.122 236.582 212.647 230.09 206.789C228.633 205.475 227.379 204.126 226.31 202.77C224.968 201.074 223.939 199.351 223.224 197.635C223.02 197.151 222.843 196.667 222.686 196.191C222.632 196 222.564 195.809 222.509 195.618C222.427 195.305 222.38 194.999 222.318 194.692C222.291 194.59 222.271 194.481 222.25 194.372C222.128 193.711 222.059 193.057 222.032 192.41C222.005 191.729 222.039 191.055 222.121 190.387C222.162 190.019 222.182 189.645 222.257 189.277C222.359 188.807 222.502 188.357 222.652 187.908C225.288 180.102 235.451 175.136 248.461 174.448C248.883 174.428 249.312 174.414 249.734 174.401ZM184.76 117.75C191.926 84.4692 212.278 59.7845 232.508 57.8841L225.853 88.3449C226.228 88.3926 226.596 88.4266 226.977 88.4879C227.291 88.5424 227.59 88.6173 227.897 88.6786C228.585 88.8149 229.252 88.9783 229.906 89.1623C239.149 91.7506 245.402 98.6915 244.244 105.632C243.025 112.9 234.116 117.525 223.953 116.422C223.415 116.367 222.877 116.299 222.332 116.211C222.189 116.183 222.046 116.149 221.903 116.122C221.215 115.999 220.541 115.85 219.88 115.672L203.267 191.736C185.87 181.457 177.649 150.785 184.76 117.75Z" fill="black"/>
</g>
</svg>
