<svg width="149" height="185" viewBox="0 0 149 185" fill="none" xmlns="http://www.w3.org/2000/svg">
<path d="M105.483 108.413L142.558 94.7267C144.843 93.8783 144.843 89.7752 142.558 88.9355L105.483 75.2497C96.6183 71.9689 89.7018 63.1826 87.1568 51.9552L76.9076 6.80315C76.2411 3.88593 72.9862 3.88593 72.3283 6.80315L62.0704 51.9898C59.5168 63.2086 52.6089 72.0035 43.7534 75.2843L6.67784 88.9701C4.39254 89.8098 4.39254 93.913 6.67784 94.7527L43.7534 108.438C52.6089 111.719 59.5168 120.506 62.0704 131.733L72.2851 176.885C72.9429 179.802 76.2064 179.802 76.8643 176.885L87.1828 131.707C89.7018 120.48 96.6183 111.685 105.483 108.413Z" fill="#FFCD04"/>
<mask id="mask0_263_2771" style="mask-type:luminance" maskUnits="userSpaceOnUse" x="0" y="0" width="149" height="185">
<path d="M0.627075 0.214844H148.566V184.147H0.627075V0.214844Z" fill="white"/>
</mask>
<g mask="url(#mask0_263_2771)">
<path d="M74.6142 183.325C73.8438 183.307 73.0993 183.169 72.3808 182.892C71.6537 182.623 71.0044 182.234 70.4158 181.732C69.8272 181.23 69.3424 180.65 68.9529 179.975C68.572 179.308 68.3123 178.598 68.1738 177.836L57.9246 132.641C55.7085 122.911 49.7269 115.155 42.2737 112.42L5.19815 98.7251C3.83909 98.1192 2.74837 97.2016 1.93467 95.9464C1.12096 94.6999 0.714111 93.3321 0.714111 91.8346C0.714111 90.3457 1.12096 88.978 1.93467 87.7314C2.74837 86.4762 3.83909 85.55 5.19815 84.9527L42.2737 71.2582C49.7269 68.5141 55.7085 60.7666 57.9246 51.0367L68.1738 5.84144C68.295 5.07101 68.546 4.35253 68.9182 3.67733C69.2991 2.99347 69.7839 2.40483 70.3725 1.90275C70.9698 1.39202 71.6277 1.01114 72.3548 0.742791C73.082 0.474442 73.8351 0.335938 74.6142 0.335938C75.3933 0.335938 76.1377 0.474442 76.8735 0.742791C77.6007 1.01114 78.2585 1.39202 78.8472 1.90275C79.4358 2.40483 79.9206 2.99347 80.3015 3.67733C80.6823 4.35253 80.9334 5.07101 81.0546 5.84144L91.3125 51.0367C93.5112 60.7752 99.5101 68.5228 106.946 71.2582L144.022 84.9527C145.398 85.55 146.489 86.4762 147.302 87.7228C148.125 88.9693 148.532 90.3457 148.532 91.8346C148.532 93.3321 148.125 94.6999 147.302 95.955C146.489 97.2016 145.398 98.1278 144.022 98.7251L106.946 112.42C99.5015 115.164 93.5112 122.92 91.3125 132.641L81.0546 177.836C80.9161 178.598 80.6564 179.308 80.2755 179.975C79.886 180.65 79.4012 181.23 78.8212 181.732C78.2326 182.234 77.5747 182.623 76.8562 182.892C76.1377 183.169 75.3846 183.307 74.6142 183.325ZM11.1278 91.8086L45.1736 104.395C55.4402 108.187 63.2569 118.038 66.1741 130.737L74.5622 167.726L82.959 130.737C85.8416 118.038 93.6843 108.187 103.951 104.395L138.057 91.8086L103.951 79.2135C93.6843 75.4306 85.8589 65.5709 82.959 52.8806L74.5622 15.8916L66.1741 52.8806C63.2916 65.5709 55.4402 75.4306 45.1736 79.2135L11.1278 91.8086Z" fill="black"/>
</g>
</svg>
